{"glyphs":{"0":{"ha":743,"x_min":46,"x_max":696,"o":"m 371 982 q 541 925 468 982 q 655 756 614 868 q 696 486 696 644 q 655 216 696 328 q 541 47 614 104 q 371 -10 468 -10 q 201 47 274 -10 q 87 216 128 104 q 46 486 46 328 q 87 756 46 644 q 201 925 128 868 q 371 982 274 982 m 371 843 q 263 753 303 843 q 222 486 222 664 q 263 219 222 308 q 371 129 303 129 q 478 219 438 129 q 519 486 519 310 q 478 753 519 663 q 371 843 438 843 z "},"1":{"ha":743,"x_min":53,"x_max":681,"o":"m 422 976 q 457 967 440 976 q 474 944 474 957 l 474 140 l 643 140 q 672 126 663 140 q 681 81 681 113 l 681 60 q 672 14 681 28 q 643 0 663 0 l 96 0 q 67 14 76 0 q 58 60 58 28 l 58 81 q 67 126 58 113 q 96 140 76 140 l 301 140 l 301 808 l 92 776 q 62 809 71 776 q 53 876 53 842 q 85 910 53 903 l 422 976 z "},"2":{"ha":743,"x_min":56,"x_max":671,"o":"m 357 982 q 578 911 499 982 q 657 724 657 840 q 642 625 657 669 q 592 527 628 581 q 488 389 557 474 l 285 139 l 635 139 q 662 125 653 139 q 671 81 671 111 l 671 60 q 663 15 671 29 q 635 0 654 0 l 90 0 q 66 35 76 0 q 56 100 56 71 q 60 122 56 117 l 414 560 q 467 643 453 608 q 482 718 482 678 q 442 809 482 776 q 336 842 401 842 q 258 828 290 842 q 192 794 226 815 q 157 778 165 778 q 113 808 135 778 q 90 864 90 839 q 132 926 90 899 q 235 967 174 953 q 357 982 297 982 z "},"3":{"ha":743,"x_min":54,"x_max":660,"o":"m 344 982 q 551 917 474 982 q 628 739 628 853 q 591 616 628 668 q 494 539 554 564 l 494 533 q 615 442 571 508 q 660 283 660 376 q 617 123 660 189 q 504 24 575 57 q 347 -10 433 -10 q 147 17 240 -10 q 54 92 54 44 q 76 149 54 114 q 115 183 97 183 q 153 169 125 183 q 234 140 196 151 q 324 129 272 129 q 438 168 392 129 q 483 285 483 207 q 439 404 483 367 q 304 442 394 442 l 263 442 q 235 456 243 442 q 226 501 226 471 l 226 522 q 235 567 226 553 q 263 582 243 582 l 294 582 q 413 624 372 582 q 453 722 453 665 q 421 808 453 774 q 321 842 389 842 q 236 832 269 842 q 174 807 203 822 q 144 797 151 797 q 106 832 128 797 q 83 892 83 867 q 165 957 83 932 q 344 982 247 982 z "},"4":{"ha":743,"x_min":19,"x_max":725,"o":"m 553 975 q 621 936 621 975 l 621 350 l 689 350 q 717 335 708 350 q 725 290 725 321 l 725 269 q 717 224 725 239 q 689 210 708 210 l 621 210 l 621 36 q 553 -3 621 -3 l 517 -3 q 449 36 449 -3 l 449 210 l 64 210 q 35 250 50 210 q 19 318 19 290 q 22 333 19 331 l 450 951 q 477 970 460 965 q 521 975 494 975 l 553 975 m 443 714 l 200 350 l 449 350 l 449 713 l 443 714 z "},"5":{"ha":743,"x_min":57,"x_max":672,"o":"m 583 972 q 611 958 603 972 q 619 913 619 943 l 619 883 q 611 844 619 857 q 583 832 603 832 l 294 832 l 279 601 l 328 601 q 672 299 672 601 q 571 63 672 136 q 325 -10 469 -10 q 188 3 250 -10 q 92 38 126 17 q 57 83 57 60 q 81 142 57 104 q 122 179 104 179 q 151 169 126 179 q 229 141 189 153 q 324 129 269 129 q 448 173 400 129 q 496 294 496 217 q 294 463 496 463 l 156 463 q 119 474 129 463 q 108 513 108 486 l 135 922 q 149 960 136 949 q 188 972 161 972 l 583 972 z "},"6":{"ha":743,"x_min":56,"x_max":688,"o":"m 532 976 q 564 958 550 976 q 585 915 578 939 q 593 876 593 890 q 590 860 593 865 q 578 853 588 856 q 377 732 460 813 q 261 544 294 651 q 417 583 331 583 q 543 552 481 583 q 647 456 606 521 q 688 293 688 390 q 643 126 688 194 q 526 24 599 57 q 371 -10 454 -10 q 210 28 282 -10 q 97 147 139 67 q 56 349 56 228 q 154 706 56 565 q 370 912 253 847 q 532 976 488 976 m 367 443 q 233 404 301 443 q 231 333 231 360 q 271 177 231 224 q 375 131 311 131 q 472 174 429 131 q 514 288 514 217 q 474 403 514 363 q 367 443 433 443 z "},"7":{"ha":743,"x_min":61,"x_max":685,"o":"m 647 972 q 671 933 657 972 q 685 867 685 894 q 682 850 685 858 l 300 24 q 228 -3 288 -3 l 189 -3 q 115 24 115 -3 q 122 46 115 29 l 488 832 l 99 832 q 70 846 79 832 q 61 892 61 860 l 61 913 q 70 958 61 944 q 99 972 79 972 l 647 972 z "},"8":{"ha":743,"x_min":51,"x_max":692,"o":"m 379 982 q 526 951 463 982 q 624 866 589 921 q 660 742 660 811 q 626 612 660 660 q 533 533 593 564 q 649 438 607 499 q 692 272 692 378 q 656 129 692 193 q 548 28 619 65 q 375 -10 476 -10 q 135 69 219 -10 q 51 279 51 149 q 91 436 51 376 q 197 524 131 496 q 89 728 89 592 q 124 858 89 800 q 224 949 158 917 q 379 982 289 982 m 375 843 q 294 815 326 843 q 261 732 261 786 q 296 644 261 675 q 399 588 331 614 q 490 732 490 646 q 458 814 490 785 q 375 843 425 843 m 322 465 q 251 392 276 435 q 226 288 226 350 q 267 172 226 214 q 372 129 307 129 q 476 172 436 129 q 515 279 515 215 q 490 369 515 335 q 430 419 464 403 q 322 465 396 436 z "},"9":{"ha":743,"x_min":53,"x_max":686,"o":"m 371 981 q 531 942 460 981 q 644 824 603 904 q 686 624 686 744 q 588 265 686 406 q 372 60 489 125 q 210 -6 254 -6 q 165 31 182 -6 q 149 94 149 68 q 152 111 149 106 q 164 119 156 117 q 363 240 281 160 q 481 428 446 319 q 324 389 411 389 q 197 420 260 389 q 94 516 135 451 q 53 678 53 581 q 97 845 53 776 q 215 947 142 914 q 371 981 288 981 m 367 842 q 270 798 313 842 q 228 683 228 754 q 269 568 228 608 q 375 528 310 528 q 507 567 439 528 q 511 638 511 603 q 470 794 511 747 q 367 842 429 842 z "},"\u0000":{"ha":0,"x_min":0,"x_max":0,"o":""},"\r":{"ha":333,"x_min":0,"x_max":0,"o":""}," ":{"ha":333,"x_min":0,"x_max":0,"o":""},"A":{"ha":851,"x_min":6,"x_max":846,"o":"m 457 975 q 526 949 517 975 l 842 47 q 846 25 846 35 q 779 -3 846 -3 l 736 -3 q 667 24 676 -3 l 601 214 l 244 214 l 181 24 q 119 -3 171 -3 l 82 -3 q 6 25 6 -3 q 11 49 6 29 l 325 949 q 396 975 335 975 l 457 975 m 422 764 q 416 729 421 757 q 401 678 411 701 l 297 369 l 550 369 l 447 678 q 428 764 435 713 l 422 764 z "},"Á":{"ha":851,"x_min":6,"x_max":846,"o":"m 6 0 m 457 975 q 526 949 517 975 l 842 47 q 846 25 846 35 q 779 -3 846 -3 l 736 -3 q 667 24 676 -3 l 601 214 l 244 214 l 181 24 q 119 -3 171 -3 l 82 -3 q 6 25 6 -3 q 11 49 6 29 l 325 949 q 396 975 335 975 l 457 975 m 422 764 q 416 729 421 757 q 401 678 411 701 l 297 369 l 550 369 l 447 678 q 428 764 435 713 l 422 764 m 538 1264 q 597 1260 578 1264 q 615 1246 615 1256 q 600 1219 615 1238 q 550 1161 585 1200 l 476 1081 q 383 1050 449 1050 q 353 1054 361 1050 q 344 1068 344 1058 q 354 1093 344 1075 q 381 1139 364 1111 q 432 1228 399 1168 q 538 1264 451 1264 z "},"Ă":{"ha":851,"x_min":6,"x_max":846,"o":"m 6 0 m 457 975 q 526 949 517 975 l 842 47 q 846 25 846 35 q 779 -3 846 -3 l 736 -3 q 667 24 676 -3 l 601 214 l 244 214 l 181 24 q 119 -3 171 -3 l 82 -3 q 6 25 6 -3 q 11 49 6 29 l 325 949 q 396 975 335 975 l 457 975 m 422 764 q 416 729 421 757 q 401 678 411 701 l 297 369 l 550 369 l 447 678 q 428 764 435 713 l 422 764 m 590 1239 q 629 1207 629 1239 q 570 1095 629 1140 q 426 1050 511 1050 q 282 1095 340 1050 q 224 1207 224 1140 q 261 1239 224 1239 q 283 1233 276 1239 q 301 1210 290 1226 q 426 1164 335 1164 q 551 1213 518 1164 q 569 1233 563 1228 q 590 1239 575 1239 z "},"Ắ":{"ha":851,"x_min":6,"x_max":846,"o":"m 522 1390 q 562 1385 550 1390 q 574 1363 574 1379 q 559 1333 574 1353 q 489 1243 544 1313 l 471 1221 q 447 1204 463 1210 q 404 1199 432 1199 q 381 1203 388 1199 q 374 1217 374 1207 q 388 1256 374 1225 q 404 1296 401 1288 l 429 1353 q 522 1390 449 1390 m 590 1225 q 629 1193 629 1225 q 602 1122 629 1154 q 528 1069 575 1089 q 426 1050 482 1050 q 324 1069 371 1050 q 251 1122 278 1089 q 224 1193 224 1154 q 261 1225 224 1225 q 280 1221 274 1225 q 292 1210 286 1217 q 301 1197 297 1203 q 426 1147 343 1147 q 551 1199 514 1147 q 560 1210 554 1203 q 574 1222 567 1218 q 590 1225 581 1225 m 457 975 q 526 949 517 975 l 842 47 q 846 25 846 35 q 779 -3 846 -3 l 736 -3 q 667 24 676 -3 l 601 214 l 244 214 l 181 24 q 119 -3 171 -3 l 82 -3 q 6 25 6 -3 q 11 49 6 29 l 325 949 q 396 975 335 975 l 457 975 m 422 764 q 416 729 421 757 q 401 678 411 701 l 297 369 l 550 369 l 447 678 q 428 764 435 713 l 422 764 z "},"Ặ":{"ha":851,"x_min":6,"x_max":846,"o":"m 6 0 m 457 975 q 526 949 517 975 l 842 47 q 846 25 846 35 q 779 -3 846 -3 l 736 -3 q 667 24 676 -3 l 601 214 l 244 214 l 181 24 q 119 -3 171 -3 l 82 -3 q 6 25 6 -3 q 11 49 6 29 l 325 949 q 396 975 335 975 l 457 975 m 422 764 q 416 729 421 757 q 401 678 411 701 l 297 369 l 550 369 l 447 678 q 428 764 435 713 l 422 764 m 590 1239 q 629 1207 629 1239 q 570 1095 629 1140 q 426 1050 511 1050 q 282 1095 340 1050 q 224 1207 224 1140 q 261 1239 224 1239 q 283 1233 276 1239 q 301 1210 290 1226 q 426 1164 335 1164 q 551 1213 518 1164 q 569 1233 563 1228 q 590 1239 575 1239 m 435 -111 q 507 -150 507 -111 l 507 -229 q 432 -268 507 -268 q 377 -258 394 -268 q 360 -229 360 -249 l 360 -150 q 435 -111 360 -111 z "},"Ằ":{"ha":851,"x_min":6,"x_max":846,"o":"m 344 1389 q 444 1353 431 1389 q 493 1215 493 1235 q 484 1201 493 1206 q 454 1197 475 1197 q 381 1228 406 1197 l 329 1299 q 295 1347 306 1332 q 285 1371 285 1363 q 299 1385 285 1381 q 344 1389 313 1389 m 590 1225 q 629 1193 629 1225 q 602 1122 629 1154 q 528 1069 575 1089 q 426 1050 482 1050 q 324 1069 371 1050 q 251 1122 278 1089 q 224 1193 224 1154 q 261 1225 224 1225 q 280 1221 274 1225 q 292 1210 286 1217 q 301 1197 297 1203 q 426 1147 343 1147 q 551 1199 514 1147 q 560 1210 554 1203 q 574 1222 567 1218 q 590 1225 581 1225 m 457 975 q 526 949 517 975 l 842 47 q 846 25 846 35 q 779 -3 846 -3 l 736 -3 q 667 24 676 -3 l 601 214 l 244 214 l 181 24 q 119 -3 171 -3 l 82 -3 q 6 25 6 -3 q 11 49 6 29 l 325 949 q 396 975 335 975 l 457 975 m 422 764 q 416 729 421 757 q 401 678 411 701 l 297 369 l 550 369 l 447 678 q 428 764 435 713 l 422 764 z "},"Ẳ":{"ha":851,"x_min":6,"x_max":846,"o":"m 447 1300 q 436 1322 447 1314 q 410 1329 425 1329 q 362 1318 381 1329 q 339 1307 343 1307 q 316 1327 331 1307 q 301 1361 301 1347 q 338 1388 301 1375 q 411 1400 374 1400 q 501 1376 465 1400 q 536 1307 536 1351 q 496 1233 536 1265 q 463 1213 482 1222 q 432 1203 444 1203 q 391 1212 407 1203 q 375 1232 375 1221 q 404 1257 375 1243 q 438 1278 428 1269 q 447 1300 447 1286 m 590 1225 q 629 1193 629 1225 q 602 1122 629 1154 q 528 1069 575 1089 q 426 1050 482 1050 q 324 1069 371 1050 q 251 1122 278 1089 q 224 1193 224 1154 q 261 1225 224 1225 q 280 1221 274 1225 q 292 1210 286 1217 q 301 1197 297 1203 q 426 1147 343 1147 q 551 1199 514 1147 q 560 1210 554 1203 q 574 1222 567 1218 q 590 1225 581 1225 m 457 975 q 526 949 517 975 l 842 47 q 846 25 846 35 q 779 -3 846 -3 l 736 -3 q 667 24 676 -3 l 601 214 l 244 214 l 181 24 q 119 -3 171 -3 l 82 -3 q 6 25 6 -3 q 11 49 6 29 l 325 949 q 396 975 335 975 l 457 975 m 422 764 q 416 729 421 757 q 401 678 411 701 l 297 369 l 550 369 l 447 678 q 428 764 435 713 l 422 764 z "},"Ẵ":{"ha":851,"x_min":6,"x_max":846,"o":"m 333 1408 q 397 1397 360 1408 q 440 1382 433 1385 q 478 1370 449 1379 q 526 1360 508 1361 q 572 1389 553 1360 q 604 1411 589 1411 q 619 1408 608 1411 l 632 1404 q 656 1374 656 1396 q 651 1356 656 1367 q 602 1284 635 1310 q 522 1258 569 1258 q 414 1283 489 1258 q 378 1295 408 1285 q 328 1306 347 1306 q 282 1276 301 1306 q 250 1254 265 1254 q 236 1257 247 1254 l 222 1263 q 199 1293 199 1271 q 203 1311 199 1301 q 253 1382 219 1356 q 333 1408 286 1408 m 590 1225 q 629 1193 629 1225 q 602 1122 629 1154 q 528 1069 575 1089 q 426 1050 482 1050 q 324 1069 371 1050 q 251 1122 278 1089 q 224 1193 224 1154 q 261 1225 224 1225 q 280 1221 274 1225 q 292 1210 286 1217 q 301 1197 297 1203 q 426 1147 343 1147 q 551 1199 514 1147 q 560 1210 554 1203 q 574 1222 567 1218 q 590 1225 581 1225 m 457 975 q 526 949 517 975 l 842 47 q 846 25 846 35 q 779 -3 846 -3 l 736 -3 q 667 24 676 -3 l 601 214 l 244 214 l 181 24 q 119 -3 171 -3 l 82 -3 q 6 25 6 -3 q 11 49 6 29 l 325 949 q 396 975 335 975 l 457 975 m 422 764 q 416 729 421 757 q 401 678 411 701 l 297 369 l 550 369 l 447 678 q 428 764 435 713 l 422 764 z "},"Â":{"ha":851,"x_min":6,"x_max":846,"o":"m 6 0 m 457 975 q 526 949 517 975 l 842 47 q 846 25 846 35 q 779 -3 846 -3 l 736 -3 q 667 24 676 -3 l 601 214 l 244 214 l 181 24 q 119 -3 171 -3 l 82 -3 q 6 25 6 -3 q 11 49 6 29 l 325 949 q 396 975 335 975 l 457 975 m 422 764 q 416 729 421 757 q 401 678 411 701 l 297 369 l 550 369 l 447 678 q 428 764 435 713 l 422 764 m 438 1243 q 485 1238 467 1243 q 514 1215 503 1232 l 600 1081 q 608 1058 608 1068 q 579 1042 608 1042 l 558 1042 q 482 1069 504 1042 l 425 1143 l 369 1071 q 339 1048 357 1054 q 293 1042 321 1042 l 272 1042 q 243 1058 243 1042 q 251 1081 243 1068 l 338 1215 q 367 1238 349 1232 q 414 1243 385 1243 l 438 1243 z "},"Ấ":{"ha":851,"x_min":6,"x_max":846,"o":"m 711 1338 q 751 1332 739 1338 q 763 1310 763 1326 q 748 1280 763 1300 q 678 1190 733 1260 l 660 1168 q 636 1151 651 1157 q 593 1146 621 1146 q 569 1150 576 1146 q 563 1164 563 1154 q 576 1203 563 1172 q 593 1243 590 1235 l 618 1300 q 711 1338 638 1338 m 440 1243 q 479 1237 464 1243 q 503 1215 494 1231 l 582 1081 q 590 1058 590 1068 q 561 1042 590 1042 l 540 1042 q 464 1069 474 1042 l 428 1143 l 372 1071 q 342 1048 360 1054 q 296 1042 324 1042 l 275 1042 q 246 1058 246 1042 q 254 1081 246 1068 l 340 1215 q 369 1238 351 1232 q 417 1243 388 1243 l 440 1243 m 457 975 q 526 949 517 975 l 842 47 q 846 25 846 35 q 779 -3 846 -3 l 736 -3 q 667 24 676 -3 l 601 214 l 244 214 l 181 24 q 119 -3 171 -3 l 82 -3 q 6 25 6 -3 q 11 49 6 29 l 325 949 q 396 975 335 975 l 457 975 m 422 764 q 416 729 421 757 q 401 678 411 701 l 297 369 l 550 369 l 447 678 q 428 764 435 713 l 422 764 z "},"Ậ":{"ha":851,"x_min":6,"x_max":846,"o":"m 6 0 m 457 975 q 526 949 517 975 l 842 47 q 846 25 846 35 q 779 -3 846 -3 l 736 -3 q 667 24 676 -3 l 601 214 l 244 214 l 181 24 q 119 -3 171 -3 l 82 -3 q 6 25 6 -3 q 11 49 6 29 l 325 949 q 396 975 335 975 l 457 975 m 422 764 q 416 729 421 757 q 401 678 411 701 l 297 369 l 550 369 l 447 678 q 428 764 435 713 l 422 764 m 438 1243 q 485 1238 467 1243 q 514 1215 503 1232 l 600 1081 q 608 1058 608 1068 q 579 1042 608 1042 l 558 1042 q 482 1069 504 1042 l 425 1143 l 369 1071 q 339 1048 357 1054 q 293 1042 321 1042 l 272 1042 q 243 1058 243 1042 q 251 1081 243 1068 l 338 1215 q 367 1238 349 1232 q 414 1243 385 1243 l 438 1243 m 435 -111 q 507 -150 507 -111 l 507 -229 q 432 -268 507 -268 q 377 -258 394 -268 q 360 -229 360 -249 l 360 -150 q 435 -111 360 -111 z "},"Ầ":{"ha":851,"x_min":6,"x_max":846,"o":"m 535 1336 q 635 1300 621 1336 q 683 1163 683 1182 q 674 1149 683 1153 q 644 1144 665 1144 q 571 1175 596 1144 l 519 1246 q 485 1294 496 1279 q 475 1318 475 1310 q 489 1332 475 1328 q 535 1336 503 1336 m 440 1243 q 479 1237 464 1243 q 503 1215 494 1231 l 582 1081 q 590 1058 590 1068 q 561 1042 590 1042 l 540 1042 q 464 1069 474 1042 l 428 1143 l 372 1071 q 342 1048 360 1054 q 296 1042 324 1042 l 275 1042 q 246 1058 246 1042 q 254 1081 246 1068 l 340 1215 q 369 1238 351 1232 q 417 1243 388 1243 l 440 1243 m 457 975 q 526 949 517 975 l 842 47 q 846 25 846 35 q 779 -3 846 -3 l 736 -3 q 667 24 676 -3 l 601 214 l 244 214 l 181 24 q 119 -3 171 -3 l 82 -3 q 6 25 6 -3 q 11 49 6 29 l 325 949 q 396 975 335 975 l 457 975 m 422 764 q 416 729 421 757 q 401 678 411 701 l 297 369 l 550 369 l 447 678 q 428 764 435 713 l 422 764 z "},"Ẩ":{"ha":851,"x_min":6,"x_max":846,"o":"m 638 1247 q 626 1269 638 1261 q 600 1276 615 1276 q 552 1265 571 1276 q 529 1254 533 1254 q 506 1274 521 1254 q 492 1308 492 1294 q 528 1335 492 1322 q 601 1347 564 1347 q 691 1323 656 1347 q 726 1254 726 1299 q 686 1181 726 1213 q 653 1160 672 1169 q 622 1150 635 1150 q 581 1159 597 1150 q 565 1179 565 1168 q 594 1204 565 1190 q 628 1225 618 1217 q 638 1247 638 1233 m 440 1243 q 479 1237 464 1243 q 503 1215 494 1231 l 582 1081 q 590 1058 590 1068 q 561 1042 590 1042 l 540 1042 q 464 1069 474 1042 l 428 1143 l 372 1071 q 342 1048 360 1054 q 296 1042 324 1042 l 275 1042 q 246 1058 246 1042 q 254 1081 246 1068 l 340 1215 q 369 1238 351 1232 q 417 1243 388 1243 l 440 1243 m 457 975 q 526 949 517 975 l 842 47 q 846 25 846 35 q 779 -3 846 -3 l 736 -3 q 667 24 676 -3 l 601 214 l 244 214 l 181 24 q 119 -3 171 -3 l 82 -3 q 6 25 6 -3 q 11 49 6 29 l 325 949 q 396 975 335 975 l 457 975 m 422 764 q 416 729 421 757 q 401 678 411 701 l 297 369 l 550 369 l 447 678 q 428 764 435 713 l 422 764 z "},"Ẫ":{"ha":851,"x_min":6,"x_max":846,"o":"m 331 1408 q 394 1397 357 1408 q 438 1382 431 1385 q 476 1370 446 1379 q 524 1360 506 1361 q 569 1389 550 1360 q 601 1411 586 1411 q 617 1408 606 1411 l 629 1404 q 653 1374 653 1396 q 649 1356 653 1367 q 599 1284 632 1310 q 519 1258 567 1258 q 411 1283 486 1258 q 375 1295 406 1285 q 325 1306 344 1306 q 279 1276 299 1306 q 247 1254 263 1254 q 233 1257 244 1254 l 219 1263 q 196 1293 196 1271 q 200 1311 196 1301 q 250 1382 217 1356 q 331 1408 283 1408 m 439 1210 q 483 1203 465 1210 q 515 1182 501 1197 l 601 1081 q 610 1058 610 1068 q 581 1042 610 1042 l 560 1042 q 524 1048 539 1042 q 483 1069 508 1054 l 426 1119 l 371 1071 q 351 1058 365 1067 q 323 1046 336 1050 q 294 1042 310 1042 l 274 1042 q 244 1058 244 1042 q 253 1081 244 1068 l 339 1182 q 372 1203 354 1197 q 415 1210 389 1210 l 439 1210 m 457 975 q 526 949 517 975 l 842 47 q 846 25 846 35 q 779 -3 846 -3 l 736 -3 q 667 24 676 -3 l 601 214 l 244 214 l 181 24 q 119 -3 171 -3 l 82 -3 q 6 25 6 -3 q 11 49 6 29 l 325 949 q 396 975 335 975 l 457 975 m 422 764 q 416 729 421 757 q 401 678 411 701 l 297 369 l 550 369 l 447 678 q 428 764 435 713 l 422 764 z "},"Ä":{"ha":851,"x_min":6,"x_max":846,"o":"m 6 0 m 457 975 q 526 949 517 975 l 842 47 q 846 25 846 35 q 779 -3 846 -3 l 736 -3 q 667 24 676 -3 l 601 214 l 244 214 l 181 24 q 119 -3 171 -3 l 82 -3 q 6 25 6 -3 q 11 49 6 29 l 325 949 q 396 975 335 975 l 457 975 m 422 764 q 416 729 421 757 q 401 678 411 701 l 297 369 l 550 369 l 447 678 q 428 764 435 713 l 422 764 m 311 1221 q 385 1182 385 1221 l 385 1103 q 310 1064 385 1064 q 253 1074 271 1064 q 236 1103 236 1083 l 236 1182 q 311 1221 236 1221 m 543 1221 q 617 1182 617 1221 l 617 1103 q 542 1064 617 1064 q 485 1074 503 1064 q 468 1103 468 1083 l 468 1182 q 543 1221 468 1221 z "},"Ạ":{"ha":851,"x_min":6,"x_max":846,"o":"m 6 0 m 457 975 q 526 949 517 975 l 842 47 q 846 25 846 35 q 779 -3 846 -3 l 736 -3 q 667 24 676 -3 l 601 214 l 244 214 l 181 24 q 119 -3 171 -3 l 82 -3 q 6 25 6 -3 q 11 49 6 29 l 325 949 q 396 975 335 975 l 457 975 m 422 764 q 416 729 421 757 q 401 678 411 701 l 297 369 l 550 369 l 447 678 q 428 764 435 713 l 422 764 m 435 -111 q 507 -150 507 -111 l 507 -229 q 432 -268 507 -268 q 377 -258 394 -268 q 360 -229 360 -249 l 360 -150 q 435 -111 360 -111 z "},"À":{"ha":851,"x_min":6,"x_max":846,"o":"m 6 0 m 457 975 q 526 949 517 975 l 842 47 q 846 25 846 35 q 779 -3 846 -3 l 736 -3 q 667 24 676 -3 l 601 214 l 244 214 l 181 24 q 119 -3 171 -3 l 82 -3 q 6 25 6 -3 q 11 49 6 29 l 325 949 q 396 975 335 975 l 457 975 m 422 764 q 416 729 421 757 q 401 678 411 701 l 297 369 l 550 369 l 447 678 q 428 764 435 713 l 422 764 m 326 1264 q 433 1228 411 1264 q 476 1153 429 1236 q 493 1124 482 1144 q 512 1088 504 1103 q 519 1068 519 1072 q 511 1054 519 1058 q 481 1050 503 1050 q 389 1081 417 1050 l 317 1160 q 265 1218 281 1199 q 249 1246 249 1238 q 267 1260 249 1256 q 326 1264 286 1264 z "},"Ả":{"ha":851,"x_min":6,"x_max":846,"o":"m 6 0 m 457 975 q 526 949 517 975 l 842 47 q 846 25 846 35 q 779 -3 846 -3 l 736 -3 q 667 24 676 -3 l 601 214 l 244 214 l 181 24 q 119 -3 171 -3 l 82 -3 q 6 25 6 -3 q 11 49 6 29 l 325 949 q 396 975 335 975 l 457 975 m 422 764 q 416 729 421 757 q 401 678 411 701 l 297 369 l 550 369 l 447 678 q 428 764 435 713 l 422 764 m 478 1175 q 464 1199 478 1190 q 431 1208 450 1208 q 391 1200 408 1208 q 369 1192 374 1192 q 347 1212 361 1192 q 332 1246 332 1232 q 369 1274 332 1260 q 442 1289 406 1289 q 546 1262 506 1289 q 586 1183 586 1235 q 559 1113 586 1147 q 499 1056 532 1078 q 451 1033 465 1033 q 409 1044 432 1033 q 386 1063 386 1054 q 398 1083 386 1072 q 424 1104 410 1093 q 464 1140 450 1125 q 478 1175 478 1156 z "},"Ā":{"ha":851,"x_min":6,"x_max":846,"o":"m 6 0 m 457 975 q 526 949 517 975 l 842 47 q 846 25 846 35 q 779 -3 846 -3 l 736 -3 q 667 24 676 -3 l 601 214 l 244 214 l 181 24 q 119 -3 171 -3 l 82 -3 q 6 25 6 -3 q 11 49 6 29 l 325 949 q 396 975 335 975 l 457 975 m 422 764 q 416 729 421 757 q 401 678 411 701 l 297 369 l 550 369 l 447 678 q 428 764 435 713 l 422 764 m 576 1201 q 605 1190 596 1201 q 614 1151 614 1178 l 614 1133 q 605 1094 614 1106 q 576 1082 596 1082 l 275 1082 q 247 1094 256 1082 q 238 1133 238 1106 l 238 1151 q 247 1190 238 1178 q 275 1201 256 1201 l 576 1201 z "},"Ą":{"ha":851,"x_min":6,"x_max":953,"o":"m 924 -144 q 953 -182 953 -144 q 922 -239 953 -224 q 839 -254 890 -254 q 708 -208 742 -254 q 675 -112 675 -162 q 683 -54 675 -86 q 708 -1 690 -22 q 667 24 674 6 l 601 214 l 244 214 l 181 24 q 119 -3 171 -3 l 82 -3 q 6 25 6 -3 q 11 49 6 29 l 325 949 q 396 975 335 975 l 457 975 q 526 949 517 975 l 842 47 q 846 25 846 35 q 783 -3 846 -3 l 783 -6 q 778 -33 783 -11 q 768 -86 768 -65 q 793 -144 768 -131 q 854 -157 818 -157 q 893 -150 875 -157 q 924 -144 913 -144 m 550 369 l 447 678 q 428 764 435 713 l 422 764 q 416 729 421 757 q 401 678 411 701 l 297 369 l 550 369 z "},"Å":{"ha":851,"x_min":6,"x_max":846,"o":"m 6 0 m 457 975 q 526 949 517 975 l 842 47 q 846 25 846 35 q 779 -3 846 -3 l 736 -3 q 667 24 676 -3 l 601 214 l 244 214 l 181 24 q 119 -3 171 -3 l 82 -3 q 6 25 6 -3 q 11 49 6 29 l 325 949 q 396 975 335 975 l 457 975 m 422 764 q 416 729 421 757 q 401 678 411 701 l 297 369 l 550 369 l 447 678 q 428 764 435 713 l 422 764 m 425 1278 q 519 1240 481 1278 q 557 1147 557 1201 q 519 1054 557 1092 q 425 1017 481 1017 q 332 1054 369 1017 q 294 1147 294 1092 q 332 1240 294 1201 q 425 1278 369 1278 m 425 1204 q 385 1187 401 1204 q 368 1146 368 1169 q 385 1106 368 1122 q 425 1089 401 1089 q 466 1106 449 1089 q 483 1146 483 1122 q 466 1187 483 1169 q 425 1204 449 1204 z "},"Ǻ":{"ha":851,"x_min":6,"x_max":846,"o":"m 404 1133 q 374 1138 382 1133 q 365 1151 365 1142 q 421 1256 393 1208 q 526 1292 440 1292 q 585 1288 567 1292 q 604 1274 604 1283 q 593 1256 604 1268 q 556 1219 582 1244 l 497 1164 q 404 1133 469 1133 m 842 47 q 846 25 846 35 q 779 -3 846 -3 l 736 -3 q 667 24 676 -3 l 601 214 l 244 214 l 181 24 q 119 -3 171 -3 l 82 -3 q 6 25 6 -3 q 11 49 6 29 l 311 910 q 296 974 296 940 q 333 1066 296 1028 q 426 1104 371 1104 q 520 1066 482 1104 q 558 974 558 1028 q 540 907 558 939 l 842 47 m 426 1031 q 386 1013 403 1031 q 369 972 369 996 q 386 932 369 949 q 426 915 403 915 q 467 932 450 915 q 485 972 485 949 q 467 1013 485 996 q 426 1031 450 1031 m 550 369 l 447 678 q 428 764 435 713 l 422 764 q 416 729 421 757 q 401 678 411 701 l 297 369 l 550 369 z "},"Ã":{"ha":851,"x_min":6,"x_max":846,"o":"m 6 0 m 457 975 q 526 949 517 975 l 842 47 q 846 25 846 35 q 779 -3 846 -3 l 736 -3 q 667 24 676 -3 l 601 214 l 244 214 l 181 24 q 119 -3 171 -3 l 82 -3 q 6 25 6 -3 q 11 49 6 29 l 325 949 q 396 975 335 975 l 457 975 m 422 764 q 416 729 421 757 q 401 678 411 701 l 297 369 l 550 369 l 447 678 q 428 764 435 713 l 422 764 m 317 1208 q 370 1200 338 1208 q 435 1182 403 1192 q 529 1160 501 1161 q 581 1189 560 1160 q 615 1211 599 1211 q 632 1208 621 1211 l 646 1204 q 671 1175 671 1196 q 667 1156 671 1167 q 613 1084 650 1110 q 525 1058 576 1058 q 406 1083 489 1058 q 353 1099 379 1092 q 311 1106 326 1106 q 261 1076 282 1106 q 225 1054 243 1054 q 210 1057 221 1054 l 194 1063 q 169 1093 169 1071 q 174 1111 169 1103 q 228 1182 192 1156 q 317 1208 265 1208 z "},"Æ":{"ha":1271,"x_min":-4,"x_max":1181,"o":"m 1142 972 q 1170 958 1161 972 q 1179 913 1179 944 l 1179 878 q 1170 832 1179 846 q 1142 818 1161 818 l 679 818 l 729 575 l 1103 575 q 1131 561 1122 575 q 1140 515 1140 547 l 1140 481 q 1131 435 1140 449 q 1103 421 1122 421 l 760 421 l 814 154 l 1143 154 q 1172 140 1163 154 q 1181 94 1181 126 l 1181 60 q 1172 14 1181 28 q 1143 0 1163 0 l 706 0 q 672 10 683 0 q 657 42 661 19 l 622 214 l 258 214 l 165 24 q 104 -3 151 -3 l 69 -3 q -4 25 -4 -3 q 1 49 -4 38 l 447 935 q 471 963 457 954 q 507 972 485 972 l 1142 972 m 529 783 l 525 783 l 489 681 l 336 369 l 593 369 l 531 681 l 529 783 z "},"Ǽ":{"ha":1271,"x_min":-4,"x_max":1181,"o":"m 0 0 m 1142 972 q 1170 958 1161 972 q 1179 913 1179 944 l 1179 878 q 1170 832 1179 846 q 1142 818 1161 818 l 679 818 l 729 575 l 1103 575 q 1131 561 1122 575 q 1140 515 1140 547 l 1140 481 q 1131 435 1140 449 q 1103 421 1122 421 l 760 421 l 814 154 l 1143 154 q 1172 140 1163 154 q 1181 94 1181 126 l 1181 60 q 1172 14 1181 28 q 1143 0 1163 0 l 706 0 q 672 10 683 0 q 657 42 661 19 l 622 214 l 258 214 l 165 24 q 104 -3 151 -3 l 69 -3 q -4 25 -4 -3 q 1 49 -4 38 l 447 935 q 471 963 457 954 q 507 972 485 972 l 1142 972 m 529 783 l 525 783 l 489 681 l 336 369 l 593 369 l 531 681 l 529 783 m 747 1264 q 806 1260 788 1264 q 825 1246 825 1256 q 810 1219 825 1238 q 760 1161 794 1200 l 686 1081 q 593 1050 658 1050 q 563 1054 571 1050 q 554 1068 554 1058 q 564 1093 554 1075 q 590 1139 574 1111 q 642 1228 608 1168 q 747 1264 661 1264 z "},"B":{"ha":824,"x_min":110,"x_max":788,"o":"m 426 972 q 667 906 588 972 q 747 726 747 840 q 703 598 747 657 q 597 515 660 539 l 597 510 q 681 472 636 501 q 756 392 725 442 q 788 281 788 343 q 699 72 788 143 q 435 0 610 0 l 161 0 q 122 12 135 0 q 110 50 110 24 l 110 922 q 122 960 110 949 q 161 972 135 972 l 426 972 m 290 819 l 290 574 l 410 574 q 521 609 479 574 q 563 699 563 644 q 525 790 563 760 q 410 819 488 819 l 290 819 m 290 419 l 290 154 l 451 154 q 562 190 522 154 q 601 290 601 226 q 557 386 601 353 q 428 419 513 419 l 290 419 z "},"C":{"ha":860,"x_min":68,"x_max":824,"o":"m 528 982 q 658 969 592 982 q 766 935 724 957 q 808 889 808 914 q 795 845 808 872 q 765 797 782 818 q 733 776 747 776 q 700 791 729 776 q 628 817 671 806 q 526 828 585 828 q 321 744 388 828 q 254 486 254 660 q 321 229 254 314 q 522 144 388 144 q 633 158 586 144 q 724 193 681 172 q 754 204 746 204 q 786 184 769 204 q 813 138 803 164 q 824 100 824 113 q 777 43 824 68 q 660 4 731 18 q 522 -10 589 -10 q 179 111 290 -10 q 68 488 68 232 q 528 982 68 982 z "},"Ć":{"ha":860,"x_min":68,"x_max":824,"o":"m 68 0 m 528 982 q 658 969 592 982 q 766 935 724 957 q 808 889 808 914 q 795 845 808 872 q 765 797 782 818 q 733 776 747 776 q 700 791 729 776 q 628 817 671 806 q 526 828 585 828 q 321 744 388 828 q 254 486 254 660 q 321 229 254 314 q 522 144 388 144 q 633 158 586 144 q 724 193 681 172 q 754 204 746 204 q 786 184 769 204 q 813 138 803 164 q 824 100 824 113 q 777 43 824 68 q 660 4 731 18 q 522 -10 589 -10 q 179 111 290 -10 q 68 488 68 232 q 528 982 68 982 m 615 1264 q 674 1260 656 1264 q 693 1246 693 1256 q 678 1219 693 1238 q 628 1161 663 1200 l 554 1081 q 461 1050 526 1050 q 431 1054 439 1050 q 422 1068 422 1058 q 432 1093 422 1075 q 458 1139 442 1111 q 510 1228 476 1168 q 615 1264 529 1264 z "},"Č":{"ha":860,"x_min":68,"x_max":824,"o":"m 68 0 m 528 982 q 658 969 592 982 q 766 935 724 957 q 808 889 808 914 q 795 845 808 872 q 765 797 782 818 q 733 776 747 776 q 700 791 729 776 q 628 817 671 806 q 526 828 585 828 q 321 744 388 828 q 254 486 254 660 q 321 229 254 314 q 522 144 388 144 q 633 158 586 144 q 724 193 681 172 q 754 204 746 204 q 786 184 769 204 q 813 138 803 164 q 824 100 824 113 q 777 43 824 68 q 660 4 731 18 q 522 -10 589 -10 q 179 111 290 -10 q 68 488 68 232 q 528 982 68 982 m 657 1246 q 688 1229 688 1246 q 679 1208 688 1221 l 593 1074 q 564 1051 582 1057 q 515 1046 546 1046 l 493 1046 q 444 1051 463 1046 q 417 1074 426 1057 l 331 1208 q 322 1231 322 1221 q 351 1246 322 1246 l 372 1246 q 417 1240 399 1246 q 449 1218 435 1233 l 504 1146 l 560 1218 q 638 1246 581 1246 l 657 1246 z "},"Ç":{"ha":860,"x_min":68,"x_max":824,"o":"m 824 100 q 739 26 824 57 q 551 -8 654 -4 l 539 -56 q 618 -84 583 -60 q 653 -160 653 -108 q 489 -293 653 -293 q 372 -275 428 -293 q 315 -228 315 -257 q 328 -189 315 -203 q 353 -175 340 -175 q 394 -186 364 -175 q 475 -204 443 -204 q 525 -171 525 -204 q 514 -147 525 -156 q 481 -131 503 -139 q 453 -117 463 -124 q 444 -100 444 -111 q 460 -46 444 -92 l 471 -8 q 167 125 265 4 q 68 488 68 246 q 528 982 68 982 q 658 969 592 982 q 766 935 724 957 q 808 889 808 914 q 795 845 808 872 q 765 797 782 818 q 733 776 747 776 q 700 791 729 776 q 628 817 671 806 q 526 828 585 828 q 321 744 388 828 q 254 486 254 660 q 321 229 254 314 q 522 144 388 144 q 633 158 586 144 q 724 193 681 172 q 754 204 746 204 q 786 184 769 204 q 813 138 803 164 q 824 100 824 113 z "},"Ĉ":{"ha":860,"x_min":68,"x_max":824,"o":"m 68 0 m 528 982 q 658 969 592 982 q 766 935 724 957 q 808 889 808 914 q 795 845 808 872 q 765 797 782 818 q 733 776 747 776 q 700 791 729 776 q 628 817 671 806 q 526 828 585 828 q 321 744 388 828 q 254 486 254 660 q 321 229 254 314 q 522 144 388 144 q 633 158 586 144 q 724 193 681 172 q 754 204 746 204 q 786 184 769 204 q 813 138 803 164 q 824 100 824 113 q 777 43 824 68 q 660 4 731 18 q 522 -10 589 -10 q 179 111 290 -10 q 68 488 68 232 q 528 982 68 982 m 515 1243 q 563 1238 544 1243 q 592 1215 581 1232 l 678 1081 q 686 1058 686 1068 q 657 1042 686 1042 l 636 1042 q 560 1069 582 1042 l 503 1143 l 447 1071 q 417 1048 435 1054 q 371 1042 399 1042 l 350 1042 q 321 1058 321 1042 q 329 1081 321 1068 l 415 1215 q 444 1238 426 1232 q 492 1243 463 1243 l 515 1243 z "},"Ċ":{"ha":860,"x_min":68,"x_max":824,"o":"m 68 0 m 528 982 q 658 969 592 982 q 766 935 724 957 q 808 889 808 914 q 795 845 808 872 q 765 797 782 818 q 733 776 747 776 q 700 791 729 776 q 628 817 671 806 q 526 828 585 828 q 321 744 388 828 q 254 486 254 660 q 321 229 254 314 q 522 144 388 144 q 633 158 586 144 q 724 193 681 172 q 754 204 746 204 q 786 184 769 204 q 813 138 803 164 q 824 100 824 113 q 777 43 824 68 q 660 4 731 18 q 522 -10 589 -10 q 179 111 290 -10 q 68 488 68 232 q 528 982 68 982 m 506 1221 q 578 1182 578 1221 l 578 1103 q 503 1064 578 1064 q 448 1074 465 1064 q 431 1103 431 1083 l 431 1182 q 506 1221 431 1221 z "},"D":{"ha":965,"x_min":110,"x_max":900,"o":"m 461 972 q 784 850 668 972 q 900 486 900 728 q 784 122 900 244 q 461 0 668 0 l 161 0 q 122 12 135 0 q 110 50 110 24 l 110 922 q 122 960 110 949 q 161 972 135 972 l 461 972 m 292 818 l 292 154 l 457 154 q 647 238 579 154 q 714 486 714 321 q 647 735 714 651 q 457 818 579 818 l 292 818 z "},"Ǳ":{"ha":1821,"x_min":110,"x_max":1767,"o":"m 110 0 m 461 972 q 784 850 668 972 q 900 486 900 728 q 784 122 900 244 q 461 0 668 0 l 161 0 q 122 12 135 0 q 110 50 110 24 l 110 922 q 122 960 110 949 q 161 972 135 972 l 461 972 m 292 818 l 292 154 l 457 154 q 647 238 579 154 q 714 486 714 321 q 647 735 714 651 q 457 818 579 818 l 292 818 m 1722 972 q 1751 931 1735 972 q 1767 864 1767 890 q 1764 851 1767 857 l 1261 154 l 1729 154 q 1757 140 1749 154 q 1765 93 1765 125 l 1765 61 q 1757 15 1765 29 q 1729 0 1749 0 l 1056 0 q 1024 39 1040 0 q 1008 106 1008 78 q 1011 121 1008 113 l 1515 818 l 1088 818 q 1059 833 1068 818 q 1050 879 1050 847 l 1050 911 q 1059 958 1050 943 q 1088 972 1068 972 l 1722 972 z "},"Ǆ":{"ha":1821,"x_min":110,"x_max":1767,"o":"m 110 0 m 461 972 q 784 850 668 972 q 900 486 900 728 q 784 122 900 244 q 461 0 668 0 l 161 0 q 122 12 135 0 q 110 50 110 24 l 110 922 q 122 960 110 949 q 161 972 135 972 l 461 972 m 292 818 l 292 154 l 457 154 q 647 238 579 154 q 714 486 714 321 q 647 735 714 651 q 457 818 579 818 l 292 818 m 1722 972 q 1751 931 1735 972 q 1767 864 1767 890 q 1764 851 1767 857 l 1261 154 l 1729 154 q 1757 140 1749 154 q 1765 93 1765 125 l 1765 61 q 1757 15 1765 29 q 1729 0 1749 0 l 1056 0 q 1024 39 1040 0 q 1008 106 1008 78 q 1011 121 1008 113 l 1515 818 l 1088 818 q 1059 833 1068 818 q 1050 879 1050 847 l 1050 911 q 1059 958 1050 943 q 1088 972 1068 972 l 1722 972 m 1546 1246 q 1576 1229 1576 1246 q 1568 1208 1576 1221 l 1482 1074 q 1453 1051 1471 1057 q 1404 1046 1435 1046 l 1382 1046 q 1333 1051 1351 1046 q 1306 1074 1315 1057 l 1219 1208 q 1211 1231 1211 1221 q 1240 1246 1211 1246 l 1261 1246 q 1306 1240 1288 1246 q 1338 1218 1324 1233 l 1393 1146 l 1449 1218 q 1526 1246 1469 1246 l 1546 1246 z "},"Ð":{"ha":967,"x_min":11,"x_max":903,"o":"m 463 972 q 787 850 671 972 q 903 486 903 728 q 787 122 903 244 q 463 0 671 0 l 156 0 q 117 12 129 0 q 106 50 106 24 l 106 419 l 47 419 q 19 433 28 419 q 11 478 11 447 l 11 513 q 19 558 11 543 q 47 572 28 572 l 106 572 l 106 922 q 117 960 106 949 q 156 972 129 972 l 463 972 m 288 818 l 288 572 l 394 572 q 423 558 414 572 q 432 513 432 544 l 432 478 q 423 433 432 447 q 394 419 414 419 l 288 419 l 288 154 l 460 154 q 649 238 581 154 q 717 486 717 321 q 649 735 717 651 q 460 818 581 818 l 288 818 z "},"Ď":{"ha":965,"x_min":110,"x_max":900,"o":"m 110 0 m 461 972 q 784 850 668 972 q 900 486 900 728 q 784 122 900 244 q 461 0 668 0 l 161 0 q 122 12 135 0 q 110 50 110 24 l 110 922 q 122 960 110 949 q 161 972 135 972 l 461 972 m 292 818 l 292 154 l 457 154 q 647 238 579 154 q 714 486 714 321 q 647 735 714 651 q 457 818 579 818 l 292 818 m 604 1246 q 635 1229 635 1246 q 626 1208 635 1221 l 540 1074 q 511 1051 529 1057 q 463 1046 493 1046 l 440 1046 q 392 1051 410 1046 q 364 1074 374 1057 l 278 1208 q 269 1231 269 1221 q 299 1246 269 1246 l 319 1246 q 364 1240 346 1246 q 396 1218 382 1233 l 451 1146 l 507 1218 q 585 1246 528 1246 l 604 1246 z "},"Đ":{"ha":967,"x_min":11,"x_max":903,"o":"m 11 0 m 463 972 q 787 850 671 972 q 903 486 903 728 q 787 122 903 244 q 463 0 671 0 l 156 0 q 117 12 129 0 q 106 50 106 24 l 106 419 l 47 419 q 19 433 28 419 q 11 478 11 447 l 11 513 q 19 558 11 543 q 47 572 28 572 l 106 572 l 106 922 q 117 960 106 949 q 156 972 129 972 l 463 972 m 288 818 l 288 572 l 394 572 q 423 558 414 572 q 432 513 432 544 l 432 478 q 423 433 432 447 q 394 419 414 419 l 288 419 l 288 154 l 460 154 q 649 238 581 154 q 717 486 717 321 q 649 735 717 651 q 460 818 581 818 l 288 818 z "},"Ḍ":{"ha":965,"x_min":110,"x_max":900,"o":"m 110 0 m 461 972 q 784 850 668 972 q 900 486 900 728 q 784 122 900 244 q 461 0 668 0 l 161 0 q 122 12 135 0 q 110 50 110 24 l 110 922 q 122 960 110 949 q 161 972 135 972 l 461 972 m 292 818 l 292 154 l 457 154 q 647 238 579 154 q 714 486 714 321 q 647 735 714 651 q 457 818 579 818 l 292 818 m 463 -111 q 535 -150 535 -111 l 535 -229 q 460 -268 535 -268 q 405 -258 422 -268 q 388 -229 388 -249 l 388 -150 q 463 -111 388 -111 z "},"ǲ":{"ha":1644,"x_min":110,"x_max":1599,"o":"m 110 0 m 461 972 q 784 850 668 972 q 900 486 900 728 q 784 122 900 244 q 461 0 668 0 l 161 0 q 122 12 135 0 q 110 50 110 24 l 110 922 q 122 960 110 949 q 161 972 135 972 l 461 972 m 292 818 l 292 154 l 457 154 q 647 238 579 154 q 714 486 714 321 q 647 735 714 651 q 457 818 579 818 l 292 818 m 1558 726 q 1582 692 1569 726 q 1594 632 1594 658 q 1590 614 1594 621 l 1242 140 l 1563 140 q 1590 126 1582 140 q 1599 81 1599 111 l 1599 60 q 1590 15 1599 29 q 1563 0 1582 0 l 1044 0 q 1021 33 1033 0 q 1008 93 1008 67 q 1013 111 1008 106 l 1363 586 l 1068 586 q 1040 601 1049 586 q 1032 646 1032 615 l 1032 667 q 1040 712 1032 697 q 1068 726 1049 726 l 1558 726 z "},"ǅ":{"ha":1644,"x_min":110,"x_max":1599,"o":"m 110 0 m 461 972 q 784 850 668 972 q 900 486 900 728 q 784 122 900 244 q 461 0 668 0 l 161 0 q 122 12 135 0 q 110 50 110 24 l 110 922 q 122 960 110 949 q 161 972 135 972 l 461 972 m 292 818 l 292 154 l 457 154 q 647 238 579 154 q 714 486 714 321 q 647 735 714 651 q 457 818 579 818 l 292 818 m 1558 726 q 1582 692 1569 726 q 1594 632 1594 658 q 1590 614 1594 621 l 1242 140 l 1563 140 q 1590 126 1582 140 q 1599 81 1599 111 l 1599 60 q 1590 15 1599 29 q 1563 0 1582 0 l 1044 0 q 1021 33 1033 0 q 1008 93 1008 67 q 1013 111 1008 106 l 1363 586 l 1068 586 q 1040 601 1049 586 q 1032 646 1032 615 l 1032 667 q 1040 712 1032 697 q 1068 726 1049 726 l 1558 726 m 1458 1000 q 1489 983 1489 1000 q 1481 963 1489 975 l 1394 828 q 1365 806 1383 811 q 1317 800 1347 800 l 1294 800 q 1246 806 1264 800 q 1218 828 1228 811 l 1132 963 q 1124 985 1124 975 q 1153 1000 1124 1000 l 1174 1000 q 1218 994 1200 1000 q 1250 972 1236 988 l 1306 900 l 1361 972 q 1439 1000 1382 1000 l 1458 1000 z "},"E":{"ha":758,"x_min":110,"x_max":699,"o":"m 660 972 q 688 958 679 972 q 697 913 697 944 l 697 878 q 688 832 697 846 q 660 818 679 818 l 290 818 l 290 575 l 621 575 q 649 561 640 575 q 658 515 658 547 l 658 481 q 649 435 658 449 q 621 421 640 421 l 290 421 l 290 154 l 661 154 q 690 140 681 154 q 699 94 699 126 l 699 60 q 690 14 699 28 q 661 0 681 0 l 161 0 q 122 12 135 0 q 110 50 110 24 l 110 922 q 122 960 110 949 q 161 972 135 972 l 660 972 z "},"É":{"ha":758,"x_min":110,"x_max":699,"o":"m 110 0 m 660 972 q 688 958 679 972 q 697 913 697 944 l 697 878 q 688 832 697 846 q 660 818 679 818 l 290 818 l 290 575 l 621 575 q 649 561 640 575 q 658 515 658 547 l 658 481 q 649 435 658 449 q 621 421 640 421 l 290 421 l 290 154 l 661 154 q 690 140 681 154 q 699 94 699 126 l 699 60 q 690 14 699 28 q 661 0 681 0 l 161 0 q 122 12 135 0 q 110 50 110 24 l 110 922 q 122 960 110 949 q 161 972 135 972 l 660 972 m 521 1264 q 580 1260 561 1264 q 599 1246 599 1256 q 583 1219 599 1238 q 533 1161 568 1200 l 460 1081 q 367 1050 432 1050 q 336 1054 344 1050 q 328 1068 328 1058 q 338 1093 328 1075 q 364 1139 347 1111 q 415 1228 382 1168 q 521 1264 435 1264 z "},"Ĕ":{"ha":758,"x_min":110,"x_max":699,"o":"m 110 0 m 660 972 q 688 958 679 972 q 697 913 697 944 l 697 878 q 688 832 697 846 q 660 818 679 818 l 290 818 l 290 575 l 621 575 q 649 561 640 575 q 658 515 658 547 l 658 481 q 649 435 658 449 q 621 421 640 421 l 290 421 l 290 154 l 661 154 q 690 140 681 154 q 699 94 699 126 l 699 60 q 690 14 699 28 q 661 0 681 0 l 161 0 q 122 12 135 0 q 110 50 110 24 l 110 922 q 122 960 110 949 q 161 972 135 972 l 660 972 m 574 1239 q 613 1207 613 1239 q 553 1095 613 1140 q 410 1050 494 1050 q 265 1095 324 1050 q 207 1207 207 1140 q 244 1239 207 1239 q 267 1233 260 1239 q 285 1210 274 1226 q 410 1164 318 1164 q 535 1213 501 1164 q 552 1233 546 1228 q 574 1239 558 1239 z "},"Ě":{"ha":758,"x_min":110,"x_max":699,"o":"m 110 0 m 660 972 q 688 958 679 972 q 697 913 697 944 l 697 878 q 688 832 697 846 q 660 818 679 818 l 290 818 l 290 575 l 621 575 q 649 561 640 575 q 658 515 658 547 l 658 481 q 649 435 658 449 q 621 421 640 421 l 290 421 l 290 154 l 661 154 q 690 140 681 154 q 699 94 699 126 l 699 60 q 690 14 699 28 q 661 0 681 0 l 161 0 q 122 12 135 0 q 110 50 110 24 l 110 922 q 122 960 110 949 q 161 972 135 972 l 660 972 m 563 1246 q 593 1229 593 1246 q 585 1208 593 1221 l 499 1074 q 469 1051 488 1057 q 421 1046 451 1046 l 399 1046 q 350 1051 368 1046 q 322 1074 332 1057 l 236 1208 q 228 1231 228 1221 q 257 1246 228 1246 l 278 1246 q 322 1240 304 1246 q 354 1218 340 1233 l 410 1146 l 465 1218 q 543 1246 486 1246 l 563 1246 z "},"Ê":{"ha":758,"x_min":110,"x_max":699,"o":"m 110 0 m 660 972 q 688 958 679 972 q 697 913 697 944 l 697 878 q 688 832 697 846 q 660 818 679 818 l 290 818 l 290 575 l 621 575 q 649 561 640 575 q 658 515 658 547 l 658 481 q 649 435 658 449 q 621 421 640 421 l 290 421 l 290 154 l 661 154 q 690 140 681 154 q 699 94 699 126 l 699 60 q 690 14 699 28 q 661 0 681 0 l 161 0 q 122 12 135 0 q 110 50 110 24 l 110 922 q 122 960 110 949 q 161 972 135 972 l 660 972 m 421 1243 q 468 1238 450 1243 q 497 1215 486 1232 l 583 1081 q 592 1058 592 1068 q 563 1042 592 1042 l 542 1042 q 465 1069 488 1042 l 408 1143 l 353 1071 q 322 1048 340 1054 q 276 1042 304 1042 l 256 1042 q 226 1058 226 1042 q 235 1081 226 1068 l 321 1215 q 350 1238 332 1232 q 397 1243 368 1243 l 421 1243 z "},"Ế":{"ha":758,"x_min":110,"x_max":747,"o":"m 696 1338 q 735 1332 724 1338 q 747 1310 747 1326 q 733 1280 747 1300 q 663 1190 718 1260 l 644 1168 q 621 1151 636 1157 q 578 1146 606 1146 q 554 1150 561 1146 q 547 1164 547 1154 q 561 1203 547 1172 q 578 1243 575 1235 l 603 1300 q 696 1338 622 1338 m 424 1243 q 463 1237 447 1243 q 486 1215 478 1231 l 565 1081 q 574 1058 574 1068 q 544 1042 574 1042 l 524 1042 q 447 1069 457 1042 l 411 1143 l 356 1071 q 325 1048 343 1054 q 279 1042 307 1042 l 258 1042 q 229 1058 229 1042 q 238 1081 229 1068 l 324 1215 q 353 1238 335 1232 q 400 1243 371 1243 l 424 1243 m 660 972 q 688 958 679 972 q 697 913 697 944 l 697 878 q 688 832 697 846 q 660 818 679 818 l 290 818 l 290 575 l 621 575 q 649 561 640 575 q 658 515 658 547 l 658 481 q 649 435 658 449 q 621 421 640 421 l 290 421 l 290 154 l 661 154 q 690 140 681 154 q 699 94 699 126 l 699 60 q 690 14 699 28 q 661 0 681 0 l 161 0 q 122 12 135 0 q 110 50 110 24 l 110 922 q 122 960 110 949 q 161 972 135 972 l 660 972 z "},"Ệ":{"ha":758,"x_min":110,"x_max":699,"o":"m 110 0 m 660 972 q 688 958 679 972 q 697 913 697 944 l 697 878 q 688 832 697 846 q 660 818 679 818 l 290 818 l 290 575 l 621 575 q 649 561 640 575 q 658 515 658 547 l 658 481 q 649 435 658 449 q 621 421 640 421 l 290 421 l 290 154 l 661 154 q 690 140 681 154 q 699 94 699 126 l 699 60 q 690 14 699 28 q 661 0 681 0 l 161 0 q 122 12 135 0 q 110 50 110 24 l 110 922 q 122 960 110 949 q 161 972 135 972 l 660 972 m 421 1243 q 468 1238 450 1243 q 497 1215 486 1232 l 583 1081 q 592 1058 592 1068 q 563 1042 592 1042 l 542 1042 q 465 1069 488 1042 l 408 1143 l 353 1071 q 322 1048 340 1054 q 276 1042 304 1042 l 256 1042 q 226 1058 226 1042 q 235 1081 226 1068 l 321 1215 q 350 1238 332 1232 q 397 1243 368 1243 l 421 1243 m 410 -111 q 482 -150 482 -111 l 482 -229 q 407 -268 482 -268 q 352 -258 369 -268 q 335 -229 335 -249 l 335 -150 q 410 -111 335 -111 z "},"Ề":{"ha":758,"x_min":110,"x_max":699,"o":"m 518 1336 q 618 1300 604 1336 q 667 1163 667 1182 q 658 1149 667 1153 q 628 1144 649 1144 q 554 1175 579 1144 l 503 1246 q 469 1294 479 1279 q 458 1318 458 1310 q 472 1332 458 1328 q 518 1336 486 1336 m 424 1243 q 463 1237 447 1243 q 486 1215 478 1231 l 565 1081 q 574 1058 574 1068 q 544 1042 574 1042 l 524 1042 q 447 1069 457 1042 l 411 1143 l 356 1071 q 325 1048 343 1054 q 279 1042 307 1042 l 258 1042 q 229 1058 229 1042 q 238 1081 229 1068 l 324 1215 q 353 1238 335 1232 q 400 1243 371 1243 l 424 1243 m 660 972 q 688 958 679 972 q 697 913 697 944 l 697 878 q 688 832 697 846 q 660 818 679 818 l 290 818 l 290 575 l 621 575 q 649 561 640 575 q 658 515 658 547 l 658 481 q 649 435 658 449 q 621 421 640 421 l 290 421 l 290 154 l 661 154 q 690 140 681 154 q 699 94 699 126 l 699 60 q 690 14 699 28 q 661 0 681 0 l 161 0 q 122 12 135 0 q 110 50 110 24 l 110 922 q 122 960 110 949 q 161 972 135 972 l 660 972 z "},"Ể":{"ha":758,"x_min":110,"x_max":710,"o":"m 621 1247 q 610 1269 621 1261 q 583 1276 599 1276 q 535 1265 554 1276 q 513 1254 517 1254 q 490 1274 504 1254 q 475 1308 475 1294 q 511 1335 475 1322 q 585 1347 547 1347 q 674 1323 639 1347 q 710 1254 710 1299 q 669 1181 710 1213 q 637 1160 656 1169 q 606 1150 618 1150 q 565 1159 581 1150 q 549 1179 549 1168 q 578 1204 549 1190 q 611 1225 601 1217 q 621 1247 621 1233 m 424 1243 q 463 1237 447 1243 q 486 1215 478 1231 l 565 1081 q 574 1058 574 1068 q 544 1042 574 1042 l 524 1042 q 447 1069 457 1042 l 411 1143 l 356 1071 q 325 1048 343 1054 q 279 1042 307 1042 l 258 1042 q 229 1058 229 1042 q 238 1081 229 1068 l 324 1215 q 353 1238 335 1232 q 400 1243 371 1243 l 424 1243 m 660 972 q 688 958 679 972 q 697 913 697 944 l 697 878 q 688 832 697 846 q 660 818 679 818 l 290 818 l 290 575 l 621 575 q 649 561 640 575 q 658 515 658 547 l 658 481 q 649 435 658 449 q 621 421 640 421 l 290 421 l 290 154 l 661 154 q 690 140 681 154 q 699 94 699 126 l 699 60 q 690 14 699 28 q 661 0 681 0 l 161 0 q 122 12 135 0 q 110 50 110 24 l 110 922 q 122 960 110 949 q 161 972 135 972 l 660 972 z "},"Ễ":{"ha":758,"x_min":110,"x_max":699,"o":"m 314 1408 q 377 1397 340 1408 q 421 1382 414 1385 q 459 1370 429 1379 q 507 1360 489 1361 q 553 1389 533 1360 q 585 1411 569 1411 q 600 1408 589 1411 l 613 1404 q 636 1374 636 1396 q 632 1356 636 1367 q 583 1284 615 1310 q 503 1258 550 1258 q 394 1283 469 1258 q 358 1295 389 1285 q 308 1306 328 1306 q 263 1276 282 1306 q 231 1254 246 1254 q 217 1257 228 1254 l 203 1263 q 179 1293 179 1271 q 183 1311 179 1301 q 233 1382 200 1356 q 314 1408 267 1408 m 422 1210 q 467 1203 449 1210 q 499 1182 485 1197 l 585 1081 q 593 1058 593 1068 q 564 1042 593 1042 l 543 1042 q 507 1048 522 1042 q 467 1069 492 1054 l 410 1119 l 354 1071 q 334 1058 349 1067 q 306 1046 319 1050 q 278 1042 293 1042 l 257 1042 q 228 1058 228 1042 q 236 1081 228 1068 l 322 1182 q 355 1203 338 1197 q 399 1210 372 1210 l 422 1210 m 660 972 q 688 958 679 972 q 697 913 697 944 l 697 878 q 688 832 697 846 q 660 818 679 818 l 290 818 l 290 575 l 621 575 q 649 561 640 575 q 658 515 658 547 l 658 481 q 649 435 658 449 q 621 421 640 421 l 290 421 l 290 154 l 661 154 q 690 140 681 154 q 699 94 699 126 l 699 60 q 690 14 699 28 q 661 0 681 0 l 161 0 q 122 12 135 0 q 110 50 110 24 l 110 922 q 122 960 110 949 q 161 972 135 972 l 660 972 z "},"Ë":{"ha":758,"x_min":110,"x_max":699,"o":"m 110 0 m 660 972 q 688 958 679 972 q 697 913 697 944 l 697 878 q 688 832 697 846 q 660 818 679 818 l 290 818 l 290 575 l 621 575 q 649 561 640 575 q 658 515 658 547 l 658 481 q 649 435 658 449 q 621 421 640 421 l 290 421 l 290 154 l 661 154 q 690 140 681 154 q 699 94 699 126 l 699 60 q 690 14 699 28 q 661 0 681 0 l 161 0 q 122 12 135 0 q 110 50 110 24 l 110 922 q 122 960 110 949 q 161 972 135 972 l 660 972 m 294 1221 q 368 1182 368 1221 l 368 1103 q 293 1064 368 1064 q 237 1074 254 1064 q 219 1103 219 1083 l 219 1182 q 294 1221 219 1221 m 526 1221 q 600 1182 600 1221 l 600 1103 q 525 1064 600 1064 q 469 1074 486 1064 q 451 1103 451 1083 l 451 1182 q 526 1221 451 1221 z "},"Ė":{"ha":758,"x_min":110,"x_max":699,"o":"m 110 0 m 660 972 q 688 958 679 972 q 697 913 697 944 l 697 878 q 688 832 697 846 q 660 818 679 818 l 290 818 l 290 575 l 621 575 q 649 561 640 575 q 658 515 658 547 l 658 481 q 649 435 658 449 q 621 421 640 421 l 290 421 l 290 154 l 661 154 q 690 140 681 154 q 699 94 699 126 l 699 60 q 690 14 699 28 q 661 0 681 0 l 161 0 q 122 12 135 0 q 110 50 110 24 l 110 922 q 122 960 110 949 q 161 972 135 972 l 660 972 m 411 1221 q 483 1182 483 1221 l 483 1103 q 408 1064 483 1064 q 353 1074 371 1064 q 336 1103 336 1083 l 336 1182 q 411 1221 336 1221 z "},"Ẹ":{"ha":758,"x_min":110,"x_max":699,"o":"m 110 0 m 660 972 q 688 958 679 972 q 697 913 697 944 l 697 878 q 688 832 697 846 q 660 818 679 818 l 290 818 l 290 575 l 621 575 q 649 561 640 575 q 658 515 658 547 l 658 481 q 649 435 658 449 q 621 421 640 421 l 290 421 l 290 154 l 661 154 q 690 140 681 154 q 699 94 699 126 l 699 60 q 690 14 699 28 q 661 0 681 0 l 161 0 q 122 12 135 0 q 110 50 110 24 l 110 922 q 122 960 110 949 q 161 972 135 972 l 660 972 m 410 -111 q 482 -150 482 -111 l 482 -229 q 407 -268 482 -268 q 352 -258 369 -268 q 335 -229 335 -249 l 335 -150 q 410 -111 335 -111 z "},"È":{"ha":758,"x_min":110,"x_max":699,"o":"m 110 0 m 660 972 q 688 958 679 972 q 697 913 697 944 l 697 878 q 688 832 697 846 q 660 818 679 818 l 290 818 l 290 575 l 621 575 q 649 561 640 575 q 658 515 658 547 l 658 481 q 649 435 658 449 q 621 421 640 421 l 290 421 l 290 154 l 661 154 q 690 140 681 154 q 699 94 699 126 l 699 60 q 690 14 699 28 q 661 0 681 0 l 161 0 q 122 12 135 0 q 110 50 110 24 l 110 922 q 122 960 110 949 q 161 972 135 972 l 660 972 m 310 1264 q 417 1228 394 1264 q 460 1153 413 1236 q 476 1124 465 1144 q 495 1088 488 1103 q 503 1068 503 1072 q 494 1054 503 1058 q 464 1050 486 1050 q 372 1081 400 1050 l 300 1160 q 248 1218 264 1199 q 232 1246 232 1238 q 251 1260 232 1256 q 310 1264 269 1264 z "},"Ẻ":{"ha":758,"x_min":110,"x_max":699,"o":"m 110 0 m 660 972 q 688 958 679 972 q 697 913 697 944 l 697 878 q 688 832 697 846 q 660 818 679 818 l 290 818 l 290 575 l 621 575 q 649 561 640 575 q 658 515 658 547 l 658 481 q 649 435 658 449 q 621 421 640 421 l 290 421 l 290 154 l 661 154 q 690 140 681 154 q 699 94 699 126 l 699 60 q 690 14 699 28 q 661 0 681 0 l 161 0 q 122 12 135 0 q 110 50 110 24 l 110 922 q 122 960 110 949 q 161 972 135 972 l 660 972 m 461 1175 q 447 1199 461 1190 q 414 1208 433 1208 q 374 1200 392 1208 q 353 1192 357 1192 q 330 1212 344 1192 q 315 1246 315 1232 q 352 1274 315 1260 q 425 1289 389 1289 q 529 1262 489 1289 q 569 1183 569 1235 q 542 1113 569 1147 q 482 1056 515 1078 q 435 1033 449 1033 q 392 1044 415 1033 q 369 1063 369 1054 q 381 1083 369 1072 q 407 1104 393 1093 q 447 1140 433 1125 q 461 1175 461 1156 z "},"Ē":{"ha":758,"x_min":110,"x_max":699,"o":"m 110 0 m 660 972 q 688 958 679 972 q 697 913 697 944 l 697 878 q 688 832 697 846 q 660 818 679 818 l 290 818 l 290 575 l 621 575 q 649 561 640 575 q 658 515 658 547 l 658 481 q 649 435 658 449 q 621 421 640 421 l 290 421 l 290 154 l 661 154 q 690 140 681 154 q 699 94 699 126 l 699 60 q 690 14 699 28 q 661 0 681 0 l 161 0 q 122 12 135 0 q 110 50 110 24 l 110 922 q 122 960 110 949 q 161 972 135 972 l 660 972 m 560 1201 q 588 1190 579 1201 q 597 1151 597 1178 l 597 1133 q 588 1094 597 1106 q 560 1082 579 1082 l 258 1082 q 230 1094 239 1082 q 221 1133 221 1106 l 221 1151 q 230 1190 221 1178 q 258 1201 239 1201 l 560 1201 z "},"Ę":{"ha":758,"x_min":110,"x_max":828,"o":"m 799 -144 q 828 -182 828 -144 q 797 -239 828 -224 q 714 -254 765 -254 q 583 -208 617 -254 q 550 -112 550 -162 q 558 -52 550 -85 q 585 0 565 -19 l 161 0 q 122 12 135 0 q 110 50 110 24 l 110 922 q 122 960 110 949 q 161 972 135 972 l 660 972 q 688 958 679 972 q 697 913 697 944 l 697 878 q 688 832 697 846 q 660 818 679 818 l 290 818 l 290 575 l 621 575 q 649 561 640 575 q 658 515 658 547 l 658 481 q 649 435 658 449 q 621 421 640 421 l 290 421 l 290 154 l 661 154 q 690 140 681 154 q 699 94 699 126 l 699 60 q 690 14 699 28 q 661 0 681 0 l 658 0 l 658 -6 q 653 -33 658 -11 q 643 -86 643 -65 q 668 -144 643 -131 q 729 -157 693 -157 q 768 -150 750 -157 q 799 -144 788 -144 z "},"Ẽ":{"ha":758,"x_min":110,"x_max":699,"o":"m 110 0 m 660 972 q 688 958 679 972 q 697 913 697 944 l 697 878 q 688 832 697 846 q 660 818 679 818 l 290 818 l 290 575 l 621 575 q 649 561 640 575 q 658 515 658 547 l 658 481 q 649 435 658 449 q 621 421 640 421 l 290 421 l 290 154 l 661 154 q 690 140 681 154 q 699 94 699 126 l 699 60 q 690 14 699 28 q 661 0 681 0 l 161 0 q 122 12 135 0 q 110 50 110 24 l 110 922 q 122 960 110 949 q 161 972 135 972 l 660 972 m 300 1208 q 353 1200 321 1208 q 418 1182 386 1192 q 513 1160 485 1161 q 564 1189 543 1160 q 599 1211 582 1211 q 615 1208 604 1211 l 629 1204 q 654 1175 654 1196 q 650 1156 654 1167 q 597 1084 633 1110 q 508 1058 560 1058 q 389 1083 472 1058 q 336 1099 363 1092 q 294 1106 310 1106 q 244 1076 265 1106 q 208 1054 226 1054 q 193 1057 204 1054 l 178 1063 q 153 1093 153 1071 q 157 1111 153 1103 q 212 1182 175 1156 q 300 1208 249 1208 z "},"F":{"ha":699,"x_min":110,"x_max":651,"o":"m 615 972 q 643 958 635 972 q 651 913 651 943 l 651 878 q 643 833 651 847 q 615 818 635 818 l 290 818 l 290 574 l 600 574 q 628 559 619 574 q 636 514 636 544 l 636 479 q 628 434 636 449 q 600 419 619 419 l 290 419 l 290 36 q 217 -3 290 -3 l 183 -3 q 110 36 110 -3 l 110 922 q 122 960 110 949 q 161 972 135 972 l 615 972 z "},"G":{"ha":933,"x_min":68,"x_max":833,"o":"m 528 982 q 658 969 592 982 q 769 935 725 957 q 813 889 813 914 q 785 819 813 863 q 739 776 758 776 q 703 791 735 776 q 628 817 672 806 q 526 828 585 828 q 319 743 383 828 q 254 489 254 658 q 518 144 254 144 q 653 157 597 144 l 653 371 l 515 371 q 488 385 496 371 q 479 431 479 400 l 479 467 q 488 512 479 497 q 515 526 496 526 l 783 526 q 822 515 810 526 q 833 475 833 503 l 833 96 q 735 13 833 36 q 515 -10 638 -10 q 179 111 290 -10 q 68 485 68 232 q 528 982 68 982 z "},"Ğ":{"ha":933,"x_min":68,"x_max":833,"o":"m 68 0 m 528 982 q 658 969 592 982 q 769 935 725 957 q 813 889 813 914 q 785 819 813 863 q 739 776 758 776 q 703 791 735 776 q 628 817 672 806 q 526 828 585 828 q 319 743 383 828 q 254 489 254 658 q 518 144 254 144 q 653 157 597 144 l 653 371 l 515 371 q 488 385 496 371 q 479 431 479 400 l 479 467 q 488 512 479 497 q 515 526 496 526 l 783 526 q 822 515 810 526 q 833 475 833 503 l 833 96 q 735 13 833 36 q 515 -10 638 -10 q 179 111 290 -10 q 68 485 68 232 q 528 982 68 982 m 643 1239 q 682 1207 682 1239 q 623 1095 682 1140 q 479 1050 564 1050 q 335 1095 393 1050 q 276 1207 276 1140 q 314 1239 276 1239 q 336 1233 329 1239 q 354 1210 343 1226 q 479 1164 388 1164 q 604 1213 571 1164 q 622 1233 615 1228 q 643 1239 628 1239 z "},"Ĝ":{"ha":933,"x_min":68,"x_max":833,"o":"m 68 0 m 528 982 q 658 969 592 982 q 769 935 725 957 q 813 889 813 914 q 785 819 813 863 q 739 776 758 776 q 703 791 735 776 q 628 817 672 806 q 526 828 585 828 q 319 743 383 828 q 254 489 254 658 q 518 144 254 144 q 653 157 597 144 l 653 371 l 515 371 q 488 385 496 371 q 479 431 479 400 l 479 467 q 488 512 479 497 q 515 526 496 526 l 783 526 q 822 515 810 526 q 833 475 833 503 l 833 96 q 735 13 833 36 q 515 -10 638 -10 q 179 111 290 -10 q 68 485 68 232 q 528 982 68 982 m 490 1243 q 538 1238 519 1243 q 567 1215 556 1232 l 653 1081 q 661 1058 661 1068 q 632 1042 661 1042 l 611 1042 q 535 1069 557 1042 l 478 1143 l 422 1071 q 392 1048 410 1054 q 346 1042 374 1042 l 325 1042 q 296 1058 296 1042 q 304 1081 296 1068 l 390 1215 q 419 1238 401 1232 q 467 1243 438 1243 l 490 1243 z "},"Ģ":{"ha":933,"x_min":68,"x_max":833,"o":"m 68 0 m 528 982 q 658 969 592 982 q 769 935 725 957 q 813 889 813 914 q 785 819 813 863 q 739 776 758 776 q 703 791 735 776 q 628 817 672 806 q 526 828 585 828 q 319 743 383 828 q 254 489 254 658 q 518 144 254 144 q 653 157 597 144 l 653 371 l 515 371 q 488 385 496 371 q 479 431 479 400 l 479 467 q 488 512 479 497 q 515 526 496 526 l 783 526 q 822 515 810 526 q 833 475 833 503 l 833 96 q 735 13 833 36 q 515 -10 638 -10 q 179 111 290 -10 q 68 485 68 232 q 528 982 68 982 m 522 -71 q 569 -85 553 -71 q 586 -124 586 -100 q 560 -222 586 -174 q 499 -300 535 -269 q 439 -331 464 -331 q 402 -324 419 -331 q 385 -304 385 -317 q 390 -285 385 -296 q 396 -269 394 -274 q 419 -204 411 -235 q 428 -126 428 -174 q 446 -85 428 -100 q 501 -71 464 -71 l 522 -71 z "},"Ġ":{"ha":933,"x_min":68,"x_max":833,"o":"m 68 0 m 528 982 q 658 969 592 982 q 769 935 725 957 q 813 889 813 914 q 785 819 813 863 q 739 776 758 776 q 703 791 735 776 q 628 817 672 806 q 526 828 585 828 q 319 743 383 828 q 254 489 254 658 q 518 144 254 144 q 653 157 597 144 l 653 371 l 515 371 q 488 385 496 371 q 479 431 479 400 l 479 467 q 488 512 479 497 q 515 526 496 526 l 783 526 q 822 515 810 526 q 833 475 833 503 l 833 96 q 735 13 833 36 q 515 -10 638 -10 q 179 111 290 -10 q 68 485 68 232 q 528 982 68 982 m 481 1221 q 553 1182 553 1221 l 553 1103 q 478 1064 553 1064 q 423 1074 440 1064 q 406 1103 406 1083 l 406 1182 q 481 1221 406 1221 z "},"H":{"ha":1018,"x_min":124,"x_max":907,"o":"m 835 975 q 907 936 907 975 l 907 36 q 835 -3 907 -3 l 800 -3 q 726 36 726 -3 l 726 419 l 304 419 l 304 36 q 232 -3 304 -3 l 196 -3 q 124 36 124 -3 l 124 936 q 196 975 124 975 l 232 975 q 304 936 304 975 l 304 575 l 726 575 l 726 936 q 800 975 726 975 l 835 975 z "},"Ħ":{"ha":1018,"x_min":53,"x_max":965,"o":"m 928 788 q 956 776 947 788 q 965 738 965 764 l 965 719 q 956 680 965 692 q 928 668 947 668 l 907 668 l 907 36 q 835 -3 907 -3 l 800 -3 q 726 36 726 -3 l 726 419 l 304 419 l 304 36 q 232 -3 304 -3 l 196 -3 q 124 36 124 -3 l 124 668 l 90 668 q 62 680 71 668 q 53 719 53 692 l 53 738 q 62 776 53 764 q 90 788 71 788 l 124 788 l 124 936 q 196 975 124 975 l 232 975 q 304 936 304 975 l 304 788 l 726 788 l 726 936 q 800 975 726 975 l 835 975 q 907 936 907 975 l 907 788 l 928 788 m 726 575 l 726 668 l 304 668 l 304 575 l 726 575 z "},"Ĥ":{"ha":1018,"x_min":124,"x_max":907,"o":"m 124 0 m 835 975 q 907 936 907 975 l 907 36 q 835 -3 907 -3 l 800 -3 q 726 36 726 -3 l 726 419 l 304 419 l 304 36 q 232 -3 304 -3 l 196 -3 q 124 36 124 -3 l 124 936 q 196 975 124 975 l 232 975 q 304 936 304 975 l 304 575 l 726 575 l 726 936 q 800 975 726 975 l 835 975 m 521 1243 q 568 1238 550 1243 q 597 1215 586 1232 l 683 1081 q 692 1058 692 1068 q 663 1042 692 1042 l 642 1042 q 565 1069 588 1042 l 508 1143 l 453 1071 q 422 1048 440 1054 q 376 1042 404 1042 l 356 1042 q 326 1058 326 1042 q 335 1081 326 1068 l 421 1215 q 450 1238 432 1232 q 497 1243 468 1243 l 521 1243 z "},"Ḥ":{"ha":1018,"x_min":124,"x_max":907,"o":"m 124 0 m 835 975 q 907 936 907 975 l 907 36 q 835 -3 907 -3 l 800 -3 q 726 36 726 -3 l 726 419 l 304 419 l 304 36 q 232 -3 304 -3 l 196 -3 q 124 36 124 -3 l 124 936 q 196 975 124 975 l 232 975 q 304 936 304 975 l 304 575 l 726 575 l 726 936 q 800 975 726 975 l 835 975 m 531 -111 q 603 -150 603 -111 l 603 -229 q 528 -268 603 -268 q 473 -258 490 -268 q 456 -229 456 -249 l 456 -150 q 531 -111 456 -111 z "},"I":{"ha":392,"x_min":104,"x_max":286,"o":"m 213 976 q 286 936 286 976 l 286 36 q 213 -4 286 -4 l 178 -4 q 104 36 104 -4 l 104 936 q 178 976 104 976 l 213 976 z "},"Ĳ":{"ha":950,"x_min":104,"x_max":850,"o":"m 104 0 m 213 976 q 286 936 286 976 l 286 36 q 213 -4 286 -4 l 178 -4 q 104 36 104 -4 l 104 936 q 178 976 104 976 l 213 976 m 776 976 q 850 936 850 976 l 850 282 q 778 67 850 143 q 556 -10 707 -10 q 447 1 500 -10 q 394 47 394 13 q 407 114 394 72 q 442 157 419 156 q 471 151 447 157 q 524 144 494 144 q 634 181 600 144 q 668 299 668 218 l 668 936 q 742 976 668 976 l 776 976 z "},"Í":{"ha":392,"x_min":104,"x_max":385,"o":"m 104 0 m 213 976 q 286 936 286 976 l 286 36 q 213 -4 286 -4 l 178 -4 q 104 36 104 -4 l 104 936 q 178 976 104 976 l 213 976 m 307 1264 q 366 1260 347 1264 q 385 1246 385 1256 q 369 1219 385 1238 q 319 1161 354 1200 l 246 1081 q 153 1050 218 1050 q 122 1054 131 1050 q 114 1068 114 1058 q 124 1093 114 1075 q 150 1139 133 1111 q 201 1228 168 1168 q 307 1264 221 1264 z "},"Ĭ":{"ha":392,"x_min":-7,"x_max":399,"o":"m 0 0 m 213 976 q 286 936 286 976 l 286 36 q 213 -4 286 -4 l 178 -4 q 104 36 104 -4 l 104 936 q 178 976 104 976 l 213 976 m 360 1239 q 399 1207 399 1239 q 340 1095 399 1140 q 196 1050 281 1050 q 51 1095 110 1050 q -7 1207 -7 1140 q 31 1239 -7 1239 q 53 1233 46 1239 q 71 1210 60 1226 q 196 1164 104 1164 q 321 1213 288 1164 q 338 1233 332 1228 q 360 1239 344 1239 z "},"Î":{"ha":392,"x_min":13,"x_max":378,"o":"m 13 0 m 213 976 q 286 936 286 976 l 286 36 q 213 -4 286 -4 l 178 -4 q 104 36 104 -4 l 104 936 q 178 976 104 976 l 213 976 m 207 1243 q 254 1238 236 1243 q 283 1215 272 1232 l 369 1081 q 378 1058 378 1068 q 349 1042 378 1042 l 328 1042 q 251 1069 274 1042 l 194 1143 l 139 1071 q 108 1048 126 1054 q 63 1042 90 1042 l 42 1042 q 13 1058 13 1042 q 21 1081 13 1068 l 107 1215 q 136 1238 118 1232 q 183 1243 154 1243 l 207 1243 z "},"Ï":{"ha":392,"x_min":6,"x_max":386,"o":"m 6 0 m 213 976 q 286 936 286 976 l 286 36 q 213 -4 286 -4 l 178 -4 q 104 36 104 -4 l 104 936 q 178 976 104 976 l 213 976 m 81 1221 q 154 1182 154 1221 l 154 1103 q 79 1064 154 1064 q 23 1074 40 1064 q 6 1103 6 1083 l 6 1182 q 81 1221 6 1221 m 313 1221 q 386 1182 386 1221 l 386 1103 q 311 1064 386 1064 q 255 1074 272 1064 q 238 1103 238 1083 l 238 1182 q 313 1221 238 1221 z "},"İ":{"ha":392,"x_min":104,"x_max":286,"o":"m 104 0 m 213 976 q 286 936 286 976 l 286 36 q 213 -4 286 -4 l 178 -4 q 104 36 104 -4 l 104 936 q 178 976 104 976 l 213 976 m 197 1221 q 269 1182 269 1221 l 269 1103 q 194 1064 269 1064 q 140 1074 157 1064 q 122 1103 122 1083 l 122 1182 q 197 1221 122 1221 z "},"Ị":{"ha":392,"x_min":104,"x_max":286,"o":"m 104 0 m 213 976 q 286 936 286 976 l 286 36 q 213 -4 286 -4 l 178 -4 q 104 36 104 -4 l 104 936 q 178 976 104 976 l 213 976 m 200 -111 q 272 -150 272 -111 l 272 -229 q 197 -268 272 -268 q 142 -258 160 -268 q 125 -229 125 -249 l 125 -150 q 200 -111 125 -111 z "},"Ì":{"ha":392,"x_min":18,"x_max":289,"o":"m 18 0 m 213 976 q 286 936 286 976 l 286 36 q 213 -4 286 -4 l 178 -4 q 104 36 104 -4 l 104 936 q 178 976 104 976 l 213 976 m 96 1264 q 203 1228 181 1264 q 246 1153 199 1236 q 263 1124 251 1144 q 281 1088 274 1103 q 289 1068 289 1072 q 281 1054 289 1058 q 250 1050 272 1050 q 158 1081 186 1050 l 86 1160 q 34 1218 50 1199 q 18 1246 18 1238 q 37 1260 18 1256 q 96 1264 56 1264 z "},"Ỉ":{"ha":392,"x_min":101,"x_max":356,"o":"m 101 0 m 213 976 q 286 936 286 976 l 286 36 q 213 -4 286 -4 l 178 -4 q 104 36 104 -4 l 104 936 q 178 976 104 976 l 213 976 m 247 1175 q 233 1199 247 1190 q 200 1208 219 1208 q 160 1200 178 1208 q 139 1192 143 1192 q 116 1212 131 1192 q 101 1246 101 1232 q 138 1274 101 1260 q 211 1289 175 1289 q 315 1262 275 1289 q 356 1183 356 1235 q 328 1113 356 1147 q 268 1056 301 1078 q 221 1033 235 1033 q 178 1044 201 1033 q 156 1063 156 1054 q 167 1083 156 1072 q 193 1104 179 1093 q 233 1140 219 1125 q 247 1175 247 1156 z "},"Ī":{"ha":392,"x_min":7,"x_max":383,"o":"m 7 0 m 213 976 q 286 936 286 976 l 286 36 q 213 -4 286 -4 l 178 -4 q 104 36 104 -4 l 104 936 q 178 976 104 976 l 213 976 m 346 1201 q 374 1190 365 1201 q 383 1151 383 1178 l 383 1133 q 374 1094 383 1106 q 346 1082 365 1082 l 44 1082 q 16 1094 25 1082 q 7 1133 7 1106 l 7 1151 q 16 1190 7 1178 q 44 1201 25 1201 l 346 1201 z "},"Į":{"ha":392,"x_min":104,"x_max":414,"o":"m 385 -144 q 414 -182 414 -144 q 383 -239 414 -224 q 300 -254 351 -254 q 169 -208 203 -254 q 136 -112 136 -162 q 143 -55 136 -86 q 167 -4 150 -24 q 104 36 104 0 l 104 936 q 178 976 104 976 l 213 976 q 286 936 286 976 l 286 36 q 244 -1 286 7 l 244 -6 q 239 -33 244 -11 q 229 -86 229 -65 q 254 -144 229 -131 q 315 -157 279 -157 q 354 -150 336 -157 q 385 -144 374 -144 z "},"Ĩ":{"ha":392,"x_min":-36,"x_max":415,"o":"m 97 1208 q 145 1200 115 1208 q 203 1182 175 1192 q 288 1160 263 1161 q 335 1189 315 1160 q 365 1211 350 1211 q 381 1208 369 1211 l 393 1204 q 415 1175 415 1197 q 411 1156 415 1167 q 363 1085 396 1111 q 285 1058 331 1058 q 234 1067 264 1058 q 176 1085 204 1075 q 137 1097 165 1088 q 92 1106 108 1106 q 47 1076 64 1106 q 29 1059 36 1064 q 14 1054 22 1054 q 0 1057 11 1054 l -14 1063 q -36 1092 -36 1071 q -32 1111 -36 1101 q 18 1182 -15 1156 q 97 1208 51 1208 m 213 976 q 286 936 286 976 l 286 36 q 213 -4 286 -4 l 178 -4 q 104 36 104 -4 l 104 936 q 178 976 104 976 l 213 976 z "},"J":{"ha":558,"x_min":3,"x_max":458,"o":"m 385 976 q 458 936 458 976 l 458 282 q 387 67 458 143 q 164 -10 315 -10 q 56 1 108 -10 q 3 47 3 13 q 15 114 3 72 q 50 157 28 156 q 79 151 56 157 q 132 144 103 144 q 242 181 208 144 q 276 299 276 218 l 276 936 q 350 976 276 976 l 385 976 z "},"Ĵ":{"ha":558,"x_min":3,"x_max":550,"o":"m 3 0 m 385 976 q 458 936 458 976 l 458 282 q 387 67 458 143 q 164 -10 315 -10 q 56 1 108 -10 q 3 47 3 13 q 15 114 3 72 q 50 157 28 156 q 79 151 56 157 q 132 144 103 144 q 242 181 208 144 q 276 299 276 218 l 276 936 q 350 976 276 976 l 385 976 m 379 1243 q 426 1238 408 1243 q 456 1215 444 1232 l 542 1081 q 550 1058 550 1068 q 521 1042 550 1042 l 500 1042 q 424 1069 446 1042 l 367 1143 l 311 1071 q 281 1048 299 1054 q 235 1042 263 1042 l 214 1042 q 185 1058 185 1042 q 193 1081 185 1068 l 279 1215 q 308 1238 290 1232 q 356 1243 326 1243 l 379 1243 z "},"K":{"ha":800,"x_min":110,"x_max":818,"o":"m 701 975 q 769 956 769 975 q 757 926 769 946 l 460 507 l 807 44 q 818 18 818 28 q 747 -3 818 -3 l 689 -3 q 607 21 625 -3 l 297 451 l 292 451 l 292 36 q 218 -3 292 -3 l 183 -3 q 110 36 110 -3 l 110 936 q 183 975 110 975 l 218 975 q 292 936 292 975 l 292 544 l 297 543 l 575 951 q 656 975 592 975 l 701 975 z "},"Ķ":{"ha":800,"x_min":110,"x_max":818,"o":"m 110 0 m 701 975 q 769 956 769 975 q 757 926 769 946 l 460 507 l 807 44 q 818 18 818 28 q 747 -3 818 -3 l 689 -3 q 607 21 625 -3 l 297 451 l 292 451 l 292 36 q 218 -3 292 -3 l 183 -3 q 110 36 110 -3 l 110 936 q 183 975 110 975 l 218 975 q 292 936 292 975 l 292 544 l 297 543 l 575 951 q 656 975 592 975 l 701 975 m 421 -71 q 468 -85 451 -71 q 485 -124 485 -100 q 459 -222 485 -174 q 398 -300 433 -269 q 338 -331 363 -331 q 301 -324 318 -331 q 283 -304 283 -317 q 288 -285 283 -296 q 294 -269 293 -274 q 318 -204 310 -235 q 326 -126 326 -174 q 344 -85 326 -100 q 400 -71 363 -71 l 421 -71 z "},"L":{"ha":672,"x_min":110,"x_max":663,"o":"m 217 975 q 290 936 290 975 l 290 154 l 626 154 q 654 140 646 154 q 663 94 663 126 l 663 60 q 654 14 663 28 q 626 0 646 0 l 161 0 q 122 12 135 0 q 110 50 110 24 l 110 936 q 183 975 110 975 l 217 975 z "},"Ǉ":{"ha":997,"x_min":110,"x_max":903,"o":"m 829 976 q 903 936 903 976 l 903 65 q 831 -157 903 -75 q 608 -239 758 -239 q 501 -227 554 -239 q 449 -182 449 -215 q 460 -115 449 -156 q 496 -72 472 -74 q 525 -78 503 -72 q 576 -83 547 -83 q 688 -47 653 -83 q 722 71 722 -11 l 722 936 q 794 976 722 976 l 829 976 m 217 975 q 290 936 290 975 l 290 154 l 529 154 q 557 140 549 154 q 565 94 565 126 l 565 60 q 557 14 565 28 q 529 0 549 0 l 161 0 q 122 12 135 0 q 110 50 110 24 l 110 936 q 183 975 110 975 l 217 975 z "},"Ĺ":{"ha":672,"x_min":110,"x_max":663,"o":"m 110 0 m 217 975 q 290 936 290 975 l 290 154 l 626 154 q 654 140 646 154 q 663 94 663 126 l 663 60 q 654 14 663 28 q 626 0 646 0 l 161 0 q 122 12 135 0 q 110 50 110 24 l 110 936 q 183 975 110 975 l 217 975 m 317 1265 q 376 1261 357 1265 q 394 1247 394 1257 q 379 1220 394 1239 q 329 1163 364 1201 l 256 1082 q 163 1051 228 1051 q 132 1056 140 1051 q 124 1069 124 1060 q 133 1094 124 1076 q 160 1140 143 1113 q 211 1229 178 1169 q 317 1265 231 1265 z "},"Ľ":{"ha":672,"x_min":110,"x_max":663,"o":"m 110 0 m 217 975 q 290 936 290 975 l 290 154 l 626 154 q 654 140 646 154 q 663 94 663 126 l 663 60 q 654 14 663 28 q 626 0 646 0 l 161 0 q 122 12 135 0 q 110 50 110 24 l 110 936 q 183 975 110 975 l 217 975 m 532 972 q 581 958 564 972 q 597 919 597 943 q 577 824 597 871 q 529 748 557 778 q 482 717 501 718 q 445 724 463 717 q 428 744 428 731 q 429 790 428 771 q 432 822 431 808 q 438 917 438 881 q 456 958 438 943 q 511 972 474 972 l 532 972 z "},"Ļ":{"ha":672,"x_min":110,"x_max":663,"o":"m 110 0 m 217 975 q 290 936 290 975 l 290 154 l 626 154 q 654 140 646 154 q 663 94 663 126 l 663 60 q 654 14 663 28 q 626 0 646 0 l 161 0 q 122 12 135 0 q 110 50 110 24 l 110 936 q 183 975 110 975 l 217 975 m 369 -71 q 417 -85 400 -71 q 433 -124 433 -100 q 408 -222 433 -174 q 347 -300 382 -269 q 286 -331 311 -331 q 249 -324 267 -331 q 232 -304 232 -317 q 237 -285 232 -296 q 243 -269 242 -274 q 267 -204 258 -235 q 275 -126 275 -174 q 293 -85 275 -100 q 349 -71 311 -71 l 369 -71 z "},"Ŀ":{"ha":672,"x_min":110,"x_max":663,"o":"m 110 0 m 217 975 q 290 936 290 975 l 290 154 l 626 154 q 654 140 646 154 q 663 94 663 126 l 663 60 q 654 14 663 28 q 626 0 646 0 l 161 0 q 122 12 135 0 q 110 50 110 24 l 110 936 q 183 975 110 975 l 217 975 m 444 588 q 506 562 481 588 q 532 499 532 536 q 506 437 532 463 q 444 411 481 411 q 383 437 408 411 q 357 499 357 463 q 383 562 357 536 q 444 588 408 588 z "},"ǈ":{"ha":1056,"x_min":110,"x_max":960,"o":"m 110 0 m 217 975 q 290 936 290 975 l 290 154 l 626 154 q 654 140 646 154 q 663 94 663 126 l 663 60 q 654 14 663 28 q 626 0 646 0 l 161 0 q 122 12 135 0 q 110 50 110 24 l 110 936 q 183 975 110 975 l 217 975 m 888 1046 q 960 1007 960 1046 l 960 906 q 942 876 960 886 q 888 867 925 867 l 857 867 q 801 876 818 867 q 783 906 783 886 l 783 1007 q 857 1046 783 1046 l 888 1046 m 885 729 q 958 690 958 729 l 958 -82 q 902 -242 958 -190 q 764 -294 846 -294 q 666 -281 697 -294 q 635 -233 635 -268 q 648 -179 635 -210 q 678 -149 661 -149 q 697 -151 683 -149 q 726 -154 711 -154 q 770 -137 756 -154 q 785 -79 785 -121 l 785 690 q 858 729 785 729 l 885 729 z "},"Ł":{"ha":675,"x_min":22,"x_max":667,"o":"m 213 975 q 286 936 286 975 l 286 646 l 418 725 q 436 732 429 732 q 450 707 450 732 l 450 686 q 418 631 450 650 l 286 551 l 286 154 l 631 154 q 658 140 650 154 q 667 94 667 125 l 667 60 q 658 15 667 29 q 631 0 650 0 l 156 0 q 117 12 129 0 q 106 50 106 24 l 106 442 l 54 411 q 36 404 46 404 q 22 429 22 404 l 22 450 q 30 482 22 469 q 54 506 38 494 l 106 536 l 106 936 q 179 975 106 975 l 213 975 z "},"M":{"ha":1171,"x_min":107,"x_max":1064,"o":"m 992 975 q 1064 936 1064 975 l 1064 36 q 992 -3 1064 -3 l 963 -3 q 889 36 889 -3 l 889 674 l 885 674 l 656 269 q 610 246 639 246 l 564 246 q 517 269 533 246 l 286 676 l 282 678 l 282 36 q 208 -3 282 -3 l 179 -3 q 107 36 107 -3 l 107 936 q 179 975 107 975 l 244 975 q 322 942 303 975 l 565 513 l 586 468 l 607 511 l 851 942 q 929 975 869 975 l 992 975 z "},"N":{"ha":999,"x_min":107,"x_max":892,"o":"m 819 975 q 892 936 892 975 l 892 36 q 819 -3 892 -3 l 775 -3 q 728 3 747 -3 q 699 28 710 10 l 314 614 l 282 668 l 282 36 q 208 -3 282 -3 l 179 -3 q 107 36 107 -3 l 107 936 q 179 975 107 975 l 228 975 q 276 968 258 975 q 308 942 294 961 l 678 376 l 717 313 l 717 936 q 790 975 717 975 l 819 975 z "},"Ǌ":{"ha":1557,"x_min":107,"x_max":1457,"o":"m 107 0 m 819 975 q 892 936 892 975 l 892 36 q 819 -3 892 -3 l 775 -3 q 728 3 747 -3 q 699 28 710 10 l 314 614 l 282 668 l 282 36 q 208 -3 282 -3 l 179 -3 q 107 36 107 -3 l 107 936 q 179 975 107 975 l 228 975 q 276 968 258 975 q 308 942 294 961 l 678 376 l 717 313 l 717 936 q 790 975 717 975 l 819 975 m 1383 976 q 1457 936 1457 976 l 1457 282 q 1385 67 1457 143 q 1163 -10 1314 -10 q 1054 1 1107 -10 q 1001 47 1001 13 q 1014 114 1001 72 q 1049 157 1026 156 q 1078 151 1054 157 q 1131 144 1101 144 q 1241 181 1207 144 q 1275 299 1275 218 l 1275 936 q 1349 976 1275 976 l 1383 976 z "},"Ń":{"ha":999,"x_min":107,"x_max":892,"o":"m 107 0 m 819 975 q 892 936 892 975 l 892 36 q 819 -3 892 -3 l 775 -3 q 728 3 747 -3 q 699 28 710 10 l 314 614 l 282 668 l 282 36 q 208 -3 282 -3 l 179 -3 q 107 36 107 -3 l 107 936 q 179 975 107 975 l 228 975 q 276 968 258 975 q 308 942 294 961 l 678 376 l 717 313 l 717 936 q 790 975 717 975 l 819 975 m 611 1264 q 670 1260 651 1264 q 689 1246 689 1256 q 674 1219 689 1238 q 624 1161 658 1200 l 550 1081 q 457 1050 522 1050 q 426 1054 435 1050 q 418 1068 418 1058 q 428 1093 418 1075 q 454 1139 438 1111 q 506 1228 472 1168 q 611 1264 525 1264 z "},"Ň":{"ha":999,"x_min":107,"x_max":892,"o":"m 107 0 m 819 975 q 892 936 892 975 l 892 36 q 819 -3 892 -3 l 775 -3 q 728 3 747 -3 q 699 28 710 10 l 314 614 l 282 668 l 282 36 q 208 -3 282 -3 l 179 -3 q 107 36 107 -3 l 107 936 q 179 975 107 975 l 228 975 q 276 968 258 975 q 308 942 294 961 l 678 376 l 717 313 l 717 936 q 790 975 717 975 l 819 975 m 653 1246 q 683 1229 683 1246 q 675 1208 683 1221 l 589 1074 q 560 1051 578 1057 q 511 1046 542 1046 l 489 1046 q 440 1051 458 1046 q 413 1074 422 1057 l 326 1208 q 318 1231 318 1221 q 347 1246 318 1246 l 368 1246 q 413 1240 394 1246 q 444 1218 431 1233 l 500 1146 l 556 1218 q 633 1246 576 1246 l 653 1246 z "},"Ņ":{"ha":999,"x_min":107,"x_max":892,"o":"m 107 0 m 819 975 q 892 936 892 975 l 892 36 q 819 -3 892 -3 l 775 -3 q 728 3 747 -3 q 699 28 710 10 l 314 614 l 282 668 l 282 36 q 208 -3 282 -3 l 179 -3 q 107 36 107 -3 l 107 936 q 179 975 107 975 l 228 975 q 276 968 258 975 q 308 942 294 961 l 678 376 l 717 313 l 717 936 q 790 975 717 975 l 819 975 m 513 -71 q 560 -85 543 -71 q 576 -124 576 -100 q 551 -222 576 -174 q 490 -300 525 -269 q 429 -331 454 -331 q 392 -324 410 -331 q 375 -304 375 -317 q 380 -285 375 -296 q 386 -269 385 -274 q 410 -204 401 -235 q 418 -126 418 -174 q 436 -85 418 -100 q 492 -71 454 -71 l 513 -71 z "},"Ṅ":{"ha":999,"x_min":107,"x_max":892,"o":"m 107 0 m 819 975 q 892 936 892 975 l 892 36 q 819 -3 892 -3 l 775 -3 q 728 3 747 -3 q 699 28 710 10 l 314 614 l 282 668 l 282 36 q 208 -3 282 -3 l 179 -3 q 107 36 107 -3 l 107 936 q 179 975 107 975 l 228 975 q 276 968 258 975 q 308 942 294 961 l 678 376 l 717 313 l 717 936 q 790 975 717 975 l 819 975 m 501 1221 q 574 1182 574 1221 l 574 1103 q 499 1064 574 1064 q 444 1074 461 1064 q 426 1103 426 1083 l 426 1182 q 501 1221 426 1221 z "},"Ŋ":{"ha":999,"x_min":107,"x_max":892,"o":"m 819 975 q 892 936 892 975 l 892 -82 q 835 -242 892 -190 q 697 -294 779 -294 q 599 -281 631 -294 q 568 -233 568 -268 q 581 -179 568 -210 q 611 -149 594 -149 q 631 -151 617 -149 q 660 -154 644 -154 q 703 -137 689 -154 q 718 -79 718 -121 l 718 1 l 318 607 l 282 668 l 282 36 q 208 -3 282 -3 l 179 -3 q 107 36 107 -3 l 107 936 q 179 975 107 975 l 228 975 q 276 968 258 975 q 308 942 294 961 l 676 378 l 717 313 l 717 936 q 790 975 717 975 l 819 975 z "},"ǋ":{"ha":1382,"x_min":107,"x_max":1286,"o":"m 107 0 m 819 975 q 892 936 892 975 l 892 36 q 819 -3 892 -3 l 775 -3 q 728 3 747 -3 q 699 28 710 10 l 314 614 l 282 668 l 282 36 q 208 -3 282 -3 l 179 -3 q 107 36 107 -3 l 107 936 q 179 975 107 975 l 228 975 q 276 968 258 975 q 308 942 294 961 l 678 376 l 717 313 l 717 936 q 790 975 717 975 l 819 975 m 1214 1046 q 1286 1007 1286 1046 l 1286 906 q 1269 876 1286 886 q 1214 867 1251 867 l 1183 867 q 1127 876 1144 867 q 1110 906 1110 886 l 1110 1007 q 1183 1046 1110 1046 l 1214 1046 m 1211 729 q 1285 690 1285 729 l 1285 -82 q 1228 -242 1285 -190 q 1090 -294 1172 -294 q 992 -281 1024 -294 q 961 -233 961 -268 q 974 -179 961 -210 q 1004 -149 988 -149 q 1024 -151 1010 -149 q 1053 -154 1038 -154 q 1097 -137 1082 -154 q 1111 -79 1111 -121 l 1111 690 q 1185 729 1111 729 l 1211 729 z "},"Ñ":{"ha":999,"x_min":107,"x_max":892,"o":"m 107 0 m 819 975 q 892 936 892 975 l 892 36 q 819 -3 892 -3 l 775 -3 q 728 3 747 -3 q 699 28 710 10 l 314 614 l 282 668 l 282 36 q 208 -3 282 -3 l 179 -3 q 107 36 107 -3 l 107 936 q 179 975 107 975 l 228 975 q 276 968 258 975 q 308 942 294 961 l 678 376 l 717 313 l 717 936 q 790 975 717 975 l 819 975 m 390 1208 q 444 1200 411 1208 q 508 1182 476 1192 q 603 1160 575 1161 q 654 1189 633 1160 q 689 1211 672 1211 q 706 1208 694 1211 l 719 1204 q 744 1175 744 1196 q 740 1156 744 1167 q 687 1084 724 1110 q 599 1058 650 1058 q 479 1083 563 1058 q 426 1099 453 1092 q 385 1106 400 1106 q 335 1076 356 1106 q 299 1054 317 1054 q 283 1057 294 1054 l 268 1063 q 243 1093 243 1071 q 247 1111 243 1103 q 302 1182 265 1156 q 390 1208 339 1208 z "},"O":{"ha":1015,"x_min":68,"x_max":947,"o":"m 508 982 q 834 856 721 982 q 947 488 947 729 q 834 118 947 246 q 508 -10 721 -10 q 182 118 296 -10 q 68 488 68 246 q 182 855 68 728 q 508 982 296 982 m 508 828 q 319 741 383 828 q 254 488 254 654 q 319 232 254 319 q 508 144 383 144 q 697 232 632 144 q 761 488 761 319 q 697 741 761 654 q 508 828 632 828 z "},"Ó":{"ha":1015,"x_min":68,"x_max":947,"o":"m 68 0 m 508 982 q 834 856 721 982 q 947 488 947 729 q 834 118 947 246 q 508 -10 721 -10 q 182 118 296 -10 q 68 488 68 246 q 182 855 68 728 q 508 982 296 982 m 508 828 q 319 741 383 828 q 254 488 254 654 q 319 232 254 319 q 508 144 383 144 q 697 232 632 144 q 761 488 761 319 q 697 741 761 654 q 508 828 632 828 m 619 1264 q 678 1260 660 1264 q 697 1246 697 1256 q 682 1219 697 1238 q 632 1161 667 1200 l 558 1081 q 465 1050 531 1050 q 435 1054 443 1050 q 426 1068 426 1058 q 436 1093 426 1075 q 463 1139 446 1111 q 514 1228 481 1168 q 619 1264 533 1264 z "},"Ŏ":{"ha":1015,"x_min":68,"x_max":947,"o":"m 68 0 m 508 982 q 834 856 721 982 q 947 488 947 729 q 834 118 947 246 q 508 -10 721 -10 q 182 118 296 -10 q 68 488 68 246 q 182 855 68 728 q 508 982 296 982 m 508 828 q 319 741 383 828 q 254 488 254 654 q 319 232 254 319 q 508 144 383 144 q 697 232 632 144 q 761 488 761 319 q 697 741 761 654 q 508 828 632 828 m 672 1239 q 711 1207 711 1239 q 652 1095 711 1140 q 508 1050 593 1050 q 364 1095 422 1050 q 306 1207 306 1140 q 343 1239 306 1239 q 365 1233 358 1239 q 383 1210 372 1226 q 508 1164 417 1164 q 633 1213 600 1164 q 651 1233 644 1228 q 672 1239 657 1239 z "},"Ô":{"ha":1015,"x_min":68,"x_max":947,"o":"m 68 0 m 508 982 q 834 856 721 982 q 947 488 947 729 q 834 118 947 246 q 508 -10 721 -10 q 182 118 296 -10 q 68 488 68 246 q 182 855 68 728 q 508 982 296 982 m 508 828 q 319 741 383 828 q 254 488 254 654 q 319 232 254 319 q 508 144 383 144 q 697 232 632 144 q 761 488 761 319 q 697 741 761 654 q 508 828 632 828 m 519 1243 q 567 1238 549 1243 q 596 1215 585 1232 l 682 1081 q 690 1058 690 1068 q 661 1042 690 1042 l 640 1042 q 564 1069 586 1042 l 507 1143 l 451 1071 q 421 1048 439 1054 q 375 1042 403 1042 l 354 1042 q 325 1058 325 1042 q 333 1081 325 1068 l 419 1215 q 449 1238 431 1232 q 496 1243 467 1243 l 519 1243 z "},"Ố":{"ha":1015,"x_min":68,"x_max":947,"o":"m 793 1338 q 833 1332 821 1338 q 844 1310 844 1326 q 830 1280 844 1300 q 760 1190 815 1260 l 742 1168 q 718 1151 733 1157 q 675 1146 703 1146 q 651 1150 658 1146 q 644 1164 644 1154 q 658 1203 644 1172 q 675 1243 672 1235 l 700 1300 q 793 1338 719 1338 m 522 1243 q 561 1237 546 1243 q 585 1215 576 1231 l 664 1081 q 672 1058 672 1068 q 643 1042 672 1042 l 622 1042 q 546 1069 557 1042 l 510 1143 l 454 1071 q 424 1048 442 1054 q 378 1042 406 1042 l 357 1042 q 328 1058 328 1042 q 336 1081 328 1068 l 422 1215 q 451 1238 433 1232 q 499 1243 469 1243 l 522 1243 m 508 982 q 834 856 721 982 q 947 488 947 729 q 834 118 947 246 q 508 -10 721 -10 q 182 118 296 -10 q 68 488 68 246 q 182 855 68 728 q 508 982 296 982 m 508 828 q 319 741 383 828 q 254 488 254 654 q 319 232 254 319 q 508 144 383 144 q 697 232 632 144 q 761 488 761 319 q 697 741 761 654 q 508 828 632 828 z "},"Ộ":{"ha":1015,"x_min":68,"x_max":947,"o":"m 68 0 m 508 982 q 834 856 721 982 q 947 488 947 729 q 834 118 947 246 q 508 -10 721 -10 q 182 118 296 -10 q 68 488 68 246 q 182 855 68 728 q 508 982 296 982 m 508 828 q 319 741 383 828 q 254 488 254 654 q 319 232 254 319 q 508 144 383 144 q 697 232 632 144 q 761 488 761 319 q 697 741 761 654 q 508 828 632 828 m 519 1243 q 567 1238 549 1243 q 596 1215 585 1232 l 682 1081 q 690 1058 690 1068 q 661 1042 690 1042 l 640 1042 q 564 1069 586 1042 l 507 1143 l 451 1071 q 421 1048 439 1054 q 375 1042 403 1042 l 354 1042 q 325 1058 325 1042 q 333 1081 325 1068 l 419 1215 q 449 1238 431 1232 q 496 1243 467 1243 l 519 1243 m 514 -111 q 586 -150 586 -111 l 586 -229 q 511 -268 586 -268 q 456 -258 474 -268 q 439 -229 439 -249 l 439 -150 q 514 -111 439 -111 z "},"Ồ":{"ha":1015,"x_min":68,"x_max":947,"o":"m 617 1336 q 717 1300 703 1336 q 765 1163 765 1182 q 756 1149 765 1153 q 726 1144 747 1144 q 653 1175 678 1144 l 601 1246 q 567 1294 578 1279 q 557 1318 557 1310 q 571 1332 557 1328 q 617 1336 585 1336 m 522 1243 q 561 1237 546 1243 q 585 1215 576 1231 l 664 1081 q 672 1058 672 1068 q 643 1042 672 1042 l 622 1042 q 546 1069 557 1042 l 510 1143 l 454 1071 q 424 1048 442 1054 q 378 1042 406 1042 l 357 1042 q 328 1058 328 1042 q 336 1081 328 1068 l 422 1215 q 451 1238 433 1232 q 499 1243 469 1243 l 522 1243 m 508 982 q 834 856 721 982 q 947 488 947 729 q 834 118 947 246 q 508 -10 721 -10 q 182 118 296 -10 q 68 488 68 246 q 182 855 68 728 q 508 982 296 982 m 508 828 q 319 741 383 828 q 254 488 254 654 q 319 232 254 319 q 508 144 383 144 q 697 232 632 144 q 761 488 761 319 q 697 741 761 654 q 508 828 632 828 z "},"Ổ":{"ha":1015,"x_min":68,"x_max":947,"o":"m 719 1247 q 708 1269 719 1261 q 682 1276 697 1276 q 634 1265 653 1276 q 611 1254 615 1254 q 588 1274 603 1254 q 574 1308 574 1294 q 610 1335 574 1322 q 683 1347 646 1347 q 773 1323 738 1347 q 808 1254 808 1299 q 768 1181 808 1213 q 735 1160 754 1169 q 704 1150 717 1150 q 663 1159 679 1150 q 647 1179 647 1168 q 676 1204 647 1190 q 710 1225 700 1217 q 719 1247 719 1233 m 522 1243 q 561 1237 546 1243 q 585 1215 576 1231 l 664 1081 q 672 1058 672 1068 q 643 1042 672 1042 l 622 1042 q 546 1069 557 1042 l 510 1143 l 454 1071 q 424 1048 442 1054 q 378 1042 406 1042 l 357 1042 q 328 1058 328 1042 q 336 1081 328 1068 l 422 1215 q 451 1238 433 1232 q 499 1243 469 1243 l 522 1243 m 508 982 q 834 856 721 982 q 947 488 947 729 q 834 118 947 246 q 508 -10 721 -10 q 182 118 296 -10 q 68 488 68 246 q 182 855 68 728 q 508 982 296 982 m 508 828 q 319 741 383 828 q 254 488 254 654 q 319 232 254 319 q 508 144 383 144 q 697 232 632 144 q 761 488 761 319 q 697 741 761 654 q 508 828 632 828 z "},"Ỗ":{"ha":1015,"x_min":68,"x_max":947,"o":"m 413 1408 q 476 1397 439 1408 q 519 1382 513 1385 q 558 1370 528 1379 q 606 1360 588 1361 q 651 1389 632 1360 q 683 1411 668 1411 q 699 1408 688 1411 l 711 1404 q 735 1374 735 1396 q 731 1356 735 1367 q 681 1284 714 1310 q 601 1258 649 1258 q 493 1283 568 1258 q 457 1295 488 1285 q 407 1306 426 1306 q 361 1276 381 1306 q 329 1254 344 1254 q 315 1257 326 1254 l 301 1263 q 278 1293 278 1271 q 282 1311 278 1301 q 332 1382 299 1356 q 413 1408 365 1408 m 521 1210 q 565 1203 547 1210 q 597 1182 583 1197 l 683 1081 q 692 1058 692 1068 q 663 1042 692 1042 l 642 1042 q 606 1048 621 1042 q 565 1069 590 1054 l 508 1119 l 453 1071 q 433 1058 447 1067 q 405 1046 418 1050 q 376 1042 392 1042 l 356 1042 q 326 1058 326 1042 q 335 1081 326 1068 l 421 1182 q 453 1203 436 1197 q 497 1210 471 1210 l 521 1210 m 508 982 q 834 856 721 982 q 947 488 947 729 q 834 118 947 246 q 508 -10 721 -10 q 182 118 296 -10 q 68 488 68 246 q 182 855 68 728 q 508 982 296 982 m 508 828 q 319 741 383 828 q 254 488 254 654 q 319 232 254 319 q 508 144 383 144 q 697 232 632 144 q 761 488 761 319 q 697 741 761 654 q 508 828 632 828 z "},"Ö":{"ha":1015,"x_min":68,"x_max":947,"o":"m 68 0 m 508 982 q 834 856 721 982 q 947 488 947 729 q 834 118 947 246 q 508 -10 721 -10 q 182 118 296 -10 q 68 488 68 246 q 182 855 68 728 q 508 982 296 982 m 508 828 q 319 741 383 828 q 254 488 254 654 q 319 232 254 319 q 508 144 383 144 q 697 232 632 144 q 761 488 761 319 q 697 741 761 654 q 508 828 632 828 m 393 1221 q 467 1182 467 1221 l 467 1103 q 392 1064 467 1064 q 335 1074 353 1064 q 318 1103 318 1083 l 318 1182 q 393 1221 318 1221 m 625 1221 q 699 1182 699 1221 l 699 1103 q 624 1064 699 1064 q 567 1074 585 1064 q 550 1103 550 1083 l 550 1182 q 625 1221 550 1221 z "},"Ọ":{"ha":1015,"x_min":68,"x_max":947,"o":"m 68 0 m 508 982 q 834 856 721 982 q 947 488 947 729 q 834 118 947 246 q 508 -10 721 -10 q 182 118 296 -10 q 68 488 68 246 q 182 855 68 728 q 508 982 296 982 m 508 828 q 319 741 383 828 q 254 488 254 654 q 319 232 254 319 q 508 144 383 144 q 697 232 632 144 q 761 488 761 319 q 697 741 761 654 q 508 828 632 828 m 514 -111 q 586 -150 586 -111 l 586 -229 q 511 -268 586 -268 q 456 -258 474 -268 q 439 -229 439 -249 l 439 -150 q 514 -111 439 -111 z "},"Ò":{"ha":1015,"x_min":68,"x_max":947,"o":"m 68 0 m 508 982 q 834 856 721 982 q 947 488 947 729 q 834 118 947 246 q 508 -10 721 -10 q 182 118 296 -10 q 68 488 68 246 q 182 855 68 728 q 508 982 296 982 m 508 828 q 319 741 383 828 q 254 488 254 654 q 319 232 254 319 q 508 144 383 144 q 697 232 632 144 q 761 488 761 319 q 697 741 761 654 q 508 828 632 828 m 408 1264 q 515 1228 493 1264 q 558 1153 511 1236 q 575 1124 564 1144 q 594 1088 586 1103 q 601 1068 601 1072 q 593 1054 601 1058 q 563 1050 585 1050 q 471 1081 499 1050 l 399 1160 q 347 1218 363 1199 q 331 1246 331 1238 q 349 1260 331 1256 q 408 1264 368 1264 z "},"Ỏ":{"ha":1015,"x_min":68,"x_max":947,"o":"m 68 0 m 508 982 q 834 856 721 982 q 947 488 947 729 q 834 118 947 246 q 508 -10 721 -10 q 182 118 296 -10 q 68 488 68 246 q 182 855 68 728 q 508 982 296 982 m 508 828 q 319 741 383 828 q 254 488 254 654 q 319 232 254 319 q 508 144 383 144 q 697 232 632 144 q 761 488 761 319 q 697 741 761 654 q 508 828 632 828 m 560 1175 q 546 1199 560 1190 q 513 1208 532 1208 q 473 1200 490 1208 q 451 1192 456 1192 q 428 1212 443 1192 q 414 1246 414 1232 q 451 1274 414 1260 q 524 1289 488 1289 q 628 1262 588 1289 q 668 1183 668 1235 q 641 1113 668 1147 q 581 1056 614 1078 q 533 1033 547 1033 q 491 1044 514 1033 q 468 1063 468 1054 q 480 1083 468 1072 q 506 1104 492 1093 q 546 1140 532 1125 q 560 1175 560 1156 z "},"Ơ":{"ha":1015,"x_min":68,"x_max":947,"o":"m 789 899 q 947 488 947 774 q 834 118 947 246 q 508 -10 721 -10 q 182 118 296 -10 q 68 488 68 246 q 182 855 68 728 q 508 982 296 982 q 703 947 621 982 l 732 947 q 801 996 801 947 q 797 1021 803 1010 q 779 1049 790 1032 q 765 1074 765 1068 q 779 1097 765 1089 l 819 1125 q 839 1132 828 1132 q 883 1094 864 1132 q 903 1021 903 1056 q 875 940 903 972 q 789 899 847 908 m 508 144 q 697 232 632 144 q 761 488 761 319 q 697 741 761 654 q 508 828 632 828 q 319 741 383 828 q 254 488 254 654 q 319 232 254 319 q 508 144 383 144 z "},"Ớ":{"ha":1015,"x_min":68,"x_max":947,"o":"m 489 1053 q 458 1057 467 1053 q 450 1071 450 1061 q 460 1096 450 1078 q 486 1142 469 1114 q 538 1231 504 1171 q 643 1267 557 1267 q 702 1263 683 1267 q 721 1249 721 1258 q 706 1222 721 1240 q 656 1164 690 1203 l 582 1083 q 489 1053 554 1053 m 789 899 q 947 488 947 774 q 834 118 947 246 q 508 -10 721 -10 q 182 118 296 -10 q 68 488 68 246 q 182 855 68 728 q 508 982 296 982 q 703 947 621 982 l 732 947 q 801 996 801 947 q 797 1021 803 1010 q 779 1049 790 1032 q 765 1074 765 1068 q 779 1097 765 1089 l 819 1125 q 839 1132 828 1132 q 883 1094 864 1132 q 903 1021 903 1056 q 875 940 903 972 q 789 899 847 908 m 508 144 q 697 232 632 144 q 761 488 761 319 q 697 741 761 654 q 508 828 632 828 q 319 741 383 828 q 254 488 254 654 q 319 232 254 319 q 508 144 383 144 z "},"Ợ":{"ha":1015,"x_min":68,"x_max":947,"o":"m 789 899 q 947 488 947 774 q 834 118 947 246 q 508 -10 721 -10 q 182 118 296 -10 q 68 488 68 246 q 182 855 68 728 q 508 982 296 982 q 703 947 621 982 l 732 947 q 801 996 801 947 q 797 1021 803 1010 q 779 1049 790 1032 q 765 1074 765 1068 q 779 1097 765 1089 l 819 1125 q 839 1132 828 1132 q 883 1094 864 1132 q 903 1021 903 1056 q 875 940 903 972 q 789 899 847 908 m 508 144 q 697 232 632 144 q 761 488 761 319 q 697 741 761 654 q 508 828 632 828 q 319 741 383 828 q 254 488 254 654 q 319 232 254 319 q 508 144 383 144 m 514 -111 q 586 -150 586 -111 l 586 -229 q 511 -268 586 -268 q 456 -258 474 -268 q 439 -229 439 -249 l 439 -150 q 514 -111 439 -111 z "},"Ờ":{"ha":1015,"x_min":68,"x_max":947,"o":"m 586 1053 q 494 1083 522 1053 l 422 1163 q 370 1221 386 1201 q 354 1249 354 1240 q 373 1263 354 1258 q 432 1267 392 1267 q 539 1231 517 1267 q 582 1156 535 1239 q 599 1126 588 1147 q 617 1090 610 1106 q 625 1071 625 1075 q 617 1057 625 1061 q 586 1053 608 1053 m 789 899 q 947 488 947 774 q 834 118 947 246 q 508 -10 721 -10 q 182 118 296 -10 q 68 488 68 246 q 182 855 68 728 q 508 982 296 982 q 703 947 621 982 l 732 947 q 801 996 801 947 q 797 1021 803 1010 q 779 1049 790 1032 q 765 1074 765 1068 q 779 1097 765 1089 l 819 1125 q 839 1132 828 1132 q 883 1094 864 1132 q 903 1021 903 1056 q 875 940 903 972 q 789 899 847 908 m 508 144 q 697 232 632 144 q 761 488 761 319 q 697 741 761 654 q 508 828 632 828 q 319 741 383 828 q 254 488 254 654 q 319 232 254 319 q 508 144 383 144 z "},"Ở":{"ha":1015,"x_min":68,"x_max":947,"o":"m 475 1194 q 452 1215 467 1194 q 438 1249 438 1235 q 474 1277 438 1263 q 547 1292 511 1292 q 651 1265 611 1292 q 692 1186 692 1238 q 665 1115 692 1150 q 604 1058 638 1081 q 557 1036 571 1036 q 515 1047 538 1036 q 492 1065 492 1057 q 503 1085 492 1075 q 529 1107 515 1096 q 569 1143 556 1128 q 583 1178 583 1158 q 569 1202 583 1193 q 536 1211 556 1211 q 497 1203 514 1211 q 475 1194 479 1194 m 789 899 q 947 488 947 774 q 834 118 947 246 q 508 -10 721 -10 q 182 118 296 -10 q 68 488 68 246 q 182 855 68 728 q 508 982 296 982 q 703 947 621 982 l 732 947 q 801 996 801 947 q 797 1021 803 1010 q 779 1049 790 1032 q 765 1074 765 1068 q 779 1097 765 1089 l 819 1125 q 839 1132 828 1132 q 883 1094 864 1132 q 903 1021 903 1056 q 875 940 903 972 q 789 899 847 908 m 508 144 q 697 232 632 144 q 761 488 761 319 q 697 741 761 654 q 508 828 632 828 q 319 741 383 828 q 254 488 254 654 q 319 232 254 319 q 508 144 383 144 z "},"Ỡ":{"ha":1015,"x_min":68,"x_max":947,"o":"m 322 1065 q 300 1094 300 1074 q 304 1114 300 1104 q 354 1185 321 1158 q 433 1211 388 1211 q 481 1203 451 1211 q 539 1185 511 1194 q 624 1163 599 1164 q 671 1192 651 1163 q 701 1214 686 1214 q 717 1211 706 1214 l 729 1207 q 751 1178 751 1200 q 747 1158 751 1169 q 699 1088 732 1114 q 621 1061 667 1061 q 570 1069 600 1061 q 513 1088 540 1078 q 473 1099 501 1090 q 428 1108 444 1108 q 383 1079 400 1108 q 366 1062 374 1067 q 350 1057 358 1057 q 336 1060 347 1057 l 322 1065 m 789 899 q 947 488 947 774 q 834 118 947 246 q 508 -10 721 -10 q 182 118 296 -10 q 68 488 68 246 q 182 855 68 728 q 508 982 296 982 q 703 947 621 982 l 732 947 q 801 996 801 947 q 797 1021 803 1010 q 779 1049 790 1032 q 765 1074 765 1068 q 779 1097 765 1089 l 819 1125 q 839 1132 828 1132 q 883 1094 864 1132 q 903 1021 903 1056 q 875 940 903 972 q 789 899 847 908 m 508 144 q 697 232 632 144 q 761 488 761 319 q 697 741 761 654 q 508 828 632 828 q 319 741 383 828 q 254 488 254 654 q 319 232 254 319 q 508 144 383 144 z "},"Ő":{"ha":1015,"x_min":68,"x_max":947,"o":"m 68 0 m 508 982 q 834 856 721 982 q 947 488 947 729 q 834 118 947 246 q 508 -10 721 -10 q 182 118 296 -10 q 68 488 68 246 q 182 855 68 728 q 508 982 296 982 m 508 828 q 319 741 383 828 q 254 488 254 654 q 319 232 254 319 q 508 144 383 144 q 697 232 632 144 q 761 488 761 319 q 697 741 761 654 q 508 828 632 828 m 508 1264 q 568 1260 550 1264 q 586 1246 586 1256 q 571 1219 586 1238 q 521 1161 556 1200 l 447 1081 q 354 1050 419 1050 q 324 1054 332 1050 q 315 1068 315 1058 q 325 1093 315 1075 q 351 1139 335 1111 q 403 1228 369 1168 q 508 1264 422 1264 m 744 1264 q 803 1260 785 1264 q 822 1246 822 1256 q 807 1219 822 1238 q 757 1161 792 1200 l 683 1081 q 590 1050 656 1050 q 560 1054 568 1050 q 551 1068 551 1058 q 561 1093 551 1075 q 588 1139 571 1111 q 639 1228 606 1168 q 744 1264 658 1264 z "},"Ō":{"ha":1015,"x_min":68,"x_max":947,"o":"m 68 0 m 508 982 q 834 856 721 982 q 947 488 947 729 q 834 118 947 246 q 508 -10 721 -10 q 182 118 296 -10 q 68 488 68 246 q 182 855 68 728 q 508 982 296 982 m 508 828 q 319 741 383 828 q 254 488 254 654 q 319 232 254 319 q 508 144 383 144 q 697 232 632 144 q 761 488 761 319 q 697 741 761 654 q 508 828 632 828 m 658 1201 q 687 1190 678 1201 q 696 1151 696 1178 l 696 1133 q 687 1094 696 1106 q 658 1082 678 1082 l 357 1082 q 328 1094 338 1082 q 319 1133 319 1106 l 319 1151 q 328 1190 319 1178 q 357 1201 338 1201 l 658 1201 z "},"Ǫ":{"ha":1015,"x_min":68,"x_max":947,"o":"m 947 488 q 863 155 947 279 q 615 0 778 31 l 615 -6 q 610 -33 615 -11 q 600 -86 600 -65 q 625 -144 600 -131 q 686 -157 650 -157 q 725 -150 707 -157 q 756 -144 744 -144 q 785 -182 785 -144 q 753 -239 785 -224 q 671 -254 722 -254 q 540 -208 574 -254 q 507 -112 507 -162 q 513 -60 507 -89 q 533 -10 518 -31 l 508 -10 q 182 118 296 -10 q 68 488 68 246 q 182 855 68 728 q 508 982 296 982 q 834 856 721 982 q 947 488 947 729 m 508 144 q 697 232 632 144 q 761 488 761 319 q 697 741 761 654 q 508 828 632 828 q 319 741 383 828 q 254 488 254 654 q 319 232 254 319 q 508 144 383 144 z "},"Ø":{"ha":1015,"x_min":33,"x_max":947,"o":"m 508 982 q 788 897 679 982 l 861 979 q 888 994 872 994 q 922 976 903 994 q 940 943 940 958 q 929 919 940 931 l 851 833 q 947 488 947 706 q 834 118 947 246 q 508 -10 721 -10 q 199 101 310 -10 l 114 6 q 88 -10 103 -10 q 53 8 74 -10 q 33 42 33 26 q 46 65 33 53 l 142 172 q 68 488 68 294 q 182 855 68 728 q 508 982 296 982 m 508 828 q 319 741 383 828 q 254 488 254 654 q 276 324 254 399 l 671 768 q 508 828 608 828 m 318 233 q 508 144 382 144 q 697 232 632 144 q 761 488 761 319 q 724 690 761 607 l 318 233 z "},"Ǿ":{"ha":1015,"x_min":33,"x_max":947,"o":"m 33 0 m 508 982 q 788 897 679 982 l 861 979 q 888 994 872 994 q 922 976 903 994 q 940 943 940 958 q 929 919 940 931 l 851 833 q 947 488 947 706 q 834 118 947 246 q 508 -10 721 -10 q 199 101 310 -10 l 114 6 q 88 -10 103 -10 q 53 8 74 -10 q 33 42 33 26 q 46 65 33 53 l 142 172 q 68 488 68 294 q 182 855 68 728 q 508 982 296 982 m 508 828 q 319 741 383 828 q 254 488 254 654 q 276 324 254 399 l 671 768 q 508 828 608 828 m 318 233 q 508 144 382 144 q 697 232 632 144 q 761 488 761 319 q 724 690 761 607 l 318 233 m 619 1264 q 678 1260 660 1264 q 697 1246 697 1256 q 682 1219 697 1238 q 632 1161 667 1200 l 558 1081 q 465 1050 531 1050 q 435 1054 443 1050 q 426 1068 426 1058 q 436 1093 426 1075 q 463 1139 446 1111 q 514 1228 481 1168 q 619 1264 533 1264 z "},"Õ":{"ha":1015,"x_min":68,"x_max":947,"o":"m 68 0 m 508 982 q 834 856 721 982 q 947 488 947 729 q 834 118 947 246 q 508 -10 721 -10 q 182 118 296 -10 q 68 488 68 246 q 182 855 68 728 q 508 982 296 982 m 508 828 q 319 741 383 828 q 254 488 254 654 q 319 232 254 319 q 508 144 383 144 q 697 232 632 144 q 761 488 761 319 q 697 741 761 654 q 508 828 632 828 m 399 1208 q 452 1200 419 1208 q 517 1182 485 1192 q 611 1160 583 1161 q 663 1189 642 1160 q 697 1211 681 1211 q 714 1208 703 1211 l 728 1204 q 753 1175 753 1196 q 749 1156 753 1167 q 695 1084 732 1110 q 607 1058 658 1058 q 488 1083 571 1058 q 435 1099 461 1092 q 393 1106 408 1106 q 343 1076 364 1106 q 307 1054 325 1054 q 292 1057 303 1054 l 276 1063 q 251 1093 251 1071 q 256 1111 251 1103 q 310 1182 274 1156 q 399 1208 347 1208 z "},"Œ":{"ha":1418,"x_min":68,"x_max":1354,"o":"m 1317 154 q 1345 140 1336 154 q 1354 94 1354 126 l 1354 60 q 1345 14 1354 28 q 1317 0 1336 0 l 814 0 q 776 13 788 0 q 764 51 764 25 l 764 69 q 499 -10 660 -10 q 179 118 290 -10 q 68 488 68 246 q 179 856 68 729 q 499 982 290 982 q 764 903 660 982 l 764 924 q 776 960 764 949 q 814 972 788 972 l 1315 972 q 1344 958 1335 972 q 1353 913 1353 944 l 1353 878 q 1344 832 1353 846 q 1315 818 1335 818 l 944 818 l 944 575 l 1276 575 q 1305 561 1296 575 q 1314 515 1314 547 l 1314 481 q 1305 435 1314 449 q 1276 421 1296 421 l 944 421 l 944 154 l 1317 154 m 508 144 q 697 232 632 144 q 761 488 761 319 q 697 741 761 654 q 508 828 632 828 q 319 741 383 828 q 254 488 254 654 q 319 232 254 319 q 508 144 383 144 z "},"P":{"ha":792,"x_min":104,"x_max":765,"o":"m 443 972 q 668 911 571 972 q 765 679 765 850 q 709 494 765 560 q 583 405 653 428 q 457 382 513 382 l 285 382 l 285 36 q 211 -3 285 -3 l 178 -3 q 104 36 104 -3 l 104 922 q 116 960 104 949 q 154 972 128 972 l 443 972 m 285 818 l 285 538 l 442 538 q 538 569 496 538 q 581 679 581 600 q 538 787 581 756 q 435 818 494 818 l 285 818 z "},"Þ":{"ha":788,"x_min":103,"x_max":771,"o":"m 210 975 q 283 936 283 975 l 283 817 l 447 817 q 673 755 575 817 q 771 524 771 693 q 715 338 771 404 q 588 249 658 272 q 461 226 517 226 l 283 226 l 283 36 q 210 -3 283 -3 l 176 -3 q 103 36 103 -3 l 103 936 q 176 975 103 975 l 210 975 m 283 663 l 283 381 l 447 381 q 543 413 501 381 q 585 524 585 444 q 542 631 585 600 q 440 663 500 663 l 283 663 z "},"Q":{"ha":1015,"x_min":68,"x_max":961,"o":"m 508 982 q 834 854 721 982 q 947 485 947 726 q 885 193 947 308 q 707 31 824 78 l 707 25 l 942 -56 q 961 -78 961 -62 q 951 -122 961 -90 q 924 -178 940 -153 q 890 -204 908 -204 q 775 -162 882 -204 q 640 -108 668 -119 l 325 17 q 133 185 199 67 q 68 485 68 303 q 182 854 68 726 q 508 982 296 982 m 508 828 q 319 740 385 828 q 254 485 254 651 q 319 228 254 317 q 508 139 385 139 q 696 228 631 139 q 761 485 761 317 q 696 740 761 651 q 508 828 631 828 z "},"R":{"ha":847,"x_min":110,"x_max":831,"o":"m 418 972 q 676 908 592 972 q 760 717 760 844 q 717 578 760 636 q 599 490 674 519 l 599 485 q 657 435 629 474 q 707 340 685 397 l 824 47 q 831 24 831 29 q 756 -3 831 -3 l 715 -3 q 643 24 653 -3 l 535 296 q 476 375 510 353 q 371 397 442 397 l 290 397 l 290 36 q 217 -3 290 -3 l 183 -3 q 110 36 110 -3 l 110 922 q 122 960 110 949 q 161 972 135 972 l 418 972 m 290 818 l 290 554 l 442 554 q 535 594 496 554 q 574 692 574 635 q 535 785 574 753 q 432 818 497 818 l 290 818 z "},"Ŕ":{"ha":847,"x_min":110,"x_max":831,"o":"m 110 0 m 418 972 q 676 908 592 972 q 760 717 760 844 q 717 578 760 636 q 599 490 674 519 l 599 485 q 657 435 629 474 q 707 340 685 397 l 824 47 q 831 24 831 29 q 756 -3 831 -3 l 715 -3 q 643 24 653 -3 l 535 296 q 476 375 510 353 q 371 397 442 397 l 290 397 l 290 36 q 217 -3 290 -3 l 183 -3 q 110 36 110 -3 l 110 922 q 122 960 110 949 q 161 972 135 972 l 418 972 m 290 818 l 290 554 l 442 554 q 535 594 496 554 q 574 692 574 635 q 535 785 574 753 q 432 818 497 818 l 290 818 m 535 1264 q 594 1260 575 1264 q 613 1246 613 1256 q 597 1219 613 1238 q 547 1161 582 1200 l 474 1081 q 381 1050 446 1050 q 350 1054 358 1050 q 342 1068 342 1058 q 351 1093 342 1075 q 378 1139 361 1111 q 429 1228 396 1168 q 535 1264 449 1264 z "},"Ř":{"ha":847,"x_min":110,"x_max":831,"o":"m 110 0 m 418 972 q 676 908 592 972 q 760 717 760 844 q 717 578 760 636 q 599 490 674 519 l 599 485 q 657 435 629 474 q 707 340 685 397 l 824 47 q 831 24 831 29 q 756 -3 831 -3 l 715 -3 q 643 24 653 -3 l 535 296 q 476 375 510 353 q 371 397 442 397 l 290 397 l 290 36 q 217 -3 290 -3 l 183 -3 q 110 36 110 -3 l 110 922 q 122 960 110 949 q 161 972 135 972 l 418 972 m 290 818 l 290 554 l 442 554 q 535 594 496 554 q 574 692 574 635 q 535 785 574 753 q 432 818 497 818 l 290 818 m 576 1246 q 607 1229 607 1246 q 599 1208 607 1221 l 513 1074 q 483 1051 501 1057 q 435 1046 465 1046 l 413 1046 q 364 1051 382 1046 q 336 1074 346 1057 l 250 1208 q 242 1231 242 1221 q 271 1246 242 1246 l 292 1246 q 336 1240 318 1246 q 368 1218 354 1233 l 424 1146 l 479 1218 q 557 1246 500 1246 l 576 1246 z "},"Ŗ":{"ha":847,"x_min":110,"x_max":831,"o":"m 110 0 m 418 972 q 676 908 592 972 q 760 717 760 844 q 717 578 760 636 q 599 490 674 519 l 599 485 q 657 435 629 474 q 707 340 685 397 l 824 47 q 831 24 831 29 q 756 -3 831 -3 l 715 -3 q 643 24 653 -3 l 535 296 q 476 375 510 353 q 371 397 442 397 l 290 397 l 290 36 q 217 -3 290 -3 l 183 -3 q 110 36 110 -3 l 110 922 q 122 960 110 949 q 161 972 135 972 l 418 972 m 290 818 l 290 554 l 442 554 q 535 594 496 554 q 574 692 574 635 q 535 785 574 753 q 432 818 497 818 l 290 818 m 436 -71 q 483 -85 467 -71 q 500 -124 500 -100 q 474 -222 500 -174 q 413 -300 449 -269 q 353 -331 378 -331 q 316 -324 333 -331 q 299 -304 299 -317 q 303 -285 299 -296 q 310 -269 308 -274 q 333 -204 325 -235 q 342 -126 342 -174 q 360 -85 342 -100 q 415 -71 378 -71 l 436 -71 z "},"Ṛ":{"ha":847,"x_min":110,"x_max":831,"o":"m 110 0 m 418 972 q 676 908 592 972 q 760 717 760 844 q 717 578 760 636 q 599 490 674 519 l 599 485 q 657 435 629 474 q 707 340 685 397 l 824 47 q 831 24 831 29 q 756 -3 831 -3 l 715 -3 q 643 24 653 -3 l 535 296 q 476 375 510 353 q 371 397 442 397 l 290 397 l 290 36 q 217 -3 290 -3 l 183 -3 q 110 36 110 -3 l 110 922 q 122 960 110 949 q 161 972 135 972 l 418 972 m 290 818 l 290 554 l 442 554 q 535 594 496 554 q 574 692 574 635 q 535 785 574 753 q 432 818 497 818 l 290 818 m 428 -111 q 500 -150 500 -111 l 500 -229 q 425 -268 500 -268 q 370 -258 388 -268 q 353 -229 353 -249 l 353 -150 q 428 -111 353 -111 z "},"S":{"ha":694,"x_min":38,"x_max":663,"o":"m 379 982 q 494 969 439 982 q 585 935 550 956 q 619 890 619 914 q 597 826 619 865 q 554 786 574 786 q 528 796 550 786 q 467 819 499 810 q 390 828 435 828 q 279 798 315 828 q 243 721 243 768 q 264 654 243 681 q 315 613 285 628 q 406 574 346 597 q 538 512 486 542 q 626 426 589 482 q 663 282 663 369 q 574 63 663 136 q 350 -10 485 -10 q 188 9 260 -10 q 77 55 117 28 q 38 104 38 82 q 51 147 38 122 q 81 192 64 172 q 111 211 99 211 q 144 197 119 211 q 229 159 188 174 q 328 144 271 144 q 433 174 390 144 q 476 265 476 204 q 454 329 476 303 q 399 373 432 356 q 307 415 367 390 q 264 433 272 429 q 157 492 200 461 q 85 576 114 524 q 57 710 57 629 q 101 859 57 797 q 217 951 144 921 q 379 982 290 982 z "},"Ś":{"ha":694,"x_min":38,"x_max":663,"o":"m 38 0 m 379 982 q 494 969 439 982 q 585 935 550 956 q 619 890 619 914 q 597 826 619 865 q 554 786 574 786 q 528 796 550 786 q 467 819 499 810 q 390 828 435 828 q 279 798 315 828 q 243 721 243 768 q 264 654 243 681 q 315 613 285 628 q 406 574 346 597 q 538 512 486 542 q 626 426 589 482 q 663 282 663 369 q 574 63 663 136 q 350 -10 485 -10 q 188 9 260 -10 q 77 55 117 28 q 38 104 38 82 q 51 147 38 122 q 81 192 64 172 q 111 211 99 211 q 144 197 119 211 q 229 159 188 174 q 328 144 271 144 q 433 174 390 144 q 476 265 476 204 q 454 329 476 303 q 399 373 432 356 q 307 415 367 390 q 264 433 272 429 q 157 492 200 461 q 85 576 114 524 q 57 710 57 629 q 101 859 57 797 q 217 951 144 921 q 379 982 290 982 m 458 1264 q 517 1260 499 1264 q 536 1246 536 1256 q 521 1219 536 1238 q 471 1161 506 1200 l 397 1081 q 304 1050 369 1050 q 274 1054 282 1050 q 265 1068 265 1058 q 275 1093 265 1075 q 301 1139 285 1111 q 353 1228 319 1168 q 458 1264 372 1264 z "},"Š":{"ha":694,"x_min":38,"x_max":663,"o":"m 38 0 m 379 982 q 494 969 439 982 q 585 935 550 956 q 619 890 619 914 q 597 826 619 865 q 554 786 574 786 q 528 796 550 786 q 467 819 499 810 q 390 828 435 828 q 279 798 315 828 q 243 721 243 768 q 264 654 243 681 q 315 613 285 628 q 406 574 346 597 q 538 512 486 542 q 626 426 589 482 q 663 282 663 369 q 574 63 663 136 q 350 -10 485 -10 q 188 9 260 -10 q 77 55 117 28 q 38 104 38 82 q 51 147 38 122 q 81 192 64 172 q 111 211 99 211 q 144 197 119 211 q 229 159 188 174 q 328 144 271 144 q 433 174 390 144 q 476 265 476 204 q 454 329 476 303 q 399 373 432 356 q 307 415 367 390 q 264 433 272 429 q 157 492 200 461 q 85 576 114 524 q 57 710 57 629 q 101 859 57 797 q 217 951 144 921 q 379 982 290 982 m 500 1246 q 531 1229 531 1246 q 522 1208 531 1221 l 436 1074 q 407 1051 425 1057 q 358 1046 389 1046 l 336 1046 q 288 1051 306 1046 q 260 1074 269 1057 l 174 1208 q 165 1231 165 1221 q 194 1246 165 1246 l 215 1246 q 260 1240 242 1246 q 292 1218 278 1233 l 347 1146 l 403 1218 q 481 1246 424 1246 l 500 1246 z "},"Ş":{"ha":694,"x_min":38,"x_max":663,"o":"m 663 282 q 585 74 663 147 q 388 -8 508 1 l 374 -56 q 453 -84 418 -60 q 488 -160 488 -108 q 324 -293 488 -293 q 206 -275 263 -293 q 150 -228 150 -257 q 163 -189 150 -203 q 188 -175 175 -175 q 229 -186 199 -175 q 310 -204 278 -204 q 360 -171 360 -204 q 349 -147 360 -156 q 315 -131 338 -139 q 288 -117 297 -124 q 279 -100 279 -111 q 294 -46 279 -92 l 306 -8 q 165 15 226 -4 q 71 58 104 33 q 38 104 38 83 q 51 147 38 122 q 81 192 64 172 q 111 211 99 211 q 144 197 119 211 q 229 159 188 174 q 328 144 271 144 q 433 174 390 144 q 476 265 476 204 q 454 329 476 303 q 399 373 432 356 q 307 415 367 390 q 264 433 272 429 q 157 492 200 461 q 85 576 114 524 q 57 710 57 629 q 101 859 57 797 q 217 951 144 921 q 379 982 290 982 q 494 969 439 982 q 585 935 550 956 q 619 890 619 914 q 597 826 619 865 q 554 786 574 786 q 528 796 550 786 q 467 819 499 810 q 390 828 435 828 q 279 798 315 828 q 243 721 243 768 q 264 654 243 681 q 315 613 285 628 q 406 574 346 597 q 538 512 486 542 q 626 426 589 482 q 663 282 663 369 z "},"Ŝ":{"ha":694,"x_min":38,"x_max":663,"o":"m 38 0 m 379 982 q 494 969 439 982 q 585 935 550 956 q 619 890 619 914 q 597 826 619 865 q 554 786 574 786 q 528 796 550 786 q 467 819 499 810 q 390 828 435 828 q 279 798 315 828 q 243 721 243 768 q 264 654 243 681 q 315 613 285 628 q 406 574 346 597 q 538 512 486 542 q 626 426 589 482 q 663 282 663 369 q 574 63 663 136 q 350 -10 485 -10 q 188 9 260 -10 q 77 55 117 28 q 38 104 38 82 q 51 147 38 122 q 81 192 64 172 q 111 211 99 211 q 144 197 119 211 q 229 159 188 174 q 328 144 271 144 q 433 174 390 144 q 476 265 476 204 q 454 329 476 303 q 399 373 432 356 q 307 415 367 390 q 264 433 272 429 q 157 492 200 461 q 85 576 114 524 q 57 710 57 629 q 101 859 57 797 q 217 951 144 921 q 379 982 290 982 m 358 1243 q 406 1238 388 1243 q 435 1215 424 1232 l 521 1081 q 529 1058 529 1068 q 500 1042 529 1042 l 479 1042 q 403 1069 425 1042 l 346 1143 l 290 1071 q 260 1048 278 1054 q 214 1042 242 1042 l 193 1042 q 164 1058 164 1042 q 172 1081 164 1068 l 258 1215 q 288 1238 269 1232 q 335 1243 306 1243 l 358 1243 z "},"Ș":{"ha":694,"x_min":38,"x_max":663,"o":"m 38 0 m 379 982 q 494 969 439 982 q 585 935 550 956 q 619 890 619 914 q 597 826 619 865 q 554 786 574 786 q 528 796 550 786 q 467 819 499 810 q 390 828 435 828 q 279 798 315 828 q 243 721 243 768 q 264 654 243 681 q 315 613 285 628 q 406 574 346 597 q 538 512 486 542 q 626 426 589 482 q 663 282 663 369 q 574 63 663 136 q 350 -10 485 -10 q 188 9 260 -10 q 77 55 117 28 q 38 104 38 82 q 51 147 38 122 q 81 192 64 172 q 111 211 99 211 q 144 197 119 211 q 229 159 188 174 q 328 144 271 144 q 433 174 390 144 q 476 265 476 204 q 454 329 476 303 q 399 373 432 356 q 307 415 367 390 q 264 433 272 429 q 157 492 200 461 q 85 576 114 524 q 57 710 57 629 q 101 859 57 797 q 217 951 144 921 q 379 982 290 982 m 360 -71 q 407 -85 390 -71 q 424 -124 424 -100 q 398 -222 424 -174 q 337 -300 372 -269 q 276 -331 301 -331 q 240 -324 257 -331 q 222 -304 222 -317 q 227 -285 222 -296 q 233 -269 232 -274 q 257 -204 249 -235 q 265 -126 265 -174 q 283 -85 265 -100 q 339 -71 301 -71 l 360 -71 z "},"Ṣ":{"ha":694,"x_min":38,"x_max":663,"o":"m 38 0 m 379 982 q 494 969 439 982 q 585 935 550 956 q 619 890 619 914 q 597 826 619 865 q 554 786 574 786 q 528 796 550 786 q 467 819 499 810 q 390 828 435 828 q 279 798 315 828 q 243 721 243 768 q 264 654 243 681 q 315 613 285 628 q 406 574 346 597 q 538 512 486 542 q 626 426 589 482 q 663 282 663 369 q 574 63 663 136 q 350 -10 485 -10 q 188 9 260 -10 q 77 55 117 28 q 38 104 38 82 q 51 147 38 122 q 81 192 64 172 q 111 211 99 211 q 144 197 119 211 q 229 159 188 174 q 328 144 271 144 q 433 174 390 144 q 476 265 476 204 q 454 329 476 303 q 399 373 432 356 q 307 415 367 390 q 264 433 272 429 q 157 492 200 461 q 85 576 114 524 q 57 710 57 629 q 101 859 57 797 q 217 951 144 921 q 379 982 290 982 m 351 -111 q 424 -150 424 -111 l 424 -229 q 349 -268 424 -268 q 294 -258 311 -268 q 276 -229 276 -249 l 276 -150 q 351 -111 276 -111 z "},"ẞ":{"ha":972,"x_min":104,"x_max":931,"o":"m 697 565 q 867 469 804 535 q 931 283 931 404 q 889 123 931 189 q 776 24 847 57 q 621 -10 706 -10 q 456 17 532 -10 q 369 92 379 44 q 391 149 369 114 q 431 183 413 183 q 451 178 440 183 q 475 165 463 172 q 533 139 506 149 q 597 129 560 129 q 708 168 663 129 q 753 285 753 207 q 578 442 753 442 l 536 442 q 506 481 522 442 q 490 547 490 521 q 493 563 490 554 l 657 813 q 493 828 581 828 q 337 771 388 828 q 286 597 286 714 l 286 36 q 213 -3 286 -3 l 178 -3 q 104 36 104 -3 l 104 599 q 202 885 104 788 q 490 982 300 982 q 831 949 658 982 q 858 907 843 947 q 874 840 874 867 q 871 828 874 831 l 697 565 z "},"Ə":{"ha":933,"x_min":57,"x_max":822,"o":"m 421 -6 q 147 116 236 -6 q 57 443 57 238 q 81 487 57 458 q 118 515 104 515 l 642 515 q 574 768 631 693 q 407 843 517 843 q 286 826 340 843 q 182 782 232 808 q 143 767 149 767 q 102 803 125 767 q 79 858 79 839 q 133 922 79 893 q 265 966 186 950 q 413 982 343 982 q 722 849 621 982 q 822 461 822 715 q 717 109 822 224 q 421 -6 613 -6 m 422 135 q 642 392 617 135 l 229 392 q 277 201 229 268 q 422 135 325 135 z "},"T":{"ha":763,"x_min":17,"x_max":746,"o":"m 708 972 q 737 958 728 972 q 746 913 746 944 l 746 878 q 737 832 746 846 q 708 818 728 818 l 472 818 l 472 36 q 400 -3 472 -3 l 364 -3 q 292 36 292 -3 l 292 818 l 54 818 q 26 832 35 818 q 17 878 17 846 l 17 913 q 26 958 17 944 q 54 972 35 972 l 708 972 z "},"Ŧ":{"ha":763,"x_min":17,"x_max":746,"o":"m 708 972 q 737 958 728 972 q 746 913 746 944 l 746 878 q 737 832 746 846 q 708 818 728 818 l 472 818 l 472 547 l 635 547 q 663 535 654 547 q 672 497 672 524 l 672 479 q 663 440 672 451 q 635 428 654 428 l 472 428 l 472 36 q 400 -3 472 -3 l 364 -3 q 292 36 292 -3 l 292 428 l 139 428 q 110 440 119 428 q 101 479 101 451 l 101 497 q 110 535 101 524 q 139 547 119 547 l 292 547 l 292 818 l 54 818 q 26 832 35 818 q 17 878 17 846 l 17 913 q 26 958 17 944 q 54 972 35 972 l 708 972 z "},"Ť":{"ha":763,"x_min":17,"x_max":746,"o":"m 17 0 m 708 972 q 737 958 728 972 q 746 913 746 944 l 746 878 q 737 832 746 846 q 708 818 728 818 l 472 818 l 472 36 q 400 -3 472 -3 l 364 -3 q 292 36 292 -3 l 292 818 l 54 818 q 26 832 35 818 q 17 878 17 846 l 17 913 q 26 958 17 944 q 54 972 35 972 l 708 972 m 535 1246 q 565 1229 565 1246 q 557 1208 565 1221 l 471 1074 q 442 1051 460 1057 q 393 1046 424 1046 l 371 1046 q 322 1051 340 1046 q 294 1074 304 1057 l 208 1208 q 200 1231 200 1221 q 229 1246 200 1246 l 250 1246 q 294 1240 276 1246 q 326 1218 313 1233 l 382 1146 l 438 1218 q 515 1246 458 1246 l 535 1246 z "},"Ţ":{"ha":763,"x_min":17,"x_max":746,"o":"m 708 972 q 737 958 728 972 q 746 913 746 944 l 746 878 q 737 832 746 846 q 708 818 728 818 l 472 818 l 472 36 q 424 -1 472 4 l 408 -56 q 488 -84 453 -60 q 522 -160 522 -108 q 358 -293 522 -293 q 241 -275 297 -293 q 185 -228 185 -257 q 197 -189 185 -203 q 222 -175 210 -175 q 264 -186 233 -175 q 344 -204 313 -204 q 394 -171 394 -204 q 383 -147 394 -156 q 350 -131 372 -139 q 323 -117 332 -124 q 314 -100 314 -111 q 321 -72 314 -94 q 343 -1 328 -50 q 292 36 292 3 l 292 818 l 54 818 q 26 832 35 818 q 17 878 17 846 l 17 913 q 26 958 17 944 q 54 972 35 972 l 708 972 z "},"Ț":{"ha":763,"x_min":17,"x_max":746,"o":"m 17 0 m 708 972 q 737 958 728 972 q 746 913 746 944 l 746 878 q 737 832 746 846 q 708 818 728 818 l 472 818 l 472 36 q 400 -3 472 -3 l 364 -3 q 292 36 292 -3 l 292 818 l 54 818 q 26 832 35 818 q 17 878 17 846 l 17 913 q 26 958 17 944 q 54 972 35 972 l 708 972 m 394 -71 q 442 -85 425 -71 q 458 -124 458 -100 q 433 -222 458 -174 q 372 -300 407 -269 q 311 -331 336 -331 q 274 -324 292 -331 q 257 -304 257 -317 q 262 -285 257 -296 q 268 -269 267 -274 q 292 -204 283 -235 q 300 -126 300 -174 q 318 -85 300 -100 q 374 -71 336 -71 l 394 -71 z "},"Ṭ":{"ha":763,"x_min":17,"x_max":746,"o":"m 17 0 m 708 972 q 737 958 728 972 q 746 913 746 944 l 746 878 q 737 832 746 846 q 708 818 728 818 l 472 818 l 472 36 q 400 -3 472 -3 l 364 -3 q 292 36 292 -3 l 292 818 l 54 818 q 26 832 35 818 q 17 878 17 846 l 17 913 q 26 958 17 944 q 54 972 35 972 l 708 972 m 386 -111 q 458 -150 458 -111 l 458 -229 q 383 -268 458 -268 q 328 -258 346 -268 q 311 -229 311 -249 l 311 -150 q 386 -111 311 -111 z "},"U":{"ha":989,"x_min":100,"x_max":889,"o":"m 815 975 q 889 936 889 975 l 889 319 q 785 76 889 163 q 494 -10 682 -10 q 203 76 306 -10 q 100 319 100 163 l 100 936 q 174 975 100 975 l 207 975 q 281 936 281 975 l 281 328 q 341 196 281 247 q 494 144 401 144 q 648 196 588 144 q 708 328 708 247 l 708 936 q 782 975 708 975 l 815 975 z "},"Ú":{"ha":989,"x_min":100,"x_max":889,"o":"m 100 0 m 815 975 q 889 936 889 975 l 889 319 q 785 76 889 163 q 494 -10 682 -10 q 203 76 306 -10 q 100 319 100 163 l 100 936 q 174 975 100 975 l 207 975 q 281 936 281 975 l 281 328 q 341 196 281 247 q 494 144 401 144 q 648 196 588 144 q 708 328 708 247 l 708 936 q 782 975 708 975 l 815 975 m 606 1264 q 665 1260 646 1264 q 683 1246 683 1256 q 668 1219 683 1238 q 618 1161 653 1200 l 544 1081 q 451 1050 517 1050 q 421 1054 429 1050 q 413 1068 413 1058 q 422 1093 413 1075 q 449 1139 432 1111 q 500 1228 467 1168 q 606 1264 519 1264 z "},"Ŭ":{"ha":989,"x_min":100,"x_max":889,"o":"m 100 0 m 815 975 q 889 936 889 975 l 889 319 q 785 76 889 163 q 494 -10 682 -10 q 203 76 306 -10 q 100 319 100 163 l 100 936 q 174 975 100 975 l 207 975 q 281 936 281 975 l 281 328 q 341 196 281 247 q 494 144 401 144 q 648 196 588 144 q 708 328 708 247 l 708 936 q 782 975 708 975 l 815 975 m 658 1239 q 697 1207 697 1239 q 638 1095 697 1140 q 494 1050 579 1050 q 350 1095 408 1050 q 292 1207 292 1140 q 329 1239 292 1239 q 351 1233 344 1239 q 369 1210 358 1226 q 494 1164 403 1164 q 619 1213 586 1164 q 637 1233 631 1228 q 658 1239 643 1239 z "},"Û":{"ha":989,"x_min":100,"x_max":889,"o":"m 100 0 m 815 975 q 889 936 889 975 l 889 319 q 785 76 889 163 q 494 -10 682 -10 q 203 76 306 -10 q 100 319 100 163 l 100 936 q 174 975 100 975 l 207 975 q 281 936 281 975 l 281 328 q 341 196 281 247 q 494 144 401 144 q 648 196 588 144 q 708 328 708 247 l 708 936 q 782 975 708 975 l 815 975 m 506 1243 q 553 1238 535 1243 q 582 1215 571 1232 l 668 1081 q 676 1058 676 1068 q 647 1042 676 1042 l 626 1042 q 550 1069 572 1042 l 493 1143 l 438 1071 q 407 1048 425 1054 q 361 1042 389 1042 l 340 1042 q 311 1058 311 1042 q 319 1081 311 1068 l 406 1215 q 435 1238 417 1232 q 482 1243 453 1243 l 506 1243 z "},"Ü":{"ha":989,"x_min":100,"x_max":889,"o":"m 100 0 m 815 975 q 889 936 889 975 l 889 319 q 785 76 889 163 q 494 -10 682 -10 q 203 76 306 -10 q 100 319 100 163 l 100 936 q 174 975 100 975 l 207 975 q 281 936 281 975 l 281 328 q 341 196 281 247 q 494 144 401 144 q 648 196 588 144 q 708 328 708 247 l 708 936 q 782 975 708 975 l 815 975 m 379 1221 q 453 1182 453 1221 l 453 1103 q 378 1064 453 1064 q 322 1074 339 1064 q 304 1103 304 1083 l 304 1182 q 379 1221 304 1221 m 611 1221 q 685 1182 685 1221 l 685 1103 q 610 1064 685 1064 q 553 1074 571 1064 q 536 1103 536 1083 l 536 1182 q 611 1221 536 1221 z "},"Ụ":{"ha":989,"x_min":100,"x_max":889,"o":"m 100 0 m 815 975 q 889 936 889 975 l 889 319 q 785 76 889 163 q 494 -10 682 -10 q 203 76 306 -10 q 100 319 100 163 l 100 936 q 174 975 100 975 l 207 975 q 281 936 281 975 l 281 328 q 341 196 281 247 q 494 144 401 144 q 648 196 588 144 q 708 328 708 247 l 708 936 q 782 975 708 975 l 815 975 m 499 -111 q 571 -150 571 -111 l 571 -229 q 496 -268 571 -268 q 441 -258 458 -268 q 424 -229 424 -249 l 424 -150 q 499 -111 424 -111 z "},"Ù":{"ha":989,"x_min":100,"x_max":889,"o":"m 100 0 m 815 975 q 889 936 889 975 l 889 319 q 785 76 889 163 q 494 -10 682 -10 q 203 76 306 -10 q 100 319 100 163 l 100 936 q 174 975 100 975 l 207 975 q 281 936 281 975 l 281 328 q 341 196 281 247 q 494 144 401 144 q 648 196 588 144 q 708 328 708 247 l 708 936 q 782 975 708 975 l 815 975 m 394 1264 q 501 1228 479 1264 q 544 1153 497 1236 q 561 1124 550 1144 q 580 1088 572 1103 q 588 1068 588 1072 q 579 1054 588 1058 q 549 1050 571 1050 q 457 1081 485 1050 l 385 1160 q 333 1218 349 1199 q 317 1246 317 1238 q 335 1260 317 1256 q 394 1264 354 1264 z "},"Ủ":{"ha":989,"x_min":100,"x_max":889,"o":"m 100 0 m 815 975 q 889 936 889 975 l 889 319 q 785 76 889 163 q 494 -10 682 -10 q 203 76 306 -10 q 100 319 100 163 l 100 936 q 174 975 100 975 l 207 975 q 281 936 281 975 l 281 328 q 341 196 281 247 q 494 144 401 144 q 648 196 588 144 q 708 328 708 247 l 708 936 q 782 975 708 975 l 815 975 m 546 1175 q 532 1199 546 1190 q 499 1208 518 1208 q 459 1200 476 1208 q 438 1192 442 1192 q 415 1212 429 1192 q 400 1246 400 1232 q 437 1274 400 1260 q 510 1289 474 1289 q 614 1262 574 1289 q 654 1183 654 1235 q 627 1113 654 1147 q 567 1056 600 1078 q 519 1033 533 1033 q 477 1044 500 1033 q 454 1063 454 1054 q 466 1083 454 1072 q 492 1104 478 1093 q 532 1140 518 1125 q 546 1175 546 1156 z "},"Ư":{"ha":989,"x_min":100,"x_max":1022,"o":"m 1022 1049 q 990 964 1022 997 q 889 924 957 931 l 889 319 q 785 76 889 163 q 494 -10 682 -10 q 203 76 306 -10 q 100 319 100 163 l 100 936 q 174 975 100 975 l 207 975 q 281 936 281 975 l 281 328 q 341 196 281 247 q 494 144 401 144 q 648 196 588 144 q 708 328 708 247 l 708 936 q 782 975 708 975 l 851 975 q 921 1024 921 975 q 916 1049 922 1038 q 899 1076 910 1060 q 885 1101 885 1096 q 899 1125 885 1117 l 939 1153 q 958 1160 947 1160 q 1003 1122 983 1160 q 1022 1049 1022 1083 z "},"Ứ":{"ha":989,"x_min":100,"x_max":1022,"o":"m 451 1050 q 421 1054 429 1050 q 413 1068 413 1058 q 422 1093 413 1075 q 449 1139 432 1111 q 500 1228 467 1168 q 606 1264 519 1264 q 665 1260 646 1264 q 683 1246 683 1256 q 668 1219 683 1238 q 618 1161 653 1200 l 544 1081 q 451 1050 517 1050 m 1022 1049 q 990 964 1022 997 q 889 924 957 931 l 889 319 q 785 76 889 163 q 494 -10 682 -10 q 203 76 306 -10 q 100 319 100 163 l 100 936 q 174 975 100 975 l 207 975 q 281 936 281 975 l 281 328 q 341 196 281 247 q 494 144 401 144 q 648 196 588 144 q 708 328 708 247 l 708 936 q 782 975 708 975 l 851 975 q 921 1024 921 975 q 916 1049 922 1038 q 899 1076 910 1060 q 885 1101 885 1096 q 899 1125 885 1117 l 939 1153 q 958 1160 947 1160 q 1003 1122 983 1160 q 1022 1049 1022 1083 z "},"Ự":{"ha":989,"x_min":100,"x_max":1022,"o":"m 1022 1049 q 990 964 1022 997 q 889 924 957 931 l 889 319 q 785 76 889 163 q 494 -10 682 -10 q 203 76 306 -10 q 100 319 100 163 l 100 936 q 174 975 100 975 l 207 975 q 281 936 281 975 l 281 328 q 341 196 281 247 q 494 144 401 144 q 648 196 588 144 q 708 328 708 247 l 708 936 q 782 975 708 975 l 851 975 q 921 1024 921 975 q 916 1049 922 1038 q 899 1076 910 1060 q 885 1101 885 1096 q 899 1125 885 1117 l 939 1153 q 958 1160 947 1160 q 1003 1122 983 1160 q 1022 1049 1022 1083 m 499 -111 q 571 -150 571 -111 l 571 -229 q 496 -268 571 -268 q 441 -258 458 -268 q 424 -229 424 -249 l 424 -150 q 499 -111 424 -111 z "},"Ừ":{"ha":989,"x_min":100,"x_max":1022,"o":"m 549 1050 q 457 1081 485 1050 l 385 1160 q 333 1218 349 1199 q 317 1246 317 1238 q 335 1260 317 1256 q 394 1264 354 1264 q 501 1228 479 1264 q 544 1153 497 1236 q 561 1124 550 1144 q 580 1088 572 1103 q 588 1068 588 1072 q 579 1054 588 1058 q 549 1050 571 1050 m 1022 1049 q 990 964 1022 997 q 889 924 957 931 l 889 319 q 785 76 889 163 q 494 -10 682 -10 q 203 76 306 -10 q 100 319 100 163 l 100 936 q 174 975 100 975 l 207 975 q 281 936 281 975 l 281 328 q 341 196 281 247 q 494 144 401 144 q 648 196 588 144 q 708 328 708 247 l 708 936 q 782 975 708 975 l 851 975 q 921 1024 921 975 q 916 1049 922 1038 q 899 1076 910 1060 q 885 1101 885 1096 q 899 1125 885 1117 l 939 1153 q 958 1160 947 1160 q 1003 1122 983 1160 q 1022 1049 1022 1083 z "},"Ử":{"ha":989,"x_min":100,"x_max":1022,"o":"m 438 1192 q 415 1212 429 1192 q 400 1246 400 1232 q 437 1274 400 1260 q 510 1289 474 1289 q 614 1262 574 1289 q 654 1183 654 1235 q 627 1113 654 1147 q 567 1056 600 1078 q 519 1033 533 1033 q 477 1044 500 1033 q 454 1063 454 1054 q 466 1083 454 1072 q 492 1104 478 1093 q 532 1140 518 1125 q 546 1175 546 1156 q 532 1199 546 1190 q 499 1208 518 1208 q 459 1200 476 1208 q 438 1192 442 1192 m 1022 1049 q 990 964 1022 997 q 889 924 957 931 l 889 319 q 785 76 889 163 q 494 -10 682 -10 q 203 76 306 -10 q 100 319 100 163 l 100 936 q 174 975 100 975 l 207 975 q 281 936 281 975 l 281 328 q 341 196 281 247 q 494 144 401 144 q 648 196 588 144 q 708 328 708 247 l 708 936 q 782 975 708 975 l 851 975 q 921 1024 921 975 q 916 1049 922 1038 q 899 1076 910 1060 q 885 1101 885 1096 q 899 1125 885 1117 l 939 1153 q 958 1160 947 1160 q 1003 1122 983 1160 q 1022 1049 1022 1083 z "},"Ữ":{"ha":989,"x_min":100,"x_max":1022,"o":"m 263 1063 q 238 1093 238 1071 q 242 1111 238 1103 q 297 1182 260 1156 q 385 1208 333 1208 q 438 1200 406 1208 q 503 1182 471 1192 q 597 1160 569 1161 q 649 1189 628 1160 q 683 1211 667 1211 q 700 1208 689 1211 l 714 1204 q 739 1175 739 1196 q 735 1156 739 1167 q 681 1084 718 1110 q 593 1058 644 1058 q 474 1083 557 1058 q 421 1099 447 1092 q 379 1106 394 1106 q 329 1076 350 1106 q 293 1054 311 1054 q 278 1057 289 1054 l 263 1063 m 1022 1049 q 990 964 1022 997 q 889 924 957 931 l 889 319 q 785 76 889 163 q 494 -10 682 -10 q 203 76 306 -10 q 100 319 100 163 l 100 936 q 174 975 100 975 l 207 975 q 281 936 281 975 l 281 328 q 341 196 281 247 q 494 144 401 144 q 648 196 588 144 q 708 328 708 247 l 708 936 q 782 975 708 975 l 851 975 q 921 1024 921 975 q 916 1049 922 1038 q 899 1076 910 1060 q 885 1101 885 1096 q 899 1125 885 1117 l 939 1153 q 958 1160 947 1160 q 1003 1122 983 1160 q 1022 1049 1022 1083 z "},"Ű":{"ha":989,"x_min":100,"x_max":889,"o":"m 100 0 m 815 975 q 889 936 889 975 l 889 319 q 785 76 889 163 q 494 -10 682 -10 q 203 76 306 -10 q 100 319 100 163 l 100 936 q 174 975 100 975 l 207 975 q 281 936 281 975 l 281 328 q 341 196 281 247 q 494 144 401 144 q 648 196 588 144 q 708 328 708 247 l 708 936 q 782 975 708 975 l 815 975 m 494 1264 q 554 1260 536 1264 q 572 1246 572 1256 q 557 1219 572 1238 q 507 1161 542 1200 l 433 1081 q 340 1050 406 1050 q 310 1054 318 1050 q 301 1068 301 1058 q 311 1093 301 1075 q 338 1139 321 1111 q 389 1228 356 1168 q 494 1264 408 1264 m 731 1264 q 790 1260 771 1264 q 808 1246 808 1256 q 793 1219 808 1238 q 743 1161 778 1200 l 669 1081 q 576 1050 642 1050 q 546 1054 554 1050 q 538 1068 538 1058 q 547 1093 538 1075 q 574 1139 557 1111 q 625 1228 592 1168 q 731 1264 644 1264 z "},"Ū":{"ha":989,"x_min":100,"x_max":889,"o":"m 100 0 m 815 975 q 889 936 889 975 l 889 319 q 785 76 889 163 q 494 -10 682 -10 q 203 76 306 -10 q 100 319 100 163 l 100 936 q 174 975 100 975 l 207 975 q 281 936 281 975 l 281 328 q 341 196 281 247 q 494 144 401 144 q 648 196 588 144 q 708 328 708 247 l 708 936 q 782 975 708 975 l 815 975 m 644 1201 q 673 1190 664 1201 q 682 1151 682 1178 l 682 1133 q 673 1094 682 1106 q 644 1082 664 1082 l 343 1082 q 315 1094 324 1082 q 306 1133 306 1106 l 306 1151 q 315 1190 306 1178 q 343 1201 324 1201 l 644 1201 z "},"Ų":{"ha":989,"x_min":100,"x_max":889,"o":"m 815 975 q 889 936 889 975 l 889 319 q 817 108 889 190 q 613 0 746 25 l 613 -6 q 607 -33 613 -11 q 597 -86 597 -65 q 622 -144 597 -131 q 683 -157 647 -157 q 722 -150 704 -157 q 753 -144 742 -144 q 782 -182 782 -144 q 751 -239 782 -224 q 668 -254 719 -254 q 538 -208 571 -254 q 504 -112 504 -162 q 510 -59 504 -89 q 531 -8 515 -29 q 494 -10 519 -10 q 203 76 306 -10 q 100 319 100 163 l 100 936 q 174 975 100 975 l 207 975 q 281 936 281 975 l 281 328 q 341 196 281 247 q 494 144 401 144 q 648 196 588 144 q 708 328 708 247 l 708 936 q 782 975 708 975 l 815 975 z "},"Ů":{"ha":989,"x_min":100,"x_max":889,"o":"m 100 0 m 815 975 q 889 936 889 975 l 889 319 q 785 76 889 163 q 494 -10 682 -10 q 203 76 306 -10 q 100 319 100 163 l 100 936 q 174 975 100 975 l 207 975 q 281 936 281 975 l 281 328 q 341 196 281 247 q 494 144 401 144 q 648 196 588 144 q 708 328 708 247 l 708 936 q 782 975 708 975 l 815 975 m 493 1278 q 587 1240 549 1278 q 625 1147 625 1201 q 587 1054 625 1092 q 493 1017 549 1017 q 400 1054 438 1017 q 363 1147 363 1092 q 400 1240 363 1201 q 493 1278 438 1278 m 493 1204 q 453 1187 469 1204 q 436 1146 436 1169 q 453 1106 436 1122 q 493 1089 469 1089 q 534 1106 517 1089 q 551 1146 551 1122 q 534 1187 551 1169 q 493 1204 517 1204 z "},"Ũ":{"ha":989,"x_min":100,"x_max":889,"o":"m 100 0 m 815 975 q 889 936 889 975 l 889 319 q 785 76 889 163 q 494 -10 682 -10 q 203 76 306 -10 q 100 319 100 163 l 100 936 q 174 975 100 975 l 207 975 q 281 936 281 975 l 281 328 q 341 196 281 247 q 494 144 401 144 q 648 196 588 144 q 708 328 708 247 l 708 936 q 782 975 708 975 l 815 975 m 385 1208 q 438 1200 406 1208 q 503 1182 471 1192 q 597 1160 569 1161 q 649 1189 628 1160 q 683 1211 667 1211 q 700 1208 689 1211 l 714 1204 q 739 1175 739 1196 q 735 1156 739 1167 q 681 1084 718 1110 q 593 1058 644 1058 q 474 1083 557 1058 q 421 1099 447 1092 q 379 1106 394 1106 q 329 1076 350 1106 q 293 1054 311 1054 q 278 1057 289 1054 l 263 1063 q 238 1093 238 1071 q 242 1111 238 1103 q 297 1182 260 1156 q 385 1208 333 1208 z "},"V":{"ha":857,"x_min":15,"x_max":839,"o":"m 764 975 q 839 947 839 975 q 835 924 839 939 l 528 24 q 458 -3 518 -3 l 396 -3 q 326 24 336 -3 l 19 925 q 15 947 15 938 q 90 975 15 975 l 125 975 q 197 942 186 975 l 410 289 l 424 232 l 429 232 l 444 289 l 661 942 q 733 975 672 975 l 764 975 z "},"W":{"ha":1225,"x_min":4,"x_max":1221,"o":"m 1144 975 q 1221 943 1221 975 l 1218 924 l 986 24 q 964 4 982 11 q 918 -3 946 -3 l 832 -3 q 785 4 804 -3 q 764 24 767 11 l 636 535 l 611 661 l 586 535 l 456 24 q 433 4 451 11 q 386 -3 414 -3 l 303 -3 q 233 24 239 -3 l 7 924 q 4 943 4 938 q 81 975 4 975 l 108 975 q 188 939 179 975 l 318 407 l 343 292 l 356 232 q 397 408 365 285 l 531 947 q 599 975 538 975 l 640 975 q 708 947 703 975 l 842 406 l 865 300 l 881 226 l 900 311 l 922 407 l 1053 939 q 1132 975 1061 975 l 1144 975 z "},"Ẃ":{"ha":1225,"x_min":4,"x_max":1221,"o":"m 4 0 m 1144 975 q 1221 943 1221 975 l 1218 924 l 986 24 q 964 4 982 11 q 918 -3 946 -3 l 832 -3 q 785 4 804 -3 q 764 24 767 11 l 636 535 l 611 661 l 586 535 l 456 24 q 433 4 451 11 q 386 -3 414 -3 l 303 -3 q 233 24 239 -3 l 7 924 q 4 943 4 938 q 81 975 4 975 l 108 975 q 188 939 179 975 l 318 407 l 343 292 l 356 232 q 397 408 365 285 l 531 947 q 599 975 538 975 l 640 975 q 708 947 703 975 l 842 406 l 865 300 l 881 226 l 900 311 l 922 407 l 1053 939 q 1132 975 1061 975 l 1144 975 m 724 1264 q 783 1260 764 1264 q 801 1246 801 1256 q 786 1219 801 1238 q 736 1161 771 1200 l 663 1081 q 569 1050 635 1050 q 539 1054 547 1050 q 531 1068 531 1058 q 540 1093 531 1075 q 567 1139 550 1111 q 618 1228 585 1168 q 724 1264 638 1264 z "},"Ŵ":{"ha":1225,"x_min":4,"x_max":1221,"o":"m 4 0 m 1144 975 q 1221 943 1221 975 l 1218 924 l 986 24 q 964 4 982 11 q 918 -3 946 -3 l 832 -3 q 785 4 804 -3 q 764 24 767 11 l 636 535 l 611 661 l 586 535 l 456 24 q 433 4 451 11 q 386 -3 414 -3 l 303 -3 q 233 24 239 -3 l 7 924 q 4 943 4 938 q 81 975 4 975 l 108 975 q 188 939 179 975 l 318 407 l 343 292 l 356 232 q 397 408 365 285 l 531 947 q 599 975 538 975 l 640 975 q 708 947 703 975 l 842 406 l 865 300 l 881 226 l 900 311 l 922 407 l 1053 939 q 1132 975 1061 975 l 1144 975 m 624 1243 q 671 1238 653 1243 q 700 1215 689 1232 l 786 1081 q 794 1058 794 1068 q 765 1042 794 1042 l 744 1042 q 668 1069 690 1042 l 611 1143 l 556 1071 q 525 1048 543 1054 q 479 1042 507 1042 l 458 1042 q 429 1058 429 1042 q 438 1081 429 1068 l 524 1215 q 553 1238 535 1232 q 600 1243 571 1243 l 624 1243 z "},"Ẅ":{"ha":1225,"x_min":4,"x_max":1221,"o":"m 4 0 m 1144 975 q 1221 943 1221 975 l 1218 924 l 986 24 q 964 4 982 11 q 918 -3 946 -3 l 832 -3 q 785 4 804 -3 q 764 24 767 11 l 636 535 l 611 661 l 586 535 l 456 24 q 433 4 451 11 q 386 -3 414 -3 l 303 -3 q 233 24 239 -3 l 7 924 q 4 943 4 938 q 81 975 4 975 l 108 975 q 188 939 179 975 l 318 407 l 343 292 l 356 232 q 397 408 365 285 l 531 947 q 599 975 538 975 l 640 975 q 708 947 703 975 l 842 406 l 865 300 l 881 226 l 900 311 l 922 407 l 1053 939 q 1132 975 1061 975 l 1144 975 m 497 1221 q 571 1182 571 1221 l 571 1103 q 496 1064 571 1064 q 440 1074 457 1064 q 422 1103 422 1083 l 422 1182 q 497 1221 422 1221 m 729 1221 q 803 1182 803 1221 l 803 1103 q 728 1064 803 1064 q 672 1074 689 1064 q 654 1103 654 1083 l 654 1182 q 729 1221 654 1221 z "},"Ẁ":{"ha":1225,"x_min":4,"x_max":1221,"o":"m 4 0 m 1144 975 q 1221 943 1221 975 l 1218 924 l 986 24 q 964 4 982 11 q 918 -3 946 -3 l 832 -3 q 785 4 804 -3 q 764 24 767 11 l 636 535 l 611 661 l 586 535 l 456 24 q 433 4 451 11 q 386 -3 414 -3 l 303 -3 q 233 24 239 -3 l 7 924 q 4 943 4 938 q 81 975 4 975 l 108 975 q 188 939 179 975 l 318 407 l 343 292 l 356 232 q 397 408 365 285 l 531 947 q 599 975 538 975 l 640 975 q 708 947 703 975 l 842 406 l 865 300 l 881 226 l 900 311 l 922 407 l 1053 939 q 1132 975 1061 975 l 1144 975 m 513 1264 q 619 1228 597 1264 q 663 1153 615 1236 q 679 1124 668 1144 q 698 1088 690 1103 q 706 1068 706 1072 q 697 1054 706 1058 q 667 1050 689 1050 q 575 1081 603 1050 l 503 1160 q 451 1218 467 1199 q 435 1246 435 1238 q 453 1260 435 1256 q 513 1264 472 1264 z "},"X":{"ha":849,"x_min":17,"x_max":832,"o":"m 732 975 q 811 950 811 975 q 797 918 811 939 l 529 508 l 819 54 q 832 22 832 36 q 753 -3 832 -3 l 711 -3 q 636 22 650 -3 l 425 350 l 210 21 q 182 2 200 7 q 133 -3 164 -3 l 96 -3 q 17 22 17 -3 q 31 54 17 35 l 325 507 l 63 918 q 50 950 50 938 q 129 975 50 975 l 172 975 q 247 950 233 975 l 429 664 l 618 951 q 646 970 628 965 q 694 975 664 975 l 732 975 z "},"Y":{"ha":776,"x_min":4,"x_max":772,"o":"m 697 975 q 772 949 772 975 q 761 918 772 938 l 479 474 l 479 36 q 406 -3 479 -3 l 371 -3 q 299 36 299 -3 l 299 478 l 17 918 q 4 949 4 938 q 83 975 4 975 l 128 975 q 201 950 188 975 l 393 638 l 586 951 q 663 975 600 975 l 697 975 z "},"Ý":{"ha":776,"x_min":4,"x_max":772,"o":"m 4 0 m 697 975 q 772 949 772 975 q 761 918 772 938 l 479 474 l 479 36 q 406 -3 479 -3 l 371 -3 q 299 36 299 -3 l 299 478 l 17 918 q 4 949 4 938 q 83 975 4 975 l 128 975 q 201 950 188 975 l 393 638 l 586 951 q 663 975 600 975 l 697 975 m 500 1264 q 559 1260 540 1264 q 578 1246 578 1256 q 563 1219 578 1238 q 513 1161 547 1200 l 439 1081 q 346 1050 411 1050 q 315 1054 324 1050 q 307 1068 307 1058 q 317 1093 307 1075 q 343 1139 326 1111 q 394 1228 361 1168 q 500 1264 414 1264 z "},"Ŷ":{"ha":776,"x_min":4,"x_max":772,"o":"m 4 0 m 697 975 q 772 949 772 975 q 761 918 772 938 l 479 474 l 479 36 q 406 -3 479 -3 l 371 -3 q 299 36 299 -3 l 299 478 l 17 918 q 4 949 4 938 q 83 975 4 975 l 128 975 q 201 950 188 975 l 393 638 l 586 951 q 663 975 600 975 l 697 975 m 400 1243 q 447 1238 429 1243 q 476 1215 465 1232 l 563 1081 q 571 1058 571 1068 q 542 1042 571 1042 l 521 1042 q 444 1069 467 1042 l 388 1143 l 332 1071 q 301 1048 319 1054 q 256 1042 283 1042 l 235 1042 q 206 1058 206 1042 q 214 1081 206 1068 l 300 1215 q 329 1238 311 1232 q 376 1243 347 1243 l 400 1243 z "},"Ÿ":{"ha":776,"x_min":4,"x_max":772,"o":"m 4 0 m 697 975 q 772 949 772 975 q 761 918 772 938 l 479 474 l 479 36 q 406 -3 479 -3 l 371 -3 q 299 36 299 -3 l 299 478 l 17 918 q 4 949 4 938 q 83 975 4 975 l 128 975 q 201 950 188 975 l 393 638 l 586 951 q 663 975 600 975 l 697 975 m 274 1221 q 347 1182 347 1221 l 347 1103 q 272 1064 347 1064 q 216 1074 233 1064 q 199 1103 199 1083 l 199 1182 q 274 1221 199 1221 m 506 1221 q 579 1182 579 1221 l 579 1103 q 504 1064 579 1064 q 448 1074 465 1064 q 431 1103 431 1083 l 431 1182 q 506 1221 431 1221 z "},"Ỵ":{"ha":776,"x_min":4,"x_max":772,"o":"m 4 0 m 697 975 q 772 949 772 975 q 761 918 772 938 l 479 474 l 479 36 q 406 -3 479 -3 l 371 -3 q 299 36 299 -3 l 299 478 l 17 918 q 4 949 4 938 q 83 975 4 975 l 128 975 q 201 950 188 975 l 393 638 l 586 951 q 663 975 600 975 l 697 975 m 394 -111 q 467 -150 467 -111 l 467 -229 q 392 -268 467 -268 q 337 -258 354 -268 q 319 -229 319 -249 l 319 -150 q 394 -111 319 -111 z "},"Ỳ":{"ha":776,"x_min":4,"x_max":772,"o":"m 4 0 m 697 975 q 772 949 772 975 q 761 918 772 938 l 479 474 l 479 36 q 406 -3 479 -3 l 371 -3 q 299 36 299 -3 l 299 478 l 17 918 q 4 949 4 938 q 83 975 4 975 l 128 975 q 201 950 188 975 l 393 638 l 586 951 q 663 975 600 975 l 697 975 m 289 1264 q 396 1228 374 1264 q 439 1153 392 1236 q 456 1124 444 1144 q 474 1088 467 1103 q 482 1068 482 1072 q 474 1054 482 1058 q 443 1050 465 1050 q 351 1081 379 1050 l 279 1160 q 227 1218 243 1199 q 211 1246 211 1238 q 230 1260 211 1256 q 289 1264 249 1264 z "},"Ỷ":{"ha":776,"x_min":4,"x_max":772,"o":"m 4 0 m 697 975 q 772 949 772 975 q 761 918 772 938 l 479 474 l 479 36 q 406 -3 479 -3 l 371 -3 q 299 36 299 -3 l 299 478 l 17 918 q 4 949 4 938 q 83 975 4 975 l 128 975 q 201 950 188 975 l 393 638 l 586 951 q 663 975 600 975 l 697 975 m 440 1175 q 426 1199 440 1190 q 393 1208 413 1208 q 353 1200 371 1208 q 332 1192 336 1192 q 309 1212 324 1192 q 294 1246 294 1232 q 331 1274 294 1260 q 404 1289 368 1289 q 508 1262 468 1289 q 549 1183 549 1235 q 522 1113 549 1147 q 461 1056 494 1078 q 414 1033 428 1033 q 372 1044 394 1033 q 349 1063 349 1054 q 360 1083 349 1072 q 386 1104 372 1093 q 426 1140 413 1125 q 440 1175 440 1156 z "},"Ỹ":{"ha":776,"x_min":4,"x_max":772,"o":"m 4 0 m 697 975 q 772 949 772 975 q 761 918 772 938 l 479 474 l 479 36 q 406 -3 479 -3 l 371 -3 q 299 36 299 -3 l 299 478 l 17 918 q 4 949 4 938 q 83 975 4 975 l 128 975 q 201 950 188 975 l 393 638 l 586 951 q 663 975 600 975 l 697 975 m 279 1208 q 333 1200 300 1208 q 397 1182 365 1192 q 492 1160 464 1161 q 543 1189 522 1160 q 578 1211 561 1211 q 594 1208 583 1211 l 608 1204 q 633 1175 633 1196 q 629 1156 633 1167 q 576 1084 613 1110 q 488 1058 539 1058 q 368 1083 451 1058 q 315 1099 342 1092 q 274 1106 289 1106 q 224 1076 244 1106 q 188 1054 206 1054 q 172 1057 183 1054 l 157 1063 q 132 1093 132 1071 q 136 1111 132 1103 q 191 1182 154 1156 q 279 1208 228 1208 z "},"Z":{"ha":856,"x_min":43,"x_max":801,"o":"m 757 972 q 785 931 769 972 q 801 864 801 890 q 799 851 801 857 l 296 154 l 764 154 q 792 140 783 154 q 800 93 800 125 l 800 61 q 792 15 800 29 q 764 0 783 0 l 90 0 q 59 39 75 0 q 43 106 43 78 q 46 121 43 113 l 550 818 l 122 818 q 94 833 103 818 q 85 879 85 847 l 85 911 q 94 958 85 943 q 122 972 103 972 l 757 972 z "},"Ź":{"ha":856,"x_min":43,"x_max":801,"o":"m 43 0 m 757 972 q 785 931 769 972 q 801 864 801 890 q 799 851 801 857 l 296 154 l 764 154 q 792 140 783 154 q 800 93 800 125 l 800 61 q 792 15 800 29 q 764 0 783 0 l 90 0 q 59 39 75 0 q 43 106 43 78 q 46 121 43 113 l 550 818 l 122 818 q 94 833 103 818 q 85 879 85 847 l 85 911 q 94 958 85 943 q 122 972 103 972 l 757 972 m 539 1264 q 598 1260 579 1264 q 617 1246 617 1256 q 601 1219 617 1238 q 551 1161 586 1200 l 478 1081 q 385 1050 450 1050 q 354 1054 363 1050 q 346 1068 346 1058 q 356 1093 346 1075 q 382 1139 365 1111 q 433 1228 400 1168 q 539 1264 453 1264 z "},"Ž":{"ha":856,"x_min":43,"x_max":801,"o":"m 43 0 m 757 972 q 785 931 769 972 q 801 864 801 890 q 799 851 801 857 l 296 154 l 764 154 q 792 140 783 154 q 800 93 800 125 l 800 61 q 792 15 800 29 q 764 0 783 0 l 90 0 q 59 39 75 0 q 43 106 43 78 q 46 121 43 113 l 550 818 l 122 818 q 94 833 103 818 q 85 879 85 847 l 85 911 q 94 958 85 943 q 122 972 103 972 l 757 972 m 581 1246 q 611 1229 611 1246 q 603 1208 611 1221 l 517 1074 q 488 1051 506 1057 q 439 1046 469 1046 l 417 1046 q 368 1051 386 1046 q 340 1074 350 1057 l 254 1208 q 246 1231 246 1221 q 275 1246 246 1246 l 296 1246 q 340 1240 322 1246 q 372 1218 358 1233 l 428 1146 l 483 1218 q 561 1246 504 1246 l 581 1246 z "},"Ż":{"ha":856,"x_min":43,"x_max":801,"o":"m 43 0 m 757 972 q 785 931 769 972 q 801 864 801 890 q 799 851 801 857 l 296 154 l 764 154 q 792 140 783 154 q 800 93 800 125 l 800 61 q 792 15 800 29 q 764 0 783 0 l 90 0 q 59 39 75 0 q 43 106 43 78 q 46 121 43 113 l 550 818 l 122 818 q 94 833 103 818 q 85 879 85 847 l 85 911 q 94 958 85 943 q 122 972 103 972 l 757 972 m 429 1221 q 501 1182 501 1221 l 501 1103 q 426 1064 501 1064 q 372 1074 389 1064 q 354 1103 354 1083 l 354 1182 q 429 1221 354 1221 z "},"Ẓ":{"ha":856,"x_min":43,"x_max":801,"o":"m 43 0 m 757 972 q 785 931 769 972 q 801 864 801 890 q 799 851 801 857 l 296 154 l 764 154 q 792 140 783 154 q 800 93 800 125 l 800 61 q 792 15 800 29 q 764 0 783 0 l 90 0 q 59 39 75 0 q 43 106 43 78 q 46 121 43 113 l 550 818 l 122 818 q 94 833 103 818 q 85 879 85 847 l 85 911 q 94 958 85 943 q 122 972 103 972 l 757 972 m 429 -111 q 501 -150 501 -111 l 501 -229 q 426 -268 501 -268 q 372 -258 389 -268 q 354 -229 354 -249 l 354 -150 q 429 -111 354 -111 z "},"a":{"ha":757,"x_min":63,"x_max":674,"o":"m 367 736 q 585 676 514 736 q 657 510 657 617 l 657 231 q 665 92 657 135 q 674 39 674 49 q 628 9 674 19 q 547 -1 582 -1 q 515 19 525 -1 q 501 63 506 39 q 494 94 496 86 q 410 23 463 56 q 279 -10 357 -10 q 118 45 174 -10 q 63 194 63 100 q 483 451 63 450 l 483 504 q 358 597 483 597 q 267 585 307 597 q 199 560 228 574 q 167 547 171 547 q 126 585 149 547 q 103 643 103 624 q 138 687 103 665 q 235 722 174 708 q 367 736 296 736 m 483 329 q 303 302 368 328 q 238 211 238 276 q 260 152 238 174 q 325 131 282 131 q 415 156 374 131 q 483 221 456 181 l 483 329 z "},"á":{"ha":757,"x_min":63,"x_max":674,"o":"m 63 0 m 367 736 q 585 676 514 736 q 657 510 657 617 l 657 231 q 665 92 657 135 q 674 39 674 49 q 628 9 674 19 q 547 -1 582 -1 q 515 19 525 -1 q 501 63 506 39 q 494 94 496 86 q 410 23 463 56 q 279 -10 357 -10 q 118 45 174 -10 q 63 194 63 100 q 483 451 63 450 l 483 504 q 358 597 483 597 q 267 585 307 597 q 199 560 228 574 q 167 547 171 547 q 126 585 149 547 q 103 643 103 624 q 138 687 103 665 q 235 722 174 708 q 367 736 296 736 m 483 329 q 303 302 368 328 q 238 211 238 276 q 260 152 238 174 q 325 131 282 131 q 415 156 374 131 q 483 221 456 181 l 483 329 m 490 1018 q 549 1014 531 1018 q 568 1000 568 1010 q 553 973 568 992 q 503 915 538 954 l 429 835 q 336 804 401 804 q 306 808 314 804 q 297 822 297 813 q 307 847 297 829 q 333 893 317 865 q 385 982 351 922 q 490 1018 404 1018 z "},"ă":{"ha":757,"x_min":63,"x_max":674,"o":"m 63 0 m 367 736 q 585 676 514 736 q 657 510 657 617 l 657 231 q 665 92 657 135 q 674 39 674 49 q 628 9 674 19 q 547 -1 582 -1 q 515 19 525 -1 q 501 63 506 39 q 494 94 496 86 q 410 23 463 56 q 279 -10 357 -10 q 118 45 174 -10 q 63 194 63 100 q 483 451 63 450 l 483 504 q 358 597 483 597 q 267 585 307 597 q 199 560 228 574 q 167 547 171 547 q 126 585 149 547 q 103 643 103 624 q 138 687 103 665 q 235 722 174 708 q 367 736 296 736 m 483 329 q 303 302 368 328 q 238 211 238 276 q 260 152 238 174 q 325 131 282 131 q 415 156 374 131 q 483 221 456 181 l 483 329 m 543 993 q 582 961 582 993 q 523 849 582 894 q 379 804 464 804 q 235 849 293 804 q 176 961 176 894 q 214 993 176 993 q 236 987 229 993 q 254 964 243 981 q 379 918 288 918 q 504 967 471 918 q 522 988 515 982 q 543 993 528 993 z "},"ắ":{"ha":757,"x_min":63,"x_max":674,"o":"m 63 0 m 367 736 q 585 676 514 736 q 657 510 657 617 l 657 231 q 665 92 657 135 q 674 39 674 49 q 628 9 674 19 q 547 -1 582 -1 q 515 19 525 -1 q 501 63 506 39 q 494 94 496 86 q 410 23 463 56 q 279 -10 357 -10 q 118 45 174 -10 q 63 194 63 100 q 483 451 63 450 l 483 504 q 358 597 483 597 q 267 585 307 597 q 199 560 228 574 q 167 547 171 547 q 126 585 149 547 q 103 643 103 624 q 138 687 103 665 q 235 722 174 708 q 367 736 296 736 m 483 329 q 303 302 368 328 q 238 211 238 276 q 260 152 238 174 q 325 131 282 131 q 415 156 374 131 q 483 221 456 181 l 483 329 m 543 993 q 582 961 582 993 q 523 849 582 894 q 379 804 464 804 q 235 849 293 804 q 176 961 176 894 q 214 993 176 993 q 236 987 229 993 q 254 964 243 981 q 379 918 288 918 q 504 967 471 918 q 522 988 515 982 q 543 993 528 993 m 490 1238 q 549 1233 531 1238 q 568 1219 568 1229 q 553 1192 568 1211 q 503 1135 538 1174 l 429 1054 q 336 1024 401 1024 q 306 1028 314 1024 q 297 1042 297 1032 q 307 1067 297 1049 q 333 1113 317 1085 q 385 1201 351 1142 q 490 1238 404 1238 z "},"ặ":{"ha":757,"x_min":63,"x_max":674,"o":"m 63 0 m 367 736 q 585 676 514 736 q 657 510 657 617 l 657 231 q 665 92 657 135 q 674 39 674 49 q 628 9 674 19 q 547 -1 582 -1 q 515 19 525 -1 q 501 63 506 39 q 494 94 496 86 q 410 23 463 56 q 279 -10 357 -10 q 118 45 174 -10 q 63 194 63 100 q 483 451 63 450 l 483 504 q 358 597 483 597 q 267 585 307 597 q 199 560 228 574 q 167 547 171 547 q 126 585 149 547 q 103 643 103 624 q 138 687 103 665 q 235 722 174 708 q 367 736 296 736 m 483 329 q 303 302 368 328 q 238 211 238 276 q 260 152 238 174 q 325 131 282 131 q 415 156 374 131 q 483 221 456 181 l 483 329 m 543 993 q 582 961 582 993 q 523 849 582 894 q 379 804 464 804 q 235 849 293 804 q 176 961 176 894 q 214 993 176 993 q 236 987 229 993 q 254 964 243 981 q 379 918 288 918 q 504 967 471 918 q 522 988 515 982 q 543 993 528 993 m 378 -111 q 450 -150 450 -111 l 450 -229 q 375 -268 450 -268 q 320 -258 338 -268 q 303 -229 303 -249 l 303 -150 q 378 -111 303 -111 z "},"ằ":{"ha":757,"x_min":63,"x_max":674,"o":"m 63 0 m 367 736 q 585 676 514 736 q 657 510 657 617 l 657 231 q 665 92 657 135 q 674 39 674 49 q 628 9 674 19 q 547 -1 582 -1 q 515 19 525 -1 q 501 63 506 39 q 494 94 496 86 q 410 23 463 56 q 279 -10 357 -10 q 118 45 174 -10 q 63 194 63 100 q 483 451 63 450 l 483 504 q 358 597 483 597 q 267 585 307 597 q 199 560 228 574 q 167 547 171 547 q 126 585 149 547 q 103 643 103 624 q 138 687 103 665 q 235 722 174 708 q 367 736 296 736 m 483 329 q 303 302 368 328 q 238 211 238 276 q 260 152 238 174 q 325 131 282 131 q 415 156 374 131 q 483 221 456 181 l 483 329 m 543 993 q 582 961 582 993 q 523 849 582 894 q 379 804 464 804 q 235 849 293 804 q 176 961 176 894 q 214 993 176 993 q 236 987 229 993 q 254 964 243 981 q 379 918 288 918 q 504 967 471 918 q 522 988 515 982 q 543 993 528 993 m 279 1238 q 386 1201 364 1238 q 429 1126 382 1210 q 446 1097 435 1118 q 465 1061 457 1076 q 472 1042 472 1046 q 464 1028 472 1032 q 433 1024 456 1024 q 342 1054 369 1024 l 269 1133 q 217 1192 233 1172 q 201 1219 201 1211 q 220 1233 201 1229 q 279 1238 239 1238 z "},"ẳ":{"ha":757,"x_min":63,"x_max":674,"o":"m 63 0 m 367 736 q 585 676 514 736 q 657 510 657 617 l 657 231 q 665 92 657 135 q 674 39 674 49 q 628 9 674 19 q 547 -1 582 -1 q 515 19 525 -1 q 501 63 506 39 q 494 94 496 86 q 410 23 463 56 q 279 -10 357 -10 q 118 45 174 -10 q 63 194 63 100 q 483 451 63 450 l 483 504 q 358 597 483 597 q 267 585 307 597 q 199 560 228 574 q 167 547 171 547 q 126 585 149 547 q 103 643 103 624 q 138 687 103 665 q 235 722 174 708 q 367 736 296 736 m 483 329 q 303 302 368 328 q 238 211 238 276 q 260 152 238 174 q 325 131 282 131 q 415 156 374 131 q 483 221 456 181 l 483 329 m 543 993 q 582 961 582 993 q 523 849 582 894 q 379 804 464 804 q 235 849 293 804 q 176 961 176 894 q 214 993 176 993 q 236 987 229 993 q 254 964 243 981 q 379 918 288 918 q 504 967 471 918 q 522 988 515 982 q 543 993 528 993 m 431 1149 q 417 1173 431 1164 q 383 1182 403 1182 q 344 1174 361 1182 q 322 1165 326 1165 q 299 1185 314 1165 q 285 1219 285 1206 q 322 1248 285 1233 q 394 1263 358 1263 q 499 1235 458 1263 q 539 1157 539 1208 q 512 1086 539 1121 q 451 1029 485 1051 q 404 1007 418 1007 q 362 1017 385 1007 q 339 1036 339 1028 q 351 1056 339 1046 q 376 1078 363 1067 q 417 1114 403 1099 q 431 1149 431 1129 z "},"ẵ":{"ha":757,"x_min":63,"x_max":674,"o":"m 282 1217 q 345 1205 308 1217 q 389 1190 382 1193 q 427 1178 397 1188 q 475 1168 457 1169 q 521 1197 501 1168 q 553 1219 538 1219 q 568 1217 557 1219 l 581 1213 q 604 1182 604 1204 q 600 1164 604 1175 q 551 1092 583 1118 q 471 1067 518 1067 q 363 1092 438 1067 q 326 1103 357 1093 q 276 1114 296 1114 q 231 1085 250 1114 q 199 1063 214 1063 q 185 1065 196 1063 l 171 1071 q 147 1101 147 1079 q 151 1119 147 1110 q 201 1190 168 1164 q 282 1217 235 1217 m 543 993 q 582 961 582 993 q 523 849 582 894 q 379 804 464 804 q 235 849 293 804 q 176 961 176 894 q 214 993 176 993 q 236 987 229 993 q 254 964 243 981 q 379 918 288 918 q 504 967 471 918 q 522 988 515 982 q 543 993 528 993 m 367 736 q 585 676 514 736 q 657 510 657 617 l 657 231 q 665 92 657 135 q 674 39 674 49 q 628 9 674 19 q 547 -1 582 -1 q 515 19 525 -1 q 501 63 506 39 q 494 94 496 86 q 410 23 463 56 q 279 -10 357 -10 q 118 45 174 -10 q 63 194 63 100 q 483 451 63 450 l 483 504 q 358 597 483 597 q 267 585 307 597 q 199 560 228 574 q 167 547 171 547 q 126 585 149 547 q 103 643 103 624 q 138 687 103 665 q 235 722 174 708 q 367 736 296 736 m 483 329 q 303 302 368 328 q 238 211 238 276 q 260 152 238 174 q 325 131 282 131 q 415 156 374 131 q 483 221 456 181 l 483 329 z "},"â":{"ha":757,"x_min":63,"x_max":674,"o":"m 63 0 m 367 736 q 585 676 514 736 q 657 510 657 617 l 657 231 q 665 92 657 135 q 674 39 674 49 q 628 9 674 19 q 547 -1 582 -1 q 515 19 525 -1 q 501 63 506 39 q 494 94 496 86 q 410 23 463 56 q 279 -10 357 -10 q 118 45 174 -10 q 63 194 63 100 q 483 451 63 450 l 483 504 q 358 597 483 597 q 267 585 307 597 q 199 560 228 574 q 167 547 171 547 q 126 585 149 547 q 103 643 103 624 q 138 687 103 665 q 235 722 174 708 q 367 736 296 736 m 483 329 q 303 302 368 328 q 238 211 238 276 q 260 152 238 174 q 325 131 282 131 q 415 156 374 131 q 483 221 456 181 l 483 329 m 390 997 q 438 992 419 997 q 467 969 456 986 l 553 835 q 561 813 561 822 q 532 796 561 796 l 511 796 q 435 824 457 796 l 378 897 l 322 825 q 292 802 310 808 q 246 796 274 796 l 225 796 q 196 813 196 796 q 204 835 196 822 l 290 969 q 319 992 301 986 q 367 997 338 997 l 390 997 z "},"ấ":{"ha":757,"x_min":63,"x_max":757,"o":"m 679 1197 q 738 1193 719 1197 q 757 1179 757 1189 q 742 1152 757 1171 q 692 1094 726 1133 l 618 1014 q 525 983 590 983 q 494 988 503 983 q 486 1001 486 992 q 496 1026 486 1008 q 522 1072 506 1044 q 574 1161 540 1101 q 679 1197 593 1197 m 393 997 q 432 991 417 997 q 456 969 447 985 l 535 835 q 543 813 543 822 q 514 796 543 796 l 493 796 q 417 824 428 796 l 381 897 l 325 825 q 294 802 313 808 q 249 796 276 796 l 228 796 q 199 813 199 796 q 207 835 199 822 l 293 969 q 322 992 304 986 q 369 997 340 997 l 393 997 m 367 736 q 585 676 514 736 q 657 510 657 617 l 657 231 q 665 92 657 135 q 674 39 674 49 q 628 9 674 19 q 547 -1 582 -1 q 515 19 525 -1 q 501 63 506 39 q 494 94 496 86 q 410 23 463 56 q 279 -10 357 -10 q 118 45 174 -10 q 63 194 63 100 q 483 451 63 450 l 483 504 q 358 597 483 597 q 267 585 307 597 q 199 560 228 574 q 167 547 171 547 q 126 585 149 547 q 103 643 103 624 q 138 687 103 665 q 235 722 174 708 q 367 736 296 736 m 483 329 q 303 302 368 328 q 238 211 238 276 q 260 152 238 174 q 325 131 282 131 q 415 156 374 131 q 483 221 456 181 l 483 329 z "},"ậ":{"ha":757,"x_min":63,"x_max":674,"o":"m 63 0 m 367 736 q 585 676 514 736 q 657 510 657 617 l 657 231 q 665 92 657 135 q 674 39 674 49 q 628 9 674 19 q 547 -1 582 -1 q 515 19 525 -1 q 501 63 506 39 q 494 94 496 86 q 410 23 463 56 q 279 -10 357 -10 q 118 45 174 -10 q 63 194 63 100 q 483 451 63 450 l 483 504 q 358 597 483 597 q 267 585 307 597 q 199 560 228 574 q 167 547 171 547 q 126 585 149 547 q 103 643 103 624 q 138 687 103 665 q 235 722 174 708 q 367 736 296 736 m 483 329 q 303 302 368 328 q 238 211 238 276 q 260 152 238 174 q 325 131 282 131 q 415 156 374 131 q 483 221 456 181 l 483 329 m 390 997 q 438 992 419 997 q 467 969 456 986 l 553 835 q 561 813 561 822 q 532 796 561 796 l 511 796 q 435 824 457 796 l 378 897 l 322 825 q 292 802 310 808 q 246 796 274 796 l 225 796 q 196 813 196 796 q 204 835 196 822 l 290 969 q 319 992 301 986 q 367 997 338 997 l 390 997 m 378 -111 q 450 -150 450 -111 l 450 -229 q 375 -268 450 -268 q 320 -258 338 -268 q 303 -229 303 -249 l 303 -150 q 378 -111 303 -111 z "},"ầ":{"ha":757,"x_min":63,"x_max":674,"o":"m 468 1197 q 575 1161 553 1197 q 618 1086 571 1169 q 635 1057 624 1078 q 653 1021 646 1036 q 661 1001 661 1006 q 653 988 661 992 q 622 983 644 983 q 531 1014 558 983 l 458 1093 q 406 1151 422 1132 q 390 1179 390 1171 q 409 1193 390 1189 q 468 1197 428 1197 m 393 997 q 432 991 417 997 q 456 969 447 985 l 535 835 q 543 813 543 822 q 514 796 543 796 l 493 796 q 417 824 428 796 l 381 897 l 325 825 q 294 802 313 808 q 249 796 276 796 l 228 796 q 199 813 199 796 q 207 835 199 822 l 293 969 q 322 992 304 986 q 369 997 340 997 l 393 997 m 367 736 q 585 676 514 736 q 657 510 657 617 l 657 231 q 665 92 657 135 q 674 39 674 49 q 628 9 674 19 q 547 -1 582 -1 q 515 19 525 -1 q 501 63 506 39 q 494 94 496 86 q 410 23 463 56 q 279 -10 357 -10 q 118 45 174 -10 q 63 194 63 100 q 483 451 63 450 l 483 504 q 358 597 483 597 q 267 585 307 597 q 199 560 228 574 q 167 547 171 547 q 126 585 149 547 q 103 643 103 624 q 138 687 103 665 q 235 722 174 708 q 367 736 296 736 m 483 329 q 303 302 368 328 q 238 211 238 276 q 260 152 238 174 q 325 131 282 131 q 415 156 374 131 q 483 221 456 181 l 483 329 z "},"ẩ":{"ha":757,"x_min":63,"x_max":729,"o":"m 621 1108 q 607 1133 621 1124 q 574 1142 593 1142 q 534 1133 551 1142 q 513 1125 517 1125 q 490 1145 504 1125 q 475 1179 475 1165 q 512 1208 475 1193 q 585 1222 549 1222 q 689 1195 649 1222 q 729 1117 729 1168 q 702 1046 729 1081 q 642 989 675 1011 q 594 967 608 967 q 552 977 575 967 q 529 996 529 988 q 541 1016 529 1006 q 567 1038 553 1026 q 607 1074 593 1058 q 621 1108 621 1089 m 393 997 q 432 991 417 997 q 456 969 447 985 l 535 835 q 543 813 543 822 q 514 796 543 796 l 493 796 q 417 824 428 796 l 381 897 l 325 825 q 294 802 313 808 q 249 796 276 796 l 228 796 q 199 813 199 796 q 207 835 199 822 l 293 969 q 322 992 304 986 q 369 997 340 997 l 393 997 m 367 736 q 585 676 514 736 q 657 510 657 617 l 657 231 q 665 92 657 135 q 674 39 674 49 q 628 9 674 19 q 547 -1 582 -1 q 515 19 525 -1 q 501 63 506 39 q 494 94 496 86 q 410 23 463 56 q 279 -10 357 -10 q 118 45 174 -10 q 63 194 63 100 q 483 451 63 450 l 483 504 q 358 597 483 597 q 267 585 307 597 q 199 560 228 574 q 167 547 171 547 q 126 585 149 547 q 103 643 103 624 q 138 687 103 665 q 235 722 174 708 q 367 736 296 736 m 483 329 q 303 302 368 328 q 238 211 238 276 q 260 152 238 174 q 325 131 282 131 q 415 156 374 131 q 483 221 456 181 l 483 329 z "},"ẫ":{"ha":757,"x_min":63,"x_max":674,"o":"m 289 1214 q 352 1202 315 1214 q 396 1188 389 1190 q 434 1176 404 1185 q 482 1165 464 1167 q 528 1194 508 1165 q 560 1217 544 1217 q 575 1214 564 1217 l 588 1210 q 611 1179 611 1201 q 607 1161 611 1172 q 558 1090 590 1115 q 478 1064 525 1064 q 369 1089 444 1064 q 333 1101 364 1090 q 283 1111 303 1111 q 238 1082 257 1111 q 206 1060 221 1060 q 192 1063 203 1060 l 178 1068 q 154 1099 154 1076 q 158 1117 154 1107 q 208 1188 175 1161 q 289 1214 242 1214 m 392 997 q 439 992 421 997 q 468 969 457 986 l 554 835 q 563 813 563 822 q 533 796 563 796 l 513 796 q 436 824 458 796 l 379 897 l 324 825 q 293 802 311 808 q 247 796 275 796 l 226 796 q 197 813 197 796 q 206 835 197 822 l 292 969 q 321 992 303 986 q 368 997 339 997 l 392 997 m 367 736 q 585 676 514 736 q 657 510 657 617 l 657 231 q 665 92 657 135 q 674 39 674 49 q 628 9 674 19 q 547 -1 582 -1 q 515 19 525 -1 q 501 63 506 39 q 494 94 496 86 q 410 23 463 56 q 279 -10 357 -10 q 118 45 174 -10 q 63 194 63 100 q 483 451 63 450 l 483 504 q 358 597 483 597 q 267 585 307 597 q 199 560 228 574 q 167 547 171 547 q 126 585 149 547 q 103 643 103 624 q 138 687 103 665 q 235 722 174 708 q 367 736 296 736 m 483 329 q 303 302 368 328 q 238 211 238 276 q 260 152 238 174 q 325 131 282 131 q 415 156 374 131 q 483 221 456 181 l 483 329 z "},"ä":{"ha":757,"x_min":63,"x_max":674,"o":"m 63 0 m 367 736 q 585 676 514 736 q 657 510 657 617 l 657 231 q 665 92 657 135 q 674 39 674 49 q 628 9 674 19 q 547 -1 582 -1 q 515 19 525 -1 q 501 63 506 39 q 494 94 496 86 q 410 23 463 56 q 279 -10 357 -10 q 118 45 174 -10 q 63 194 63 100 q 483 451 63 450 l 483 504 q 358 597 483 597 q 267 585 307 597 q 199 560 228 574 q 167 547 171 547 q 126 585 149 547 q 103 643 103 624 q 138 687 103 665 q 235 722 174 708 q 367 736 296 736 m 483 329 q 303 302 368 328 q 238 211 238 276 q 260 152 238 174 q 325 131 282 131 q 415 156 374 131 q 483 221 456 181 l 483 329 m 264 975 q 338 936 338 975 l 338 857 q 263 818 338 818 q 206 828 224 818 q 189 857 189 838 l 189 936 q 264 975 189 975 m 496 975 q 569 936 569 975 l 569 857 q 494 818 569 818 q 438 828 456 818 q 421 857 421 838 l 421 936 q 496 975 421 975 z "},"ạ":{"ha":757,"x_min":63,"x_max":674,"o":"m 63 0 m 367 736 q 585 676 514 736 q 657 510 657 617 l 657 231 q 665 92 657 135 q 674 39 674 49 q 628 9 674 19 q 547 -1 582 -1 q 515 19 525 -1 q 501 63 506 39 q 494 94 496 86 q 410 23 463 56 q 279 -10 357 -10 q 118 45 174 -10 q 63 194 63 100 q 483 451 63 450 l 483 504 q 358 597 483 597 q 267 585 307 597 q 199 560 228 574 q 167 547 171 547 q 126 585 149 547 q 103 643 103 624 q 138 687 103 665 q 235 722 174 708 q 367 736 296 736 m 483 329 q 303 302 368 328 q 238 211 238 276 q 260 152 238 174 q 325 131 282 131 q 415 156 374 131 q 483 221 456 181 l 483 329 m 378 -111 q 450 -150 450 -111 l 450 -229 q 375 -268 450 -268 q 320 -258 338 -268 q 303 -229 303 -249 l 303 -150 q 378 -111 303 -111 z "},"à":{"ha":757,"x_min":63,"x_max":674,"o":"m 63 0 m 367 736 q 585 676 514 736 q 657 510 657 617 l 657 231 q 665 92 657 135 q 674 39 674 49 q 628 9 674 19 q 547 -1 582 -1 q 515 19 525 -1 q 501 63 506 39 q 494 94 496 86 q 410 23 463 56 q 279 -10 357 -10 q 118 45 174 -10 q 63 194 63 100 q 483 451 63 450 l 483 504 q 358 597 483 597 q 267 585 307 597 q 199 560 228 574 q 167 547 171 547 q 126 585 149 547 q 103 643 103 624 q 138 687 103 665 q 235 722 174 708 q 367 736 296 736 m 483 329 q 303 302 368 328 q 238 211 238 276 q 260 152 238 174 q 325 131 282 131 q 415 156 374 131 q 483 221 456 181 l 483 329 m 279 1018 q 386 982 364 1018 q 429 907 382 990 q 446 878 435 899 q 465 842 457 857 q 472 822 472 826 q 464 808 472 813 q 433 804 456 804 q 342 835 369 804 l 269 914 q 217 972 233 953 q 201 1000 201 992 q 220 1014 201 1010 q 279 1018 239 1018 z "},"ả":{"ha":757,"x_min":63,"x_max":674,"o":"m 63 0 m 367 736 q 585 676 514 736 q 657 510 657 617 l 657 231 q 665 92 657 135 q 674 39 674 49 q 628 9 674 19 q 547 -1 582 -1 q 515 19 525 -1 q 501 63 506 39 q 494 94 496 86 q 410 23 463 56 q 279 -10 357 -10 q 118 45 174 -10 q 63 194 63 100 q 483 451 63 450 l 483 504 q 358 597 483 597 q 267 585 307 597 q 199 560 228 574 q 167 547 171 547 q 126 585 149 547 q 103 643 103 624 q 138 687 103 665 q 235 722 174 708 q 367 736 296 736 m 483 329 q 303 302 368 328 q 238 211 238 276 q 260 152 238 174 q 325 131 282 131 q 415 156 374 131 q 483 221 456 181 l 483 329 m 431 929 q 417 953 431 944 q 383 963 403 963 q 344 954 361 963 q 322 946 326 946 q 299 966 314 946 q 285 1000 285 986 q 322 1028 285 1014 q 394 1043 358 1043 q 499 1016 458 1043 q 539 938 539 989 q 512 867 539 901 q 451 810 485 832 q 404 788 418 788 q 362 798 385 788 q 339 817 339 808 q 351 837 339 826 q 376 858 363 847 q 417 894 403 879 q 431 929 431 910 z "},"ā":{"ha":757,"x_min":63,"x_max":674,"o":"m 63 0 m 367 736 q 585 676 514 736 q 657 510 657 617 l 657 231 q 665 92 657 135 q 674 39 674 49 q 628 9 674 19 q 547 -1 582 -1 q 515 19 525 -1 q 501 63 506 39 q 494 94 496 86 q 410 23 463 56 q 279 -10 357 -10 q 118 45 174 -10 q 63 194 63 100 q 483 451 63 450 l 483 504 q 358 597 483 597 q 267 585 307 597 q 199 560 228 574 q 167 547 171 547 q 126 585 149 547 q 103 643 103 624 q 138 687 103 665 q 235 722 174 708 q 367 736 296 736 m 483 329 q 303 302 368 328 q 238 211 238 276 q 260 152 238 174 q 325 131 282 131 q 415 156 374 131 q 483 221 456 181 l 483 329 m 529 956 q 558 944 549 956 q 567 906 567 932 l 567 888 q 558 848 567 860 q 529 836 549 836 l 228 836 q 199 848 208 836 q 190 888 190 860 l 190 906 q 199 944 190 932 q 228 956 208 956 l 529 956 z "},"ą":{"ha":757,"x_min":63,"x_max":835,"o":"m 806 -108 q 835 -146 835 -108 q 803 -203 835 -187 q 721 -218 772 -218 q 590 -172 624 -218 q 557 -76 557 -126 q 569 0 557 -36 q 547 -1 560 -1 q 515 19 525 -1 q 501 63 506 39 q 494 94 496 86 q 410 23 463 56 q 279 -10 357 -10 q 118 45 174 -10 q 63 194 63 100 q 483 451 63 450 l 483 504 q 358 597 483 597 q 267 585 307 597 q 199 560 228 574 q 167 547 171 547 q 126 585 149 547 q 103 643 103 624 q 138 687 103 665 q 235 722 174 708 q 367 736 296 736 q 585 676 514 736 q 657 510 657 617 l 657 231 q 665 92 657 135 q 674 39 674 49 q 665 24 674 31 q 657 -7 664 14 q 650 -50 650 -28 q 675 -108 650 -94 q 736 -121 700 -121 q 775 -114 757 -121 q 806 -108 794 -108 m 483 329 q 303 302 368 328 q 238 211 238 276 q 260 152 238 174 q 325 131 282 131 q 415 156 374 131 q 483 221 456 181 l 483 329 z "},"å":{"ha":757,"x_min":63,"x_max":674,"o":"m 63 0 m 367 736 q 585 676 514 736 q 657 510 657 617 l 657 231 q 665 92 657 135 q 674 39 674 49 q 628 9 674 19 q 547 -1 582 -1 q 515 19 525 -1 q 501 63 506 39 q 494 94 496 86 q 410 23 463 56 q 279 -10 357 -10 q 118 45 174 -10 q 63 194 63 100 q 483 451 63 450 l 483 504 q 358 597 483 597 q 267 585 307 597 q 199 560 228 574 q 167 547 171 547 q 126 585 149 547 q 103 643 103 624 q 138 687 103 665 q 235 722 174 708 q 367 736 296 736 m 483 329 q 303 302 368 328 q 238 211 238 276 q 260 152 238 174 q 325 131 282 131 q 415 156 374 131 q 483 221 456 181 l 483 329 m 378 1032 q 472 994 433 1032 q 510 901 510 956 q 472 808 510 846 q 378 771 433 771 q 285 808 322 771 q 247 901 247 846 q 285 994 247 956 q 378 1032 322 1032 m 378 958 q 338 941 354 958 q 321 900 321 924 q 338 860 321 876 q 378 843 354 843 q 419 860 401 843 q 436 900 436 876 q 419 941 436 924 q 378 958 401 958 z "},"ǻ":{"ha":757,"x_min":63,"x_max":674,"o":"m 63 0 m 367 736 q 585 676 514 736 q 657 510 657 617 l 657 231 q 665 92 657 135 q 674 39 674 49 q 628 9 674 19 q 547 -1 582 -1 q 515 19 525 -1 q 501 63 506 39 q 494 94 496 86 q 410 23 463 56 q 279 -10 357 -10 q 118 45 174 -10 q 63 194 63 100 q 483 451 63 450 l 483 504 q 358 597 483 597 q 267 585 307 597 q 199 560 228 574 q 167 547 171 547 q 126 585 149 547 q 103 643 103 624 q 138 687 103 665 q 235 722 174 708 q 367 736 296 736 m 483 329 q 303 302 368 328 q 238 211 238 276 q 260 152 238 174 q 325 131 282 131 q 415 156 374 131 q 483 221 456 181 l 483 329 m 378 1032 q 472 994 433 1032 q 510 901 510 956 q 472 808 510 846 q 378 771 433 771 q 285 808 322 771 q 247 901 247 846 q 285 994 247 956 q 378 1032 322 1032 m 378 958 q 338 941 354 958 q 321 900 321 924 q 338 860 321 876 q 378 843 354 843 q 419 860 401 843 q 436 900 436 876 q 419 941 436 924 q 378 958 401 958 m 521 1282 q 580 1278 561 1282 q 599 1264 599 1274 q 583 1237 599 1256 q 533 1179 568 1218 l 460 1099 q 367 1068 432 1068 q 336 1072 344 1068 q 328 1086 328 1076 q 338 1111 328 1093 q 364 1157 347 1129 q 415 1246 382 1186 q 521 1282 435 1282 z "},"ã":{"ha":757,"x_min":63,"x_max":674,"o":"m 63 0 m 367 736 q 585 676 514 736 q 657 510 657 617 l 657 231 q 665 92 657 135 q 674 39 674 49 q 628 9 674 19 q 547 -1 582 -1 q 515 19 525 -1 q 501 63 506 39 q 494 94 496 86 q 410 23 463 56 q 279 -10 357 -10 q 118 45 174 -10 q 63 194 63 100 q 483 451 63 450 l 483 504 q 358 597 483 597 q 267 585 307 597 q 199 560 228 574 q 167 547 171 547 q 126 585 149 547 q 103 643 103 624 q 138 687 103 665 q 235 722 174 708 q 367 736 296 736 m 483 329 q 303 302 368 328 q 238 211 238 276 q 260 152 238 174 q 325 131 282 131 q 415 156 374 131 q 483 221 456 181 l 483 329 m 269 963 q 323 954 290 963 q 388 936 356 946 q 482 914 454 915 q 533 943 513 914 q 568 965 551 965 q 585 963 574 965 l 599 958 q 624 929 624 950 q 619 910 624 921 q 566 838 603 864 q 478 813 529 813 q 358 838 442 813 q 306 853 332 846 q 264 860 279 860 q 214 831 235 860 q 178 808 196 808 q 163 811 174 808 l 147 817 q 122 847 122 825 q 126 865 122 857 q 181 936 144 910 q 269 963 218 963 z "},"æ":{"ha":1151,"x_min":58,"x_max":1081,"o":"m 785 736 q 1008 644 935 736 q 1081 393 1081 553 q 1057 348 1081 376 q 1021 319 1033 319 l 635 319 q 685 175 638 221 q 813 129 732 129 q 894 140 858 129 q 967 168 929 151 q 993 178 989 178 q 1035 142 1013 178 q 1057 86 1057 107 q 1017 38 1057 60 q 919 3 978 15 q 807 -10 860 -10 q 543 82 632 -10 q 438 18 503 46 q 292 -10 374 -10 q 121 46 183 -10 q 58 194 58 101 q 458 443 58 439 q 485 553 464 500 q 356 597 454 597 q 272 586 310 597 q 196 558 235 575 q 164 547 171 547 q 123 585 146 547 q 100 643 100 624 q 135 687 100 665 q 232 722 171 708 q 364 736 293 736 q 583 681 511 736 q 785 736 661 736 m 783 597 q 633 443 651 597 l 908 443 q 876 558 908 518 q 783 597 843 597 m 454 319 q 292 293 350 318 q 235 211 235 268 q 257 152 235 174 q 321 131 279 131 q 409 149 368 131 q 476 199 450 167 q 454 319 456 256 z "},"ǽ":{"ha":1151,"x_min":58,"x_max":1081,"o":"m 58 0 m 785 736 q 1008 644 935 736 q 1081 393 1081 553 q 1057 348 1081 376 q 1021 319 1033 319 l 635 319 q 685 175 638 221 q 813 129 732 129 q 894 140 858 129 q 967 168 929 151 q 993 178 989 178 q 1035 142 1013 178 q 1057 86 1057 107 q 1017 38 1057 60 q 919 3 978 15 q 807 -10 860 -10 q 543 82 632 -10 q 438 18 503 46 q 292 -10 374 -10 q 121 46 183 -10 q 58 194 58 101 q 458 443 58 439 q 485 553 464 500 q 356 597 454 597 q 272 586 310 597 q 196 558 235 575 q 164 547 171 547 q 123 585 146 547 q 100 643 100 624 q 135 687 100 665 q 232 722 171 708 q 364 736 293 736 q 583 681 511 736 q 785 736 661 736 m 783 597 q 633 443 651 597 l 908 443 q 876 558 908 518 q 783 597 843 597 m 454 319 q 292 293 350 318 q 235 211 235 268 q 257 152 235 174 q 321 131 279 131 q 409 149 368 131 q 476 199 450 167 q 454 319 456 256 m 688 1018 q 747 1014 728 1018 q 765 1000 765 1010 q 750 973 765 992 q 700 915 735 954 l 626 835 q 533 804 599 804 q 503 808 511 804 q 494 822 494 813 q 504 847 494 829 q 531 893 514 865 q 582 982 549 922 q 688 1018 601 1018 z "},"b":{"ha":790,"x_min":101,"x_max":726,"o":"m 201 1046 q 275 1007 275 1046 l 275 683 q 438 736 346 736 q 649 637 572 736 q 726 364 726 538 q 693 165 726 250 q 600 35 660 81 q 463 -10 540 -10 q 349 18 401 -10 q 264 94 297 46 q 247 26 257 57 q 226 3 242 10 q 182 -3 211 -3 l 169 -3 q 101 36 101 -3 l 101 1007 q 175 1046 101 1046 l 201 1046 m 399 596 q 275 556 329 596 l 275 221 q 340 157 304 181 q 415 133 375 133 q 515 194 482 133 q 549 368 549 254 q 399 596 549 594 z "},"c":{"ha":674,"x_min":64,"x_max":644,"o":"m 410 736 q 564 713 494 736 q 633 653 633 690 q 609 595 633 633 q 569 557 585 557 q 549 565 568 557 q 417 597 485 597 q 286 541 329 597 q 243 365 243 485 q 283 186 243 243 q 417 129 324 129 q 560 163 489 129 q 581 171 579 171 q 622 135 600 171 q 644 78 644 99 q 603 30 644 50 q 507 0 563 10 q 410 -10 451 -10 q 149 81 235 -10 q 64 361 64 171 q 153 644 64 553 q 410 736 243 736 z "},"ć":{"ha":674,"x_min":64,"x_max":644,"o":"m 64 0 m 410 736 q 564 713 494 736 q 633 653 633 690 q 609 595 633 633 q 569 557 585 557 q 549 565 568 557 q 417 597 485 597 q 286 541 329 597 q 243 365 243 485 q 283 186 243 243 q 417 129 324 129 q 560 163 489 129 q 581 171 579 171 q 622 135 600 171 q 644 78 644 99 q 603 30 644 50 q 507 0 563 10 q 410 -10 451 -10 q 149 81 235 -10 q 64 361 64 171 q 153 644 64 553 q 410 736 243 736 m 494 1018 q 553 1014 535 1018 q 572 1000 572 1010 q 557 973 572 992 q 507 915 542 954 l 433 835 q 340 804 406 804 q 310 808 318 804 q 301 822 301 813 q 311 847 301 829 q 338 893 321 865 q 389 982 356 922 q 494 1018 408 1018 z "},"č":{"ha":674,"x_min":64,"x_max":644,"o":"m 64 0 m 410 736 q 564 713 494 736 q 633 653 633 690 q 609 595 633 633 q 569 557 585 557 q 549 565 568 557 q 417 597 485 597 q 286 541 329 597 q 243 365 243 485 q 283 186 243 243 q 417 129 324 129 q 560 163 489 129 q 581 171 579 171 q 622 135 600 171 q 644 78 644 99 q 603 30 644 50 q 507 0 563 10 q 410 -10 451 -10 q 149 81 235 -10 q 64 361 64 171 q 153 644 64 553 q 410 736 243 736 m 536 1000 q 567 983 567 1000 q 558 963 567 975 l 472 828 q 443 806 461 811 q 394 800 425 800 l 372 800 q 324 806 342 800 q 296 828 306 811 l 210 963 q 201 985 201 975 q 231 1000 201 1000 l 251 1000 q 296 994 278 1000 q 328 972 314 988 l 383 900 l 439 972 q 517 1000 460 1000 l 536 1000 z "},"ç":{"ha":674,"x_min":64,"x_max":644,"o":"m 644 78 q 580 19 644 42 q 443 -8 515 -3 l 429 -56 q 508 -84 474 -60 q 543 -160 543 -108 q 379 -293 543 -293 q 262 -275 318 -293 q 206 -228 206 -257 q 218 -189 206 -203 q 243 -175 231 -175 q 285 -186 254 -175 q 365 -204 333 -204 q 415 -171 415 -204 q 404 -147 415 -156 q 371 -131 393 -139 q 344 -117 353 -124 q 335 -100 335 -111 q 350 -46 335 -92 l 361 -8 q 138 94 211 3 q 64 361 64 185 q 153 644 64 553 q 410 736 243 736 q 564 713 494 736 q 633 653 633 690 q 609 595 633 633 q 569 557 585 557 q 549 565 568 557 q 417 597 485 597 q 286 541 329 597 q 243 365 243 485 q 283 186 243 243 q 417 129 324 129 q 560 163 489 129 q 581 171 579 171 q 622 135 600 171 q 644 78 644 99 z "},"ĉ":{"ha":674,"x_min":64,"x_max":644,"o":"m 64 0 m 410 736 q 564 713 494 736 q 633 653 633 690 q 609 595 633 633 q 569 557 585 557 q 549 565 568 557 q 417 597 485 597 q 286 541 329 597 q 243 365 243 485 q 283 186 243 243 q 417 129 324 129 q 560 163 489 129 q 581 171 579 171 q 622 135 600 171 q 644 78 644 99 q 603 30 644 50 q 507 0 563 10 q 410 -10 451 -10 q 149 81 235 -10 q 64 361 64 171 q 153 644 64 553 q 410 736 243 736 m 394 997 q 442 992 424 997 q 471 969 460 986 l 557 835 q 565 813 565 822 q 536 796 565 796 l 515 796 q 439 824 461 796 l 382 897 l 326 825 q 296 802 314 808 q 250 796 278 796 l 229 796 q 200 813 200 796 q 208 835 200 822 l 294 969 q 324 992 306 986 q 371 997 342 997 l 394 997 z "},"ċ":{"ha":674,"x_min":64,"x_max":644,"o":"m 64 0 m 410 736 q 564 713 494 736 q 633 653 633 690 q 609 595 633 633 q 569 557 585 557 q 549 565 568 557 q 417 597 485 597 q 286 541 329 597 q 243 365 243 485 q 283 186 243 243 q 417 129 324 129 q 560 163 489 129 q 581 171 579 171 q 622 135 600 171 q 644 78 644 99 q 603 30 644 50 q 507 0 563 10 q 410 -10 451 -10 q 149 81 235 -10 q 64 361 64 171 q 153 644 64 553 q 410 736 243 736 m 385 975 q 457 936 457 975 l 457 857 q 382 818 457 818 q 327 828 344 818 q 310 857 310 838 l 310 936 q 385 975 310 975 z "},"d":{"ha":785,"x_min":64,"x_max":704,"o":"m 615 1046 q 688 1007 688 1046 l 688 231 q 696 92 688 135 q 704 39 704 49 q 658 9 704 19 q 578 -1 613 -1 q 546 19 556 -1 q 531 63 536 39 q 525 94 526 86 q 440 18 492 46 q 326 -10 388 -10 q 189 35 249 -10 q 97 165 129 81 q 64 364 64 250 q 141 637 64 538 q 353 736 218 736 q 515 683 442 736 l 515 1007 q 588 1046 515 1046 l 615 1046 m 390 596 q 278 537 315 594 q 240 368 240 479 q 274 194 240 254 q 374 133 308 133 q 515 221 450 133 l 515 556 q 390 596 458 596 z "},"ð":{"ha":790,"x_min":65,"x_max":725,"o":"m 433 993 q 479 976 458 993 q 532 918 497 963 l 631 931 q 663 913 649 931 q 676 878 676 894 q 650 857 676 861 l 579 847 q 684 621 643 749 q 725 363 725 493 q 642 85 725 181 q 397 -10 558 -10 q 150 86 235 -10 q 65 363 65 182 q 150 640 65 544 q 397 736 235 736 q 482 726 444 736 q 431 828 456 785 q 333 814 340 814 q 301 831 315 814 q 286 867 286 847 q 292 881 286 876 q 313 888 299 886 l 386 899 q 360 933 379 908 q 340 968 340 958 q 364 985 340 981 l 433 993 m 396 597 q 278 539 317 597 q 240 364 240 481 q 278 188 240 246 q 396 129 317 129 q 511 188 474 129 q 549 364 549 246 q 512 540 549 482 q 396 597 475 597 z "},"ď":{"ha":785,"x_min":64,"x_max":925,"o":"m 64 0 m 615 1046 q 688 1007 688 1046 l 688 231 q 696 92 688 135 q 704 39 704 49 q 658 9 704 19 q 578 -1 613 -1 q 546 19 556 -1 q 531 63 536 39 q 525 94 526 86 q 440 18 492 46 q 326 -10 388 -10 q 189 35 249 -10 q 97 165 129 81 q 64 364 64 250 q 141 637 64 538 q 353 736 218 736 q 515 683 442 736 l 515 1007 q 588 1046 515 1046 l 615 1046 m 390 596 q 278 537 315 594 q 240 368 240 479 q 274 194 240 254 q 374 133 308 133 q 515 221 450 133 l 515 556 q 390 596 458 596 m 860 972 q 908 958 892 972 q 925 919 925 943 q 905 824 925 871 q 857 748 885 778 q 810 717 829 718 q 773 724 790 717 q 756 744 756 731 q 757 790 756 771 q 760 822 758 808 q 765 917 765 881 q 783 958 765 943 q 839 972 801 972 l 860 972 z "},"đ":{"ha":785,"x_min":64,"x_max":761,"o":"m 724 936 q 752 924 743 936 q 761 886 761 913 l 761 868 q 752 828 761 840 q 724 817 743 817 l 688 817 l 688 231 q 696 92 688 135 q 704 39 704 49 q 658 9 704 19 q 578 -1 613 -1 q 546 19 556 -1 q 531 63 536 39 q 525 94 526 86 q 440 18 492 46 q 326 -10 388 -10 q 189 35 249 -10 q 97 165 129 81 q 64 364 64 250 q 141 637 64 538 q 353 736 218 736 q 515 683 442 736 l 515 817 l 422 817 q 394 828 403 817 q 385 868 385 840 l 385 886 q 394 924 385 913 q 422 936 403 936 l 515 936 l 515 1007 q 588 1046 515 1046 l 615 1046 q 688 1007 688 1046 l 688 936 l 724 936 m 515 556 q 390 596 458 596 q 278 537 315 594 q 240 368 240 479 q 274 194 240 254 q 374 133 308 133 q 515 221 450 133 l 515 556 z "},"ḍ":{"ha":785,"x_min":64,"x_max":704,"o":"m 64 0 m 615 1046 q 688 1007 688 1046 l 688 231 q 696 92 688 135 q 704 39 704 49 q 658 9 704 19 q 578 -1 613 -1 q 546 19 556 -1 q 531 63 536 39 q 525 94 526 86 q 440 18 492 46 q 326 -10 388 -10 q 189 35 249 -10 q 97 165 129 81 q 64 364 64 250 q 141 637 64 538 q 353 736 218 736 q 515 683 442 736 l 515 1007 q 588 1046 515 1046 l 615 1046 m 390 596 q 278 537 315 594 q 240 368 240 479 q 274 194 240 254 q 374 133 308 133 q 515 221 450 133 l 515 556 q 390 596 458 596 m 403 -111 q 475 -150 475 -111 l 475 -229 q 400 -268 475 -268 q 345 -258 363 -268 q 328 -229 328 -249 l 328 -150 q 403 -111 328 -111 z "},"ǳ":{"ha":1464,"x_min":64,"x_max":1418,"o":"m 64 0 m 615 1046 q 688 1007 688 1046 l 688 231 q 696 92 688 135 q 704 39 704 49 q 658 9 704 19 q 578 -1 613 -1 q 546 19 556 -1 q 531 63 536 39 q 525 94 526 86 q 440 18 492 46 q 326 -10 388 -10 q 189 35 249 -10 q 97 165 129 81 q 64 364 64 250 q 141 637 64 538 q 353 736 218 736 q 515 683 442 736 l 515 1007 q 588 1046 515 1046 l 615 1046 m 390 596 q 278 537 315 594 q 240 368 240 479 q 274 194 240 254 q 374 133 308 133 q 515 221 450 133 l 515 556 q 390 596 458 596 m 1378 726 q 1401 692 1389 726 q 1414 632 1414 658 q 1410 614 1414 621 l 1061 140 l 1382 140 q 1410 126 1401 140 q 1418 81 1418 111 l 1418 60 q 1410 15 1418 29 q 1382 0 1401 0 l 864 0 q 840 33 853 0 q 828 93 828 67 q 832 111 828 106 l 1182 586 l 888 586 q 860 601 868 586 q 851 646 851 615 l 851 667 q 860 712 851 697 q 888 726 868 726 l 1378 726 z "},"ǆ":{"ha":1464,"x_min":64,"x_max":1418,"o":"m 64 0 m 615 1046 q 688 1007 688 1046 l 688 231 q 696 92 688 135 q 704 39 704 49 q 658 9 704 19 q 578 -1 613 -1 q 546 19 556 -1 q 531 63 536 39 q 525 94 526 86 q 440 18 492 46 q 326 -10 388 -10 q 189 35 249 -10 q 97 165 129 81 q 64 364 64 250 q 141 637 64 538 q 353 736 218 736 q 515 683 442 736 l 515 1007 q 588 1046 515 1046 l 615 1046 m 390 596 q 278 537 315 594 q 240 368 240 479 q 274 194 240 254 q 374 133 308 133 q 515 221 450 133 l 515 556 q 390 596 458 596 m 1378 726 q 1401 692 1389 726 q 1414 632 1414 658 q 1410 614 1414 621 l 1061 140 l 1382 140 q 1410 126 1401 140 q 1418 81 1418 111 l 1418 60 q 1410 15 1418 29 q 1382 0 1401 0 l 864 0 q 840 33 853 0 q 828 93 828 67 q 832 111 828 106 l 1182 586 l 888 586 q 860 601 868 586 q 851 646 851 615 l 851 667 q 860 712 851 697 q 888 726 868 726 l 1378 726 m 1278 1000 q 1308 983 1308 1000 q 1300 963 1308 975 l 1214 828 q 1185 806 1203 811 q 1136 800 1167 800 l 1114 800 q 1065 806 1083 800 q 1038 828 1047 811 l 951 963 q 943 985 943 975 q 972 1000 943 1000 l 993 1000 q 1038 994 1019 1000 q 1069 972 1056 988 l 1125 900 l 1181 972 q 1258 1000 1201 1000 l 1278 1000 z "},"e":{"ha":749,"x_min":65,"x_max":692,"o":"m 397 736 q 619 639 547 736 q 692 376 692 542 q 668 333 692 361 q 631 304 644 304 l 246 304 q 297 170 253 211 q 425 129 342 129 q 506 140 471 129 q 579 168 542 151 q 606 178 601 178 q 647 142 624 178 q 669 86 669 106 q 629 38 669 60 q 530 3 589 15 q 419 -10 471 -10 q 153 85 240 -10 q 65 358 65 179 q 152 643 65 550 q 397 736 239 736 m 396 597 q 246 428 265 597 l 519 428 q 489 553 519 508 q 396 597 458 597 z "},"é":{"ha":749,"x_min":65,"x_max":692,"o":"m 65 0 m 397 736 q 619 639 547 736 q 692 376 692 542 q 668 333 692 361 q 631 304 644 304 l 246 304 q 297 170 253 211 q 425 129 342 129 q 506 140 471 129 q 579 168 542 151 q 606 178 601 178 q 647 142 624 178 q 669 86 669 106 q 629 38 669 60 q 530 3 589 15 q 419 -10 471 -10 q 153 85 240 -10 q 65 358 65 179 q 152 643 65 550 q 397 736 239 736 m 396 597 q 246 428 265 597 l 519 428 q 489 553 519 508 q 396 597 458 597 m 486 1018 q 545 1014 526 1018 q 564 1000 564 1010 q 549 973 564 992 q 499 915 533 954 l 425 835 q 332 804 397 804 q 301 808 310 804 q 293 822 293 813 q 303 847 293 829 q 329 893 313 865 q 381 982 347 922 q 486 1018 400 1018 z "},"ĕ":{"ha":749,"x_min":65,"x_max":692,"o":"m 65 0 m 397 736 q 619 639 547 736 q 692 376 692 542 q 668 333 692 361 q 631 304 644 304 l 246 304 q 297 170 253 211 q 425 129 342 129 q 506 140 471 129 q 579 168 542 151 q 606 178 601 178 q 647 142 624 178 q 669 86 669 106 q 629 38 669 60 q 530 3 589 15 q 419 -10 471 -10 q 153 85 240 -10 q 65 358 65 179 q 152 643 65 550 q 397 736 239 736 m 396 597 q 246 428 265 597 l 519 428 q 489 553 519 508 q 396 597 458 597 m 539 993 q 578 961 578 993 q 519 849 578 894 q 375 804 460 804 q 231 849 289 804 q 172 961 172 894 q 210 993 172 993 q 232 987 225 993 q 250 964 239 981 q 375 918 283 918 q 500 967 467 918 q 517 988 511 982 q 539 993 524 993 z "},"ě":{"ha":749,"x_min":65,"x_max":692,"o":"m 65 0 m 397 736 q 619 639 547 736 q 692 376 692 542 q 668 333 692 361 q 631 304 644 304 l 246 304 q 297 170 253 211 q 425 129 342 129 q 506 140 471 129 q 579 168 542 151 q 606 178 601 178 q 647 142 624 178 q 669 86 669 106 q 629 38 669 60 q 530 3 589 15 q 419 -10 471 -10 q 153 85 240 -10 q 65 358 65 179 q 152 643 65 550 q 397 736 239 736 m 396 597 q 246 428 265 597 l 519 428 q 489 553 519 508 q 396 597 458 597 m 528 1000 q 558 983 558 1000 q 550 963 558 975 l 464 828 q 435 806 453 811 q 386 800 417 800 l 364 800 q 315 806 333 800 q 288 828 297 811 l 201 963 q 193 985 193 975 q 222 1000 193 1000 l 243 1000 q 288 994 269 1000 q 319 972 306 988 l 375 900 l 431 972 q 508 1000 451 1000 l 528 1000 z "},"ê":{"ha":749,"x_min":65,"x_max":692,"o":"m 65 0 m 397 736 q 619 639 547 736 q 692 376 692 542 q 668 333 692 361 q 631 304 644 304 l 246 304 q 297 170 253 211 q 425 129 342 129 q 506 140 471 129 q 579 168 542 151 q 606 178 601 178 q 647 142 624 178 q 669 86 669 106 q 629 38 669 60 q 530 3 589 15 q 419 -10 471 -10 q 153 85 240 -10 q 65 358 65 179 q 152 643 65 550 q 397 736 239 736 m 396 597 q 246 428 265 597 l 519 428 q 489 553 519 508 q 396 597 458 597 m 386 997 q 433 992 415 997 q 463 969 451 986 l 549 835 q 557 813 557 822 q 528 796 557 796 l 507 796 q 431 824 453 796 l 374 897 l 318 825 q 288 802 306 808 q 242 796 269 796 l 221 796 q 192 813 192 796 q 200 835 192 822 l 286 969 q 315 992 297 986 q 363 997 333 997 l 386 997 z "},"ế":{"ha":749,"x_min":65,"x_max":753,"o":"m 675 1197 q 734 1193 715 1197 q 753 1179 753 1189 q 738 1152 753 1171 q 688 1094 722 1133 l 614 1014 q 521 983 586 983 q 490 988 499 983 q 482 1001 482 992 q 492 1026 482 1008 q 518 1072 501 1044 q 569 1161 536 1101 q 675 1197 589 1197 m 389 997 q 428 991 413 997 q 451 969 443 985 l 531 835 q 539 813 539 822 q 510 796 539 796 l 489 796 q 413 824 424 796 l 376 897 l 321 825 q 290 802 308 808 q 244 796 272 796 l 224 796 q 194 813 194 796 q 203 835 194 822 l 289 969 q 318 992 300 986 q 365 997 336 997 l 389 997 m 397 736 q 619 639 547 736 q 692 376 692 542 q 668 333 692 361 q 631 304 644 304 l 246 304 q 297 170 253 211 q 425 129 342 129 q 506 140 471 129 q 579 168 542 151 q 606 178 601 178 q 647 142 624 178 q 669 86 669 106 q 629 38 669 60 q 530 3 589 15 q 419 -10 471 -10 q 153 85 240 -10 q 65 358 65 179 q 152 643 65 550 q 397 736 239 736 m 396 597 q 246 428 265 597 l 519 428 q 489 553 519 508 q 396 597 458 597 z "},"ệ":{"ha":749,"x_min":65,"x_max":692,"o":"m 65 0 m 397 736 q 619 639 547 736 q 692 376 692 542 q 668 333 692 361 q 631 304 644 304 l 246 304 q 297 170 253 211 q 425 129 342 129 q 506 140 471 129 q 579 168 542 151 q 606 178 601 178 q 647 142 624 178 q 669 86 669 106 q 629 38 669 60 q 530 3 589 15 q 419 -10 471 -10 q 153 85 240 -10 q 65 358 65 179 q 152 643 65 550 q 397 736 239 736 m 396 597 q 246 428 265 597 l 519 428 q 489 553 519 508 q 396 597 458 597 m 386 997 q 433 992 415 997 q 463 969 451 986 l 549 835 q 557 813 557 822 q 528 796 557 796 l 507 796 q 431 824 453 796 l 374 897 l 318 825 q 288 802 306 808 q 242 796 269 796 l 221 796 q 192 813 192 796 q 200 835 192 822 l 286 969 q 315 992 297 986 q 363 997 333 997 l 386 997 m 379 -111 q 451 -150 451 -111 l 451 -229 q 376 -268 451 -268 q 322 -258 339 -268 q 304 -229 304 -249 l 304 -150 q 379 -111 304 -111 z "},"ề":{"ha":749,"x_min":65,"x_max":692,"o":"m 464 1197 q 571 1161 549 1197 q 614 1086 567 1169 q 631 1057 619 1078 q 649 1021 642 1036 q 657 1001 657 1006 q 649 988 657 992 q 618 983 640 983 q 526 1014 554 983 l 454 1093 q 402 1151 418 1132 q 386 1179 386 1171 q 405 1193 386 1189 q 464 1197 424 1197 m 389 997 q 428 991 413 997 q 451 969 443 985 l 531 835 q 539 813 539 822 q 510 796 539 796 l 489 796 q 413 824 424 796 l 376 897 l 321 825 q 290 802 308 808 q 244 796 272 796 l 224 796 q 194 813 194 796 q 203 835 194 822 l 289 969 q 318 992 300 986 q 365 997 336 997 l 389 997 m 397 736 q 619 639 547 736 q 692 376 692 542 q 668 333 692 361 q 631 304 644 304 l 246 304 q 297 170 253 211 q 425 129 342 129 q 506 140 471 129 q 579 168 542 151 q 606 178 601 178 q 647 142 624 178 q 669 86 669 106 q 629 38 669 60 q 530 3 589 15 q 419 -10 471 -10 q 153 85 240 -10 q 65 358 65 179 q 152 643 65 550 q 397 736 239 736 m 396 597 q 246 428 265 597 l 519 428 q 489 553 519 508 q 396 597 458 597 z "},"ể":{"ha":749,"x_min":65,"x_max":725,"o":"m 617 1108 q 603 1133 617 1124 q 569 1142 589 1142 q 530 1133 547 1142 q 508 1125 513 1125 q 485 1145 500 1125 q 471 1179 471 1165 q 508 1208 471 1193 q 581 1222 544 1222 q 685 1195 644 1222 q 725 1117 725 1168 q 698 1046 725 1081 q 638 989 671 1011 q 590 967 604 967 q 548 977 571 967 q 525 996 525 988 q 537 1016 525 1006 q 563 1038 549 1026 q 603 1074 589 1058 q 617 1108 617 1089 m 389 997 q 428 991 413 997 q 451 969 443 985 l 531 835 q 539 813 539 822 q 510 796 539 796 l 489 796 q 413 824 424 796 l 376 897 l 321 825 q 290 802 308 808 q 244 796 272 796 l 224 796 q 194 813 194 796 q 203 835 194 822 l 289 969 q 318 992 300 986 q 365 997 336 997 l 389 997 m 397 736 q 619 639 547 736 q 692 376 692 542 q 668 333 692 361 q 631 304 644 304 l 246 304 q 297 170 253 211 q 425 129 342 129 q 506 140 471 129 q 579 168 542 151 q 606 178 601 178 q 647 142 624 178 q 669 86 669 106 q 629 38 669 60 q 530 3 589 15 q 419 -10 471 -10 q 153 85 240 -10 q 65 358 65 179 q 152 643 65 550 q 397 736 239 736 m 396 597 q 246 428 265 597 l 519 428 q 489 553 519 508 q 396 597 458 597 z "},"ễ":{"ha":749,"x_min":65,"x_max":692,"o":"m 285 1214 q 348 1202 311 1214 q 392 1188 385 1190 q 430 1176 400 1185 q 478 1165 460 1167 q 524 1194 504 1165 q 556 1217 540 1217 q 571 1214 560 1217 l 583 1210 q 607 1179 607 1201 q 603 1161 607 1172 q 553 1090 586 1115 q 474 1064 521 1064 q 365 1089 440 1064 q 329 1101 360 1090 q 279 1111 299 1111 q 233 1082 253 1111 q 201 1060 217 1060 q 188 1063 199 1060 l 174 1068 q 150 1099 150 1076 q 154 1117 150 1107 q 204 1188 171 1161 q 285 1214 238 1214 m 388 997 q 435 992 417 997 q 464 969 453 986 l 550 835 q 558 813 558 822 q 529 796 558 796 l 508 796 q 432 824 454 796 l 375 897 l 319 825 q 289 802 307 808 q 243 796 271 796 l 222 796 q 193 813 193 796 q 201 835 193 822 l 288 969 q 317 992 299 986 q 364 997 335 997 l 388 997 m 397 736 q 619 639 547 736 q 692 376 692 542 q 668 333 692 361 q 631 304 644 304 l 246 304 q 297 170 253 211 q 425 129 342 129 q 506 140 471 129 q 579 168 542 151 q 606 178 601 178 q 647 142 624 178 q 669 86 669 106 q 629 38 669 60 q 530 3 589 15 q 419 -10 471 -10 q 153 85 240 -10 q 65 358 65 179 q 152 643 65 550 q 397 736 239 736 m 396 597 q 246 428 265 597 l 519 428 q 489 553 519 508 q 396 597 458 597 z "},"ë":{"ha":749,"x_min":65,"x_max":692,"o":"m 65 0 m 397 736 q 619 639 547 736 q 692 376 692 542 q 668 333 692 361 q 631 304 644 304 l 246 304 q 297 170 253 211 q 425 129 342 129 q 506 140 471 129 q 579 168 542 151 q 606 178 601 178 q 647 142 624 178 q 669 86 669 106 q 629 38 669 60 q 530 3 589 15 q 419 -10 471 -10 q 153 85 240 -10 q 65 358 65 179 q 152 643 65 550 q 397 736 239 736 m 396 597 q 246 428 265 597 l 519 428 q 489 553 519 508 q 396 597 458 597 m 260 975 q 333 936 333 975 l 333 857 q 258 818 333 818 q 202 828 219 818 q 185 857 185 838 l 185 936 q 260 975 185 975 m 492 975 q 565 936 565 975 l 565 857 q 490 818 565 818 q 434 828 451 818 q 417 857 417 838 l 417 936 q 492 975 417 975 z "},"ė":{"ha":749,"x_min":65,"x_max":692,"o":"m 65 0 m 397 736 q 619 639 547 736 q 692 376 692 542 q 668 333 692 361 q 631 304 644 304 l 246 304 q 297 170 253 211 q 425 129 342 129 q 506 140 471 129 q 579 168 542 151 q 606 178 601 178 q 647 142 624 178 q 669 86 669 106 q 629 38 669 60 q 530 3 589 15 q 419 -10 471 -10 q 153 85 240 -10 q 65 358 65 179 q 152 643 65 550 q 397 736 239 736 m 396 597 q 246 428 265 597 l 519 428 q 489 553 519 508 q 396 597 458 597 m 376 975 q 449 936 449 975 l 449 857 q 374 818 449 818 q 319 828 336 818 q 301 857 301 838 l 301 936 q 376 975 301 975 z "},"ẹ":{"ha":749,"x_min":65,"x_max":692,"o":"m 65 0 m 397 736 q 619 639 547 736 q 692 376 692 542 q 668 333 692 361 q 631 304 644 304 l 246 304 q 297 170 253 211 q 425 129 342 129 q 506 140 471 129 q 579 168 542 151 q 606 178 601 178 q 647 142 624 178 q 669 86 669 106 q 629 38 669 60 q 530 3 589 15 q 419 -10 471 -10 q 153 85 240 -10 q 65 358 65 179 q 152 643 65 550 q 397 736 239 736 m 396 597 q 246 428 265 597 l 519 428 q 489 553 519 508 q 396 597 458 597 m 379 -111 q 451 -150 451 -111 l 451 -229 q 376 -268 451 -268 q 322 -258 339 -268 q 304 -229 304 -249 l 304 -150 q 379 -111 304 -111 z "},"è":{"ha":749,"x_min":65,"x_max":692,"o":"m 65 0 m 397 736 q 619 639 547 736 q 692 376 692 542 q 668 333 692 361 q 631 304 644 304 l 246 304 q 297 170 253 211 q 425 129 342 129 q 506 140 471 129 q 579 168 542 151 q 606 178 601 178 q 647 142 624 178 q 669 86 669 106 q 629 38 669 60 q 530 3 589 15 q 419 -10 471 -10 q 153 85 240 -10 q 65 358 65 179 q 152 643 65 550 q 397 736 239 736 m 396 597 q 246 428 265 597 l 519 428 q 489 553 519 508 q 396 597 458 597 m 275 1018 q 382 982 360 1018 q 425 907 378 990 q 442 878 431 899 q 460 842 453 857 q 468 822 468 826 q 460 808 468 813 q 429 804 451 804 q 338 835 365 804 l 265 914 q 213 972 229 953 q 197 1000 197 992 q 216 1014 197 1010 q 275 1018 235 1018 z "},"ẻ":{"ha":749,"x_min":65,"x_max":692,"o":"m 65 0 m 397 736 q 619 639 547 736 q 692 376 692 542 q 668 333 692 361 q 631 304 644 304 l 246 304 q 297 170 253 211 q 425 129 342 129 q 506 140 471 129 q 579 168 542 151 q 606 178 601 178 q 647 142 624 178 q 669 86 669 106 q 629 38 669 60 q 530 3 589 15 q 419 -10 471 -10 q 153 85 240 -10 q 65 358 65 179 q 152 643 65 550 q 397 736 239 736 m 396 597 q 246 428 265 597 l 519 428 q 489 553 519 508 q 396 597 458 597 m 426 929 q 413 953 426 944 q 379 963 399 963 q 340 954 357 963 q 318 946 322 946 q 295 966 310 946 q 281 1000 281 986 q 317 1028 281 1014 q 390 1043 354 1043 q 494 1016 454 1043 q 535 938 535 989 q 508 867 535 901 q 447 810 481 832 q 400 788 414 788 q 358 798 381 788 q 335 817 335 808 q 347 837 335 826 q 372 858 358 847 q 413 894 399 879 q 426 929 426 910 z "},"ē":{"ha":749,"x_min":65,"x_max":692,"o":"m 65 0 m 397 736 q 619 639 547 736 q 692 376 692 542 q 668 333 692 361 q 631 304 644 304 l 246 304 q 297 170 253 211 q 425 129 342 129 q 506 140 471 129 q 579 168 542 151 q 606 178 601 178 q 647 142 624 178 q 669 86 669 106 q 629 38 669 60 q 530 3 589 15 q 419 -10 471 -10 q 153 85 240 -10 q 65 358 65 179 q 152 643 65 550 q 397 736 239 736 m 396 597 q 246 428 265 597 l 519 428 q 489 553 519 508 q 396 597 458 597 m 525 956 q 553 944 544 956 q 563 906 563 932 l 563 888 q 553 848 563 860 q 525 836 544 836 l 224 836 q 195 848 204 836 q 186 888 186 860 l 186 906 q 195 944 186 932 q 224 956 204 956 l 525 956 z "},"ę":{"ha":749,"x_min":65,"x_max":775,"o":"m 746 -126 q 775 -164 775 -126 q 744 -221 775 -206 q 661 -236 713 -236 q 531 -190 564 -236 q 497 -94 497 -144 q 518 0 497 -35 q 419 -10 460 -10 q 153 85 240 -10 q 65 358 65 179 q 152 643 65 550 q 397 736 239 736 q 619 639 547 736 q 692 376 692 542 q 668 333 692 361 q 631 304 644 304 l 246 304 q 297 170 253 211 q 425 129 342 129 q 506 140 471 129 q 579 168 542 151 q 606 178 601 178 q 647 142 624 178 q 669 86 669 106 q 651 53 669 69 q 603 25 633 38 q 606 13 606 21 q 600 -15 606 7 q 590 -68 590 -47 q 615 -126 590 -112 q 676 -139 640 -139 q 715 -132 697 -139 q 746 -126 735 -126 m 396 597 q 246 428 265 597 l 519 428 q 489 553 519 508 q 396 597 458 597 z "},"ẽ":{"ha":749,"x_min":65,"x_max":692,"o":"m 65 0 m 397 736 q 619 639 547 736 q 692 376 692 542 q 668 333 692 361 q 631 304 644 304 l 246 304 q 297 170 253 211 q 425 129 342 129 q 506 140 471 129 q 579 168 542 151 q 606 178 601 178 q 647 142 624 178 q 669 86 669 106 q 629 38 669 60 q 530 3 589 15 q 419 -10 471 -10 q 153 85 240 -10 q 65 358 65 179 q 152 643 65 550 q 397 736 239 736 m 396 597 q 246 428 265 597 l 519 428 q 489 553 519 508 q 396 597 458 597 m 265 963 q 319 954 286 963 q 383 936 351 946 q 478 914 450 915 q 529 943 508 914 q 564 965 547 965 q 581 963 569 965 l 594 958 q 619 929 619 950 q 615 910 619 921 q 562 838 599 864 q 474 813 525 813 q 354 838 438 813 q 301 853 328 846 q 260 860 275 860 q 210 831 231 860 q 174 808 192 808 q 158 811 169 808 l 143 817 q 118 847 118 825 q 122 865 118 857 q 177 936 140 910 q 265 963 214 963 z "},"f":{"ha":451,"x_min":51,"x_max":444,"o":"m 318 1054 q 444 994 444 1054 q 433 943 444 978 q 406 908 422 908 q 385 911 399 908 q 357 914 371 914 q 312 898 326 914 q 297 839 297 882 l 297 726 l 386 726 q 414 712 406 726 q 422 667 422 697 l 422 646 q 414 601 422 615 q 386 586 406 586 l 297 586 l 297 36 q 225 -3 297 -3 l 197 -3 q 125 36 125 -3 l 125 586 l 89 586 q 60 600 69 586 q 51 646 51 614 l 51 667 q 60 713 51 699 q 89 726 69 726 l 125 726 l 125 840 q 178 1003 125 953 q 318 1054 231 1054 z "},"g":{"ha":758,"x_min":44,"x_max":739,"o":"m 369 736 q 468 726 425 736 l 701 726 q 730 713 721 726 q 739 667 739 699 l 739 646 q 707 589 739 589 q 633 594 669 589 l 632 590 q 651 548 644 574 q 658 497 658 522 q 583 319 658 382 q 379 257 507 257 q 303 243 328 257 q 278 199 278 229 q 315 152 278 165 q 432 129 353 139 l 489 121 q 645 64 588 104 q 703 -68 703 24 q 610 -233 703 -172 q 360 -294 518 -294 q 44 -110 44 -294 q 78 -10 44 -53 q 171 56 111 32 l 172 60 q 114 168 114 94 q 196 294 114 247 q 110 375 140 324 q 81 497 81 426 q 159 675 81 614 q 369 736 238 736 m 369 608 q 278 581 313 608 q 243 496 243 554 q 278 413 243 439 q 369 386 313 386 q 461 413 426 386 q 496 496 496 439 q 461 581 496 554 q 369 608 426 608 m 290 8 q 231 -28 253 -6 q 210 -81 210 -51 q 253 -138 210 -119 q 375 -157 297 -157 q 494 -136 454 -157 q 535 -76 535 -115 q 493 -26 535 -40 q 356 0 451 -11 l 290 8 z "},"ğ":{"ha":758,"x_min":44,"x_max":739,"o":"m 44 0 m 369 736 q 468 726 425 736 l 701 726 q 730 713 721 726 q 739 667 739 699 l 739 646 q 707 589 739 589 q 633 594 669 589 l 632 590 q 651 548 644 574 q 658 497 658 522 q 583 319 658 382 q 379 257 507 257 q 303 243 328 257 q 278 199 278 229 q 315 152 278 165 q 432 129 353 139 l 489 121 q 645 64 588 104 q 703 -68 703 24 q 610 -233 703 -172 q 360 -294 518 -294 q 44 -110 44 -294 q 78 -10 44 -53 q 171 56 111 32 l 172 60 q 114 168 114 94 q 196 294 114 247 q 110 375 140 324 q 81 497 81 426 q 159 675 81 614 q 369 736 238 736 m 369 608 q 278 581 313 608 q 243 496 243 554 q 278 413 243 439 q 369 386 313 386 q 461 413 426 386 q 496 496 496 439 q 461 581 496 554 q 369 608 426 608 m 290 8 q 231 -28 253 -6 q 210 -81 210 -51 q 253 -138 210 -119 q 375 -157 297 -157 q 494 -136 454 -157 q 535 -76 535 -115 q 493 -26 535 -40 q 356 0 451 -11 l 290 8 m 543 993 q 582 961 582 993 q 523 849 582 894 q 379 804 464 804 q 235 849 293 804 q 176 961 176 894 q 214 993 176 993 q 236 987 229 993 q 254 964 243 981 q 379 918 288 918 q 504 967 471 918 q 522 988 515 982 q 543 993 528 993 z "},"ĝ":{"ha":758,"x_min":44,"x_max":739,"o":"m 44 0 m 369 736 q 468 726 425 736 l 701 726 q 730 713 721 726 q 739 667 739 699 l 739 646 q 707 589 739 589 q 633 594 669 589 l 632 590 q 651 548 644 574 q 658 497 658 522 q 583 319 658 382 q 379 257 507 257 q 303 243 328 257 q 278 199 278 229 q 315 152 278 165 q 432 129 353 139 l 489 121 q 645 64 588 104 q 703 -68 703 24 q 610 -233 703 -172 q 360 -294 518 -294 q 44 -110 44 -294 q 78 -10 44 -53 q 171 56 111 32 l 172 60 q 114 168 114 94 q 196 294 114 247 q 110 375 140 324 q 81 497 81 426 q 159 675 81 614 q 369 736 238 736 m 369 608 q 278 581 313 608 q 243 496 243 554 q 278 413 243 439 q 369 386 313 386 q 461 413 426 386 q 496 496 496 439 q 461 581 496 554 q 369 608 426 608 m 290 8 q 231 -28 253 -6 q 210 -81 210 -51 q 253 -138 210 -119 q 375 -157 297 -157 q 494 -136 454 -157 q 535 -76 535 -115 q 493 -26 535 -40 q 356 0 451 -11 l 290 8 m 390 997 q 438 992 419 997 q 467 969 456 986 l 553 835 q 561 813 561 822 q 532 796 561 796 l 511 796 q 435 824 457 796 l 378 897 l 322 825 q 292 802 310 808 q 246 796 274 796 l 225 796 q 196 813 196 796 q 204 835 196 822 l 290 969 q 319 992 301 986 q 367 997 338 997 l 390 997 z "},"ģ":{"ha":758,"x_min":44,"x_max":739,"o":"m 44 0 m 369 736 q 468 726 425 736 l 701 726 q 730 713 721 726 q 739 667 739 699 l 739 646 q 707 589 739 589 q 633 594 669 589 l 632 590 q 651 548 644 574 q 658 497 658 522 q 583 319 658 382 q 379 257 507 257 q 303 243 328 257 q 278 199 278 229 q 315 152 278 165 q 432 129 353 139 l 489 121 q 645 64 588 104 q 703 -68 703 24 q 610 -233 703 -172 q 360 -294 518 -294 q 44 -110 44 -294 q 78 -10 44 -53 q 171 56 111 32 l 172 60 q 114 168 114 94 q 196 294 114 247 q 110 375 140 324 q 81 497 81 426 q 159 675 81 614 q 369 736 238 736 m 369 608 q 278 581 313 608 q 243 496 243 554 q 278 413 243 439 q 369 386 313 386 q 461 413 426 386 q 496 496 496 439 q 461 581 496 554 q 369 608 426 608 m 290 8 q 231 -28 253 -6 q 210 -81 210 -51 q 253 -138 210 -119 q 375 -157 297 -157 q 494 -136 454 -157 q 535 -76 535 -115 q 493 -26 535 -40 q 356 0 451 -11 l 290 8 m 367 804 q 319 819 336 804 q 303 857 303 833 q 328 955 303 907 q 390 1033 354 1003 q 450 1064 425 1064 q 487 1057 469 1064 q 504 1038 504 1050 q 499 1018 504 1029 q 493 1003 494 1007 q 469 938 478 968 q 461 860 461 907 q 443 819 461 833 q 388 804 425 804 l 367 804 z "},"ġ":{"ha":758,"x_min":44,"x_max":739,"o":"m 44 0 m 369 736 q 468 726 425 736 l 701 726 q 730 713 721 726 q 739 667 739 699 l 739 646 q 707 589 739 589 q 633 594 669 589 l 632 590 q 651 548 644 574 q 658 497 658 522 q 583 319 658 382 q 379 257 507 257 q 303 243 328 257 q 278 199 278 229 q 315 152 278 165 q 432 129 353 139 l 489 121 q 645 64 588 104 q 703 -68 703 24 q 610 -233 703 -172 q 360 -294 518 -294 q 44 -110 44 -294 q 78 -10 44 -53 q 171 56 111 32 l 172 60 q 114 168 114 94 q 196 294 114 247 q 110 375 140 324 q 81 497 81 426 q 159 675 81 614 q 369 736 238 736 m 369 608 q 278 581 313 608 q 243 496 243 554 q 278 413 243 439 q 369 386 313 386 q 461 413 426 386 q 496 496 496 439 q 461 581 496 554 q 369 608 426 608 m 290 8 q 231 -28 253 -6 q 210 -81 210 -51 q 253 -138 210 -119 q 375 -157 297 -157 q 494 -136 454 -157 q 535 -76 535 -115 q 493 -26 535 -40 q 356 0 451 -11 l 290 8 m 381 975 q 453 936 453 975 l 453 857 q 378 818 453 818 q 323 828 340 818 q 306 857 306 838 l 306 936 q 381 975 306 975 z "},"h":{"ha":785,"x_min":104,"x_max":693,"o":"m 204 1046 q 278 1007 278 1046 l 278 642 q 368 710 315 683 q 481 736 421 736 q 635 683 578 736 q 693 511 693 629 l 693 36 q 621 -3 693 -3 l 593 -3 q 521 36 521 -3 l 521 488 q 494 565 521 538 q 413 592 467 592 q 329 562 365 592 q 278 506 293 532 l 278 36 q 204 -3 278 -3 l 178 -3 q 104 36 104 -3 l 104 1007 q 178 1046 104 1046 l 204 1046 z "},"ħ":{"ha":785,"x_min":39,"x_max":693,"o":"m 481 736 q 635 683 578 736 q 693 511 693 629 l 693 36 q 621 -3 693 -3 l 593 -3 q 521 36 521 -3 l 521 488 q 494 565 521 538 q 413 592 467 592 q 329 562 365 592 q 278 506 293 532 l 278 36 q 204 -3 278 -3 l 178 -3 q 104 36 104 -3 l 104 817 l 76 817 q 48 828 57 817 q 39 868 39 840 l 39 886 q 48 924 39 913 q 76 936 57 936 l 104 936 l 104 1007 q 178 1046 104 1046 l 204 1046 q 278 1007 278 1046 l 278 936 l 378 936 q 406 924 397 936 q 415 886 415 913 l 415 868 q 406 828 415 840 q 378 817 397 817 l 278 817 l 278 642 q 368 710 315 683 q 481 736 421 736 z "},"ĥ":{"ha":785,"x_min":8,"x_max":693,"o":"m 8 0 m 204 1046 q 278 1007 278 1046 l 278 642 q 368 710 315 683 q 481 736 421 736 q 635 683 578 736 q 693 511 693 629 l 693 36 q 621 -3 693 -3 l 593 -3 q 521 36 521 -3 l 521 488 q 494 565 521 538 q 413 592 467 592 q 329 562 365 592 q 278 506 293 532 l 278 36 q 204 -3 278 -3 l 178 -3 q 104 36 104 -3 l 104 1007 q 178 1046 104 1046 l 204 1046 m 203 1286 q 250 1281 232 1286 q 279 1258 268 1275 l 365 1124 q 374 1101 374 1111 q 344 1085 374 1085 l 324 1085 q 247 1113 269 1085 l 190 1186 l 135 1114 q 104 1091 122 1097 q 58 1085 86 1085 l 38 1085 q 8 1101 8 1085 q 17 1124 8 1111 l 103 1258 q 132 1281 114 1275 q 179 1286 150 1286 l 203 1286 z "},"ḥ":{"ha":785,"x_min":104,"x_max":693,"o":"m 104 0 m 204 1046 q 278 1007 278 1046 l 278 642 q 368 710 315 683 q 481 736 421 736 q 635 683 578 736 q 693 511 693 629 l 693 36 q 621 -3 693 -3 l 593 -3 q 521 36 521 -3 l 521 488 q 494 565 521 538 q 413 592 467 592 q 329 562 365 592 q 278 506 293 532 l 278 36 q 204 -3 278 -3 l 178 -3 q 104 36 104 -3 l 104 1007 q 178 1046 104 1046 l 204 1046 m 394 -111 q 467 -150 467 -111 l 467 -229 q 392 -268 467 -268 q 337 -258 354 -268 q 319 -229 319 -249 l 319 -150 q 394 -111 319 -111 z "},"i":{"ha":368,"x_min":96,"x_max":274,"o":"m 200 1046 q 274 1007 274 1046 l 274 906 q 256 876 274 886 q 200 867 239 867 l 169 867 q 113 876 131 867 q 96 906 96 886 l 96 1007 q 169 1046 96 1046 l 200 1046 m 199 729 q 271 690 271 729 l 271 36 q 199 -3 271 -3 l 171 -3 q 99 36 99 -3 l 99 690 q 171 729 99 729 l 199 729 z "},"ı":{"ha":368,"x_min":99,"x_max":271,"o":"m 199 729 q 271 690 271 729 l 271 36 q 199 -3 271 -3 l 171 -3 q 99 36 99 -3 l 99 690 q 171 729 99 729 l 199 729 z "},"í":{"ha":368,"x_min":99,"x_max":374,"o":"m 99 0 m 199 729 q 271 690 271 729 l 271 36 q 199 -3 271 -3 l 171 -3 q 99 36 99 -3 l 99 690 q 171 729 99 729 l 199 729 m 296 1018 q 355 1014 336 1018 q 374 1000 374 1010 q 358 973 374 992 q 308 915 343 954 l 235 835 q 142 804 207 804 q 111 808 119 804 q 103 822 103 813 q 113 847 103 829 q 139 893 122 865 q 190 982 157 922 q 296 1018 210 1018 z "},"ĭ":{"ha":368,"x_min":-18,"x_max":388,"o":"m 0 0 m 199 729 q 271 690 271 729 l 271 36 q 199 -3 271 -3 l 171 -3 q 99 36 99 -3 l 99 690 q 171 729 99 729 l 199 729 m 349 993 q 388 961 388 993 q 328 849 388 894 q 185 804 269 804 q 40 849 99 804 q -18 961 -18 894 q 19 993 -18 993 q 42 987 35 993 q 60 964 49 981 q 185 918 93 918 q 310 967 276 918 q 327 988 321 982 q 349 993 333 993 z "},"î":{"ha":368,"x_min":1,"x_max":367,"o":"m 1 0 m 199 729 q 271 690 271 729 l 271 36 q 199 -3 271 -3 l 171 -3 q 99 36 99 -3 l 99 690 q 171 729 99 729 l 199 729 m 196 997 q 243 992 225 997 q 272 969 261 986 l 358 835 q 367 813 367 822 q 338 796 367 796 l 317 796 q 240 824 263 796 l 183 897 l 128 825 q 97 802 115 808 q 51 796 79 796 l 31 796 q 1 813 1 796 q 10 835 1 822 l 96 969 q 125 992 107 986 q 172 997 143 997 l 196 997 z "},"ï":{"ha":368,"x_min":-6,"x_max":375,"o":"m 0 0 m 199 729 q 271 690 271 729 l 271 36 q 199 -3 271 -3 l 171 -3 q 99 36 99 -3 l 99 690 q 171 729 99 729 l 199 729 m 69 975 q 143 936 143 975 l 143 857 q 68 818 143 818 q 12 828 29 818 q -6 857 -6 838 l -6 936 q 69 975 -6 975 m 301 975 q 375 936 375 975 l 375 857 q 300 818 375 818 q 244 828 261 818 q 226 857 226 838 l 226 936 q 301 975 226 975 z "},"ị":{"ha":368,"x_min":96,"x_max":274,"o":"m 96 0 m 200 1046 q 274 1007 274 1046 l 274 906 q 256 876 274 886 q 200 867 239 867 l 169 867 q 113 876 131 867 q 96 906 96 886 l 96 1007 q 169 1046 96 1046 l 200 1046 m 199 729 q 271 690 271 729 l 271 36 q 199 -3 271 -3 l 171 -3 q 99 36 99 -3 l 99 690 q 171 729 99 729 l 199 729 m 186 -111 q 258 -150 258 -111 l 258 -229 q 183 -268 258 -268 q 128 -258 146 -268 q 111 -229 111 -249 l 111 -150 q 186 -111 111 -111 z "},"ì":{"ha":368,"x_min":7,"x_max":278,"o":"m 7 0 m 199 729 q 271 690 271 729 l 271 36 q 199 -3 271 -3 l 171 -3 q 99 36 99 -3 l 99 690 q 171 729 99 729 l 199 729 m 85 1018 q 192 982 169 1018 q 235 907 188 990 q 251 878 240 899 q 270 842 263 857 q 278 822 278 826 q 269 808 278 813 q 239 804 261 804 q 147 835 175 804 l 75 914 q 23 972 39 953 q 7 1000 7 992 q 26 1014 7 1010 q 85 1018 44 1018 z "},"ỉ":{"ha":368,"x_min":90,"x_max":344,"o":"m 90 0 m 199 729 q 271 690 271 729 l 271 36 q 199 -3 271 -3 l 171 -3 q 99 36 99 -3 l 99 690 q 171 729 99 729 l 199 729 m 236 929 q 222 953 236 944 q 189 963 208 963 q 149 954 167 963 q 128 946 132 946 q 105 966 119 946 q 90 1000 90 986 q 127 1028 90 1014 q 200 1043 164 1043 q 304 1016 264 1043 q 344 938 344 989 q 317 867 344 901 q 257 810 290 832 q 210 788 224 788 q 167 798 190 788 q 144 817 144 808 q 156 837 144 826 q 182 858 168 847 q 222 894 208 879 q 236 929 236 910 z "},"ĳ":{"ha":751,"x_min":96,"x_max":656,"o":"m 96 0 m 200 1046 q 274 1007 274 1046 l 274 906 q 256 876 274 886 q 200 867 239 867 l 169 867 q 113 876 131 867 q 96 906 96 886 l 96 1007 q 169 1046 96 1046 l 200 1046 m 199 729 q 271 690 271 729 l 271 36 q 199 -3 271 -3 l 171 -3 q 99 36 99 -3 l 99 690 q 171 729 99 729 l 199 729 m 583 1046 q 656 1007 656 1046 l 656 906 q 638 876 656 886 q 583 867 621 867 l 553 867 q 497 876 514 867 q 479 906 479 886 l 479 1007 q 553 1046 479 1046 l 583 1046 m 581 729 q 654 690 654 729 l 654 -82 q 598 -242 654 -190 q 460 -294 542 -294 q 362 -281 393 -294 q 331 -233 331 -268 q 344 -179 331 -210 q 374 -149 357 -149 q 393 -151 379 -149 q 422 -154 407 -154 q 466 -137 451 -154 q 481 -79 481 -121 l 481 690 q 554 729 481 729 l 581 729 z "},"ī":{"ha":368,"x_min":-4,"x_max":372,"o":"m 0 0 m 199 729 q 271 690 271 729 l 271 36 q 199 -3 271 -3 l 171 -3 q 99 36 99 -3 l 99 690 q 171 729 99 729 l 199 729 m 335 956 q 363 944 354 956 q 372 906 372 932 l 372 888 q 363 848 372 860 q 335 836 354 836 l 33 836 q 5 848 14 836 q -4 888 -4 860 l -4 906 q 5 944 -4 932 q 33 956 14 956 l 335 956 z "},"į":{"ha":368,"x_min":96,"x_max":399,"o":"m 169 867 q 113 876 131 867 q 96 906 96 886 l 96 1007 q 169 1046 96 1046 l 200 1046 q 274 1007 274 1046 l 274 906 q 256 876 274 886 q 200 867 239 867 l 169 867 m 369 -144 q 399 -182 399 -144 q 367 -239 399 -224 q 285 -254 336 -254 q 154 -208 188 -254 q 121 -112 121 -162 q 128 -53 121 -85 q 153 -3 135 -22 q 99 36 99 3 l 99 690 q 171 729 99 729 l 199 729 q 271 690 271 729 l 271 36 q 229 0 271 6 l 229 -6 q 224 -33 229 -11 q 214 -86 214 -65 q 239 -144 214 -131 q 300 -157 264 -157 q 339 -150 321 -157 q 369 -144 358 -144 z "},"ĩ":{"ha":368,"x_min":-47,"x_max":404,"o":"m 86 963 q 134 954 104 963 q 192 936 164 946 q 276 914 251 915 q 324 943 304 914 q 354 965 339 965 q 369 963 358 965 l 382 958 q 404 929 404 951 q 400 910 404 921 q 352 839 385 865 q 274 813 319 813 q 223 821 253 813 q 165 839 193 829 q 126 851 154 842 q 81 860 97 860 q 36 831 53 860 q 19 813 26 818 q 3 808 11 808 q -11 811 0 808 l -25 817 q -47 846 -47 825 q -43 865 -47 856 q 7 936 -26 910 q 86 963 40 963 m 199 729 q 271 690 271 729 l 271 36 q 199 -3 271 -3 l 171 -3 q 99 36 99 -3 l 99 690 q 171 729 99 729 l 199 729 z "},"j":{"ha":383,"x_min":-37,"x_max":288,"o":"m 215 1046 q 288 1007 288 1046 l 288 906 q 270 876 288 886 q 215 867 253 867 l 185 867 q 128 876 146 867 q 111 906 111 886 l 111 1007 q 185 1046 111 1046 l 215 1046 m 213 729 q 286 690 286 729 l 286 -82 q 230 -242 286 -190 q 92 -294 174 -294 q -6 -281 25 -294 q -37 -233 -37 -268 q -24 -179 -37 -210 q 6 -149 -11 -149 q 25 -151 11 -149 q 54 -154 39 -154 q 98 -137 83 -154 q 113 -79 113 -121 l 113 690 q 186 729 113 729 l 213 729 z "},"ȷ":{"ha":383,"x_min":-37,"x_max":286,"o":"m 213 729 q 286 690 286 729 l 286 -82 q 230 -242 286 -190 q 92 -294 174 -294 q -6 -281 25 -294 q -37 -233 -37 -268 q -24 -179 -37 -210 q 6 -149 -11 -149 q 25 -151 11 -149 q 54 -154 39 -154 q 98 -137 83 -154 q 113 -79 113 -121 l 113 690 q 186 729 113 729 l 213 729 z "},"ĵ":{"ha":383,"x_min":-37,"x_max":382,"o":"m 0 0 m 213 729 q 286 690 286 729 l 286 -82 q 230 -242 286 -190 q 92 -294 174 -294 q -6 -281 25 -294 q -37 -233 -37 -268 q -24 -179 -37 -210 q 6 -149 -11 -149 q 25 -151 11 -149 q 54 -154 39 -154 q 98 -137 83 -154 q 113 -79 113 -121 l 113 690 q 186 729 113 729 l 213 729 m 211 997 q 258 992 240 997 q 288 969 276 986 l 374 835 q 382 813 382 822 q 353 796 382 796 l 332 796 q 256 824 278 796 l 199 897 l 143 825 q 113 802 131 808 q 67 796 94 796 l 46 796 q 17 813 17 796 q 25 835 17 822 l 111 969 q 140 992 122 986 q 188 997 158 997 l 211 997 z "},"k":{"ha":724,"x_min":106,"x_max":700,"o":"m 206 1046 q 279 1007 279 1046 l 279 431 l 285 431 l 488 706 q 517 724 499 719 q 568 729 536 729 l 603 729 q 653 724 636 729 q 671 710 671 718 q 657 682 671 697 l 440 396 l 689 44 q 700 18 700 28 q 628 -3 700 -3 l 589 -3 q 537 2 557 -3 q 508 21 517 7 l 285 343 l 279 343 l 279 36 q 206 -3 279 -3 l 179 -3 q 106 36 106 -3 l 106 1007 q 179 1046 106 1046 l 206 1046 z "},"ķ":{"ha":724,"x_min":106,"x_max":700,"o":"m 106 0 m 206 1046 q 279 1007 279 1046 l 279 431 l 285 431 l 488 706 q 517 724 499 719 q 568 729 536 729 l 603 729 q 653 724 636 729 q 671 710 671 718 q 657 682 671 697 l 440 396 l 689 44 q 700 18 700 28 q 628 -3 700 -3 l 589 -3 q 537 2 557 -3 q 508 21 517 7 l 285 343 l 279 343 l 279 36 q 206 -3 279 -3 l 179 -3 q 106 36 106 -3 l 106 1007 q 179 1046 106 1046 l 206 1046 m 375 -71 q 422 -85 406 -71 q 439 -124 439 -100 q 413 -222 439 -174 q 352 -300 388 -269 q 292 -331 317 -331 q 255 -324 272 -331 q 238 -304 238 -317 q 242 -285 238 -296 q 249 -269 247 -274 q 272 -204 264 -235 q 281 -126 281 -174 q 299 -85 281 -100 q 354 -71 317 -71 l 375 -71 z "},"ĸ":{"ha":724,"x_min":106,"x_max":700,"o":"m 206 729 q 279 690 279 729 l 279 431 l 285 431 l 488 706 q 517 724 499 719 q 568 729 536 729 l 603 729 q 653 724 636 729 q 671 710 671 718 q 657 682 671 697 l 440 396 l 689 44 q 700 18 700 28 q 628 -3 700 -3 l 589 -3 q 537 2 557 -3 q 508 21 517 7 l 285 343 l 279 343 l 279 36 q 206 -3 279 -3 l 179 -3 q 106 36 106 -3 l 106 690 q 179 729 106 729 l 206 729 z "},"l":{"ha":413,"x_min":97,"x_max":413,"o":"m 197 1046 q 271 1007 271 1046 l 271 206 q 285 147 271 164 q 329 129 300 129 q 356 133 343 129 q 375 136 368 136 q 402 101 392 136 q 413 49 413 65 q 292 -10 413 -10 q 150 41 203 -10 q 97 203 97 92 l 97 1007 q 171 1046 97 1046 l 197 1046 z "},"ĺ":{"ha":413,"x_min":97,"x_max":413,"o":"m 97 0 m 197 1046 q 271 1007 271 1046 l 271 206 q 285 147 271 164 q 329 129 300 129 q 356 133 343 129 q 375 136 368 136 q 402 101 392 136 q 413 49 413 65 q 292 -10 413 -10 q 150 41 203 -10 q 97 203 97 92 l 97 1007 q 171 1046 97 1046 l 197 1046 m 294 1292 q 353 1288 335 1292 q 372 1274 372 1283 q 357 1247 372 1265 q 307 1189 342 1228 l 233 1108 q 140 1078 206 1078 q 110 1082 118 1078 q 101 1096 101 1086 q 111 1121 101 1103 q 138 1167 121 1139 q 189 1256 156 1196 q 294 1292 208 1292 z "},"ľ":{"ha":413,"x_min":97,"x_max":496,"o":"m 97 0 m 197 1046 q 271 1007 271 1046 l 271 206 q 285 147 271 164 q 329 129 300 129 q 356 133 343 129 q 375 136 368 136 q 402 101 392 136 q 413 49 413 65 q 292 -10 413 -10 q 150 41 203 -10 q 97 203 97 92 l 97 1007 q 171 1046 97 1046 l 197 1046 m 431 1019 q 479 1005 463 1019 q 496 967 496 990 q 476 872 496 918 q 428 795 456 825 q 381 764 400 765 q 344 771 361 764 q 326 792 326 778 q 328 837 326 818 q 331 869 329 856 q 336 964 336 928 q 354 1005 336 990 q 410 1019 372 1019 l 431 1019 z "},"ļ":{"ha":413,"x_min":97,"x_max":413,"o":"m 97 0 m 197 1046 q 271 1007 271 1046 l 271 206 q 285 147 271 164 q 329 129 300 129 q 356 133 343 129 q 375 136 368 136 q 402 101 392 136 q 413 49 413 65 q 292 -10 413 -10 q 150 41 203 -10 q 97 203 97 92 l 97 1007 q 171 1046 97 1046 l 197 1046 m 265 -71 q 313 -85 296 -71 q 329 -124 329 -100 q 303 -222 329 -174 q 242 -300 278 -269 q 182 -331 207 -331 q 145 -324 163 -331 q 128 -304 128 -317 q 133 -285 128 -296 q 139 -269 138 -274 q 163 -204 154 -235 q 171 -126 171 -174 q 189 -85 171 -100 q 244 -71 207 -71 l 265 -71 z "},"ŀ":{"ha":413,"x_min":97,"x_max":500,"o":"m 97 0 m 197 1046 q 271 1007 271 1046 l 271 206 q 285 147 271 164 q 329 129 300 129 q 356 133 343 129 q 375 136 368 136 q 402 101 392 136 q 413 49 413 65 q 292 -10 413 -10 q 150 41 203 -10 q 97 203 97 92 l 97 1007 q 171 1046 97 1046 l 197 1046 m 413 588 q 474 562 449 588 q 500 499 500 536 q 474 437 500 463 q 413 411 449 411 q 351 437 376 411 q 325 499 325 463 q 351 562 325 536 q 413 588 376 588 z "},"ǉ":{"ha":796,"x_min":97,"x_max":700,"o":"m 97 0 m 197 1046 q 271 1007 271 1046 l 271 206 q 285 147 271 164 q 329 129 300 129 q 356 133 343 129 q 375 136 368 136 q 402 101 392 136 q 413 49 413 65 q 292 -10 413 -10 q 150 41 203 -10 q 97 203 97 92 l 97 1007 q 171 1046 97 1046 l 197 1046 m 628 1046 q 700 1007 700 1046 l 700 906 q 683 876 700 886 q 628 867 665 867 l 597 867 q 541 876 558 867 q 524 906 524 886 l 524 1007 q 597 1046 524 1046 l 628 1046 m 625 729 q 699 690 699 729 l 699 -82 q 642 -242 699 -190 q 504 -294 586 -294 q 406 -281 438 -294 q 375 -233 375 -268 q 388 -179 375 -210 q 418 -149 401 -149 q 438 -151 424 -149 q 467 -154 451 -154 q 510 -137 496 -154 q 525 -79 525 -121 l 525 690 q 599 729 525 729 l 625 729 z "}}}
